<?xml version="1.0" encoding="UTF-8" standalone="no"?>
<!-- Created with Inkscape (http://www.inkscape.org/) -->

<svg
   xmlns:dc="http://purl.org/dc/elements/1.1/"
   xmlns:cc="http://creativecommons.org/ns#"
   xmlns:rdf="http://www.w3.org/1999/02/22-rdf-syntax-ns#"
   xmlns:svg="http://www.w3.org/2000/svg"
   xmlns="http://www.w3.org/2000/svg"
   xmlns:sodipodi="http://sodipodi.sourceforge.net/DTD/sodipodi-0.dtd"
   xmlns:inkscape="http://www.inkscape.org/namespaces/inkscape"
   width="168mm"
   height="58.460152mm"
   viewBox="0 0 168 58.460152"
   version="1.1"
   id="svg8"
   inkscape:version="0.92.4 5da689c313, 2019-01-14"
   sodipodi:docname="MAR_inconsistency_003.svg">
  <defs
     id="defs2" />
  <sodipodi:namedview
     id="base"
     pagecolor="#000000"
     bordercolor="#666666"
     borderopacity="1.0"
     inkscape:pageopacity="0"
     inkscape:pageshadow="2"
     inkscape:zoom="0.49497475"
     inkscape:cx="72.843057"
     inkscape:cy="-22.909561"
     inkscape:document-units="mm"
     inkscape:current-layer="layer1"
     showgrid="false"
     inkscape:window-width="1920"
     inkscape:window-height="1006"
     inkscape:window-x="0"
     inkscape:window-y="0"
     inkscape:window-maximized="1"
     fit-margin-top="0"
     fit-margin-left="0"
     fit-margin-right="0"
     fit-margin-bottom="0" />
  <metadata
     id="metadata5">
    <rdf:RDF>
      <cc:Work
         rdf:about="">
        <dc:format>image/svg+xml</dc:format>
        <dc:type
           rdf:resource="http://purl.org/dc/dcmitype/StillImage" />
        <dc:title></dc:title>
      </cc:Work>
    </rdf:RDF>
  </metadata>
  <g
     inkscape:label="Layer 1"
     inkscape:groupmode="layer"
     id="layer1"
     transform="translate(-23.401149,-108.79667)">
    <g
       id="g859"
       transform="translate(-56.696429,21.166667)"
       style="fill:#ffffff;fill-opacity:1">
      <g
         word-spacing="normal"
         letter-spacing="normal"
         font-size-adjust="none"
         font-stretch="normal"
         font-weight="normal"
         font-variant="normal"
         font-style="normal"
         stroke-miterlimit="10.433"
         xml:space="preserve"
         transform="matrix(0.3,0,0,-0.3,-52.5,222.75)"
         id="content"
         style="font-style:normal;font-variant:normal;font-weight:normal;font-stretch:normal;letter-spacing:normal;word-spacing:normal;text-anchor:start;fill:#ffffff;fill-opacity:1;fill-rule:evenodd;stroke:#000000;stroke-linecap:butt;stroke-linejoin:miter;stroke-miterlimit:10.43299961;stroke-dasharray:none;stroke-dashoffset:0;stroke-opacity:1"><path
           id="path818"
           d="m 464.33,440.78 -7.17,-0.55 v -1.55 c 3.48,0 3.89,-0.34 3.89,-2.79 v -25.91 c 0,-2.23 -0.55,-2.23 -3.89,-2.23 v -1.55 c 1.64,0.05 4.28,0.16 5.53,0.16 1.25,0 3.69,-0.11 5.53,-0.16 v 1.55 c -3.34,0 -3.89,0 -3.89,2.23 z"
           inkscape:connector-curvature="0"
           style="fill:#ffffff;fill-opacity:1;stroke-width:0" /><path
           id="path820"
           d="m 492.79,416.86 -0.02,0.59 -0.04,0.59 -0.07,0.58 -0.1,0.57 -0.13,0.56 -0.14,0.55 -0.18,0.54 -0.2,0.53 -0.22,0.51 -0.25,0.5 -0.26,0.49 -0.29,0.47 -0.31,0.46 -0.33,0.44 -0.34,0.43 -0.37,0.4 -0.38,0.39 -0.41,0.37 -0.41,0.35 -0.43,0.32 -0.45,0.31 -0.46,0.28 -0.48,0.26 -0.48,0.24 -0.5,0.21 -0.51,0.18 -0.52,0.16 -0.54,0.13 -0.53,0.11 -0.55,0.07 -0.56,0.05 -0.56,0.01 -0.05,-1.09 c 2.19,0 4.33,-1.1 5.63,-3.24 1.29,-2.14 1.29,-5.03 1.29,-6.92 0,-1.8 0,-4.48 -1.09,-6.67 -1.09,-2.25 -3.28,-3.69 -5.78,-3.69 v 0 c -2.14,0 -4.33,1.05 -5.67,3.33 -1.25,2.2 -1.25,5.23 -1.25,7.03 0,1.94 0,4.63 1.19,6.83 1.35,2.28 3.68,3.33 5.68,3.33 l 0.05,1.09 c -6.22,0 -11.06,-5.42 -11.06,-11.65 0,-6.43 5.18,-11.21 11.01,-11.21 6.03,0 11.07,4.88 11.07,11.21 z"
           inkscape:connector-curvature="0"
           style="fill:#ffffff;fill-opacity:1;stroke-width:0" /><path
           id="path822"
           d="m 499.55,412.82 0.01,0.03 v 0.02 0.03 0.04 0.04 0.05 0.05 l 0.01,0.06 v 0.05 l 0.01,0.07 0.01,0.06 0.01,0.07 0.01,0.07 0.02,0.08 0.01,0.08 0.02,0.08 0.02,0.08 0.03,0.08 0.02,0.09 0.03,0.09 0.03,0.09 0.04,0.09 0.04,0.09 0.04,0.1 0.05,0.09 0.05,0.1 0.05,0.09 0.06,0.1 0.06,0.09 0.07,0.1 0.07,0.09 0.08,0.1 c 1.95,-1.39 3.98,-1.55 4.94,-1.55 v 1.14 c -4.35,0 -4.35,4.99 -4.35,6.14 0,1.35 0.06,2.94 0.8,4.17 0.41,0.61 1.55,2 3.55,2 4.32,0 4.32,-4.98 4.32,-6.12 0,-1.34 -0.04,-2.94 -0.79,-4.19 -0.39,-0.59 -1.55,-2 -3.53,-2 v 0 -1.14 c 4.62,0 8.06,3.44 8.06,7.28 0,1.85 -0.8,3.69 -2.03,4.83 1.78,1.69 3.58,1.94 4.48,1.94 0.1,0 0.35,0 0.5,-0.05 -0.56,-0.2 -0.8,-0.75 -0.8,-1.34 0,-0.85 0.65,-1.44 1.44,-1.44 0.5,0 1.44,0.34 1.44,1.48 0,0.85 -0.59,2.44 -2.53,2.44 -1,0 -3.19,-0.3 -5.28,-2.33 -2.1,1.64 -4.19,1.78 -5.28,1.78 -4.64,0 -8.08,-3.43 -8.08,-7.26 0,-2.19 1.09,-4.09 2.34,-5.14 -0.64,-0.74 -1.55,-2.39 -1.55,-4.13 0,-1.54 0.66,-3.43 2.21,-4.43 -3,-0.85 -4.6,-2.99 -4.6,-4.99 0,-3.58 4.94,-6.33 11.02,-6.33 l 0.05,1.14 c -5.03,0 -8.47,2.55 -8.47,5.19 0,2.3 1.89,4.14 4.09,4.28 h 2.94 c 4.28,0 9.86,0 9.86,-4.28 0,-2.69 -3.53,-5.19 -8.42,-5.19 v 0 l -0.05,-1.14 c 5.87,0 11.06,2.55 11.06,6.43 0,1.75 -0.7,4.29 -3.23,5.68 -2.64,1.39 -5.53,1.39 -8.58,1.39 -1.25,0 -3.39,0 -3.73,0.05 -1.6,0.2 -2.65,1.75 -2.65,3.34 z"
           inkscape:connector-curvature="0"
           style="fill:#ffffff;fill-opacity:1;stroke-width:0" /><path
           id="path824"
           d="m 548.82,389.27 v 0.02 l -0.01,0.02 v 0.01 0.02 0.02 0.01 l -0.01,0.02 v 0.01 0.02 l -0.01,0.01 v 0.02 l -0.01,0.01 v 0.01 l -0.01,0.02 -0.01,0.01 v 0.01 l -0.02,0.03 -0.01,0.02 -0.02,0.03 -0.02,0.02 -0.02,0.03 -0.02,0.03 -0.02,0.02 -0.01,0.02 -0.01,0.01 c -2.29,2.44 -5.67,6.49 -7.76,14.6 -1.16,4.53 -1.6,9.67 -1.6,14.29 0,13.11 3.15,22.28 9.11,28.75 0.46,0.46 0.46,0.55 0.46,0.66 0,0.5 -0.41,0.5 -0.6,0.5 -0.75,0 -3.44,-3 -4.09,-3.75 -5.08,-6.02 -8.31,-14.98 -8.31,-26.09 0,-7.08 1.23,-17.1 7.76,-25.52 0.5,-0.59 3.74,-4.39 4.64,-4.39 0.19,0 0.6,0 0.6,0.5 z"
           inkscape:connector-curvature="0"
           style="fill:#ffffff;fill-opacity:1;stroke-width:0" /><path
           id="path826"
           d="m 578.68,448.27 h 0.12 0.12 l 0.11,0.01 h 0.11 l 0.12,0.01 0.11,0.01 0.11,0.02 0.06,0.01 0.06,0.01 0.06,0.02 0.06,0.01 0.06,0.02 0.06,0.02 0.06,0.02 0.07,0.03 0.07,0.02 0.06,0.03 0.07,0.03 0.08,0.03 0.07,0.04 0.08,0.04 0.08,0.04 0.08,0.05 0.08,0.04 0.09,0.06 c 0.22,0.09 1.22,0.76 1.22,1.28 0,0.28 -0.24,0.28 -0.86,0.28 h -10.5 c -4.49,0 -6.52,-0.77 -7.32,-1.08 -3.54,-1.39 -4.59,-3.8 -4.59,-4.42 0,-0.28 0.23,-0.31 0.45,-0.31 0.74,0 2.47,0.9 2.75,1.76 0.39,1.16 0.49,1.44 2.72,1.72 0.14,0 1.81,0.2 3.77,0.2 h 3.93 c -2.26,-2.15 -3.31,-6.06 -4.32,-10.14 -0.83,-3.31 -1.77,-7.03 -3.52,-9.06 -0.31,-0.34 -0.45,-0.34 -1.39,-0.34 h -2.58 c -0.62,0 -1.15,0 -2.06,-0.57 -0.38,-0.2 -1.22,-0.79 -1.22,-1.28 0,-0.28 0.25,-0.28 0.88,-0.28 h 13.31 c 4.67,0 7.62,3.06 7.62,4.36 0,0.03 0,0.28 -0.42,0.28 -0.65,0 -2.39,-0.81 -2.78,-1.78 -0.17,-0.48 -0.2,-0.53 -0.66,-0.62 -0.64,-0.11 -1.26,-0.11 -1.54,-0.11 h -7.38 c 2.58,2.29 3.63,5.54 4.85,10.45 0.73,2.97 1.76,7.14 3.37,9.09 z"
           inkscape:connector-curvature="0"
           style="fill:#ffffff;fill-opacity:1;stroke-width:0" /><path
           id="path828"
           d="m 594.57,429.53 v 0.18 0.21 l -0.01,0.24 v 0.25 l -0.01,0.28 -0.02,0.3 -0.03,0.31 -0.03,0.33 -0.04,0.34 -0.06,0.35 -0.06,0.36 -0.08,0.37 -0.1,0.36 -0.1,0.37 -0.13,0.37 -0.14,0.36 -0.16,0.36 -0.19,0.35 -0.2,0.35 -0.23,0.33 -0.25,0.31 -0.27,0.3 -0.15,0.15 -0.15,0.14 -0.16,0.13 -0.17,0.13 -0.18,0.12 -0.18,0.12 -0.19,0.11 -0.2,0.1 -0.2,0.1 -0.21,0.09 -0.23,0.08 -0.22,0.08 -0.24,0.06 -0.25,0.06 -0.25,0.05 -0.27,0.04 -0.27,0.04 -0.28,0.02 -0.29,0.02 h -0.3 v -0.83 c 1.84,0 3.17,-0.93 3.66,-2.68 0.36,-1.27 0.36,-3.35 0.36,-4.82 0,-1.68 0,-3.7 -0.38,-5.2 -0.66,-2.42 -2.64,-2.78 -3.64,-2.78 v 0 c -0.92,0 -3.02,0.31 -3.64,2.83 -0.34,1.34 -0.38,3.12 -0.38,5.15 0,1.85 0,3.57 0.41,4.99 0.63,2.09 2.55,2.51 3.61,2.51 v 0.83 c -6.5,0 -6.5,-6.83 -6.5,-8.62 0,-1.82 0,-8.52 6.5,-8.52 6.5,0 6.5,6.7 6.5,8.52 z"
           inkscape:connector-curvature="0"
           style="fill:#ffffff;fill-opacity:1;stroke-width:0" /><polyline
           id="polyline830"
           points="557,418 599,418 599,420.04 557,420.04 "
           style="fill:#ffffff;fill-opacity:1;fill-rule:nonzero;stroke-width:0" /><path
           id="path832"
           d="m 587.2,410.71 h 0.12 0.12 0.11 l 0.11,0.01 0.12,0.01 0.11,0.01 0.11,0.02 0.06,0.01 0.06,0.01 0.06,0.02 0.06,0.01 0.06,0.02 0.06,0.02 0.06,0.02 0.07,0.02 0.06,0.03 0.07,0.03 0.07,0.03 0.08,0.03 0.07,0.04 0.08,0.04 0.07,0.04 0.09,0.04 0.08,0.05 0.09,0.05 c 0.22,0.1 1.22,0.77 1.22,1.28 0,0.29 -0.24,0.29 -0.87,0.29 h -10.5 c -4.48,0 -6.51,-0.77 -7.31,-1.08 -3.54,-1.39 -4.59,-3.8 -4.59,-4.42 0,-0.29 0.23,-0.32 0.45,-0.32 0.74,0 2.47,0.91 2.75,1.77 0.39,1.16 0.49,1.44 2.72,1.72 0.14,0 1.81,0.2 3.77,0.2 h 3.93 c -2.26,-2.16 -3.31,-6.06 -4.32,-10.14 -0.83,-3.31 -1.77,-7.03 -3.52,-9.06 -0.31,-0.35 -0.45,-0.35 -1.39,-0.35 h -2.58 c -0.62,0 -1.16,0 -2.06,-0.56 -0.38,-0.2 -1.22,-0.8 -1.22,-1.28 0,-0.28 0.25,-0.28 0.87,-0.28 h 13.32 c 4.67,0 7.62,3.06 7.62,4.36 0,0.03 0,0.28 -0.42,0.28 -0.65,0 -2.39,-0.81 -2.78,-1.78 -0.17,-0.49 -0.2,-0.53 -0.66,-0.63 -0.64,-0.11 -1.26,-0.11 -1.54,-0.11 h -7.38 c 2.58,2.3 3.63,5.55 4.84,10.46 0.74,2.97 1.77,7.14 3.38,9.09 z"
           inkscape:connector-curvature="0"
           style="fill:#ffffff;fill-opacity:1;stroke-width:0" /><path
           id="path834"
           d="m 620.12,418.61 -0.01,1.36 -0.05,1.43 -0.09,1.47 -0.14,1.53 -0.19,1.57 -0.25,1.61 -0.32,1.63 -0.39,1.66 -0.22,0.83 -0.24,0.84 -0.26,0.84 -0.28,0.84 -0.31,0.84 -0.33,0.84 -0.35,0.85 -0.37,0.83 -0.41,0.84 -0.42,0.83 -0.46,0.83 -0.48,0.82 -0.51,0.82 -0.53,0.81 -0.57,0.8 -0.6,0.8 c -0.5,0.59 -3.73,4.39 -4.62,4.39 -0.25,0 -0.61,-0.11 -0.61,-0.5 0,-0.2 0.11,-0.36 0.3,-0.5 2.39,-2.59 5.64,-6.63 7.67,-14.55 1.15,-4.53 1.61,-9.67 1.61,-14.29 0,-5.04 -0.46,-10.13 -1.75,-15 -1.89,-6.99 -4.83,-10.97 -7.38,-13.75 -0.45,-0.46 -0.45,-0.55 -0.45,-0.66 0,-0.39 0.36,-0.5 0.61,-0.5 0.73,0 3.48,3.05 4.08,3.75 5.08,6.02 8.32,14.98 8.32,26.09 z"
           inkscape:connector-curvature="0"
           style="fill:#ffffff;fill-opacity:1;stroke-width:0" /><path
           id="path836"
           d="m 675.88,422.5 h 0.13 0.15 0.14 l 0.08,0.01 h 0.07 l 0.07,0.01 0.07,0.01 0.07,0.01 0.07,0.01 0.07,0.01 0.07,0.02 0.06,0.02 0.06,0.02 0.07,0.02 0.05,0.03 0.06,0.03 0.05,0.04 0.05,0.03 0.05,0.05 0.04,0.04 0.04,0.05 0.02,0.03 0.02,0.03 0.01,0.02 0.02,0.03 0.01,0.03 0.02,0.04 0.01,0.03 0.01,0.04 0.01,0.03 0.01,0.04 0.01,0.04 v 0.04 l 0.01,0.04 v 0.04 0.04 0.05 c 0,1 -0.95,1 -1.64,1 h -29.84 c -0.7,0 -1.64,0 -1.64,-1 0,-0.98 0.94,-0.98 1.68,-0.98 z"
           inkscape:connector-curvature="0"
           style="fill:#ffffff;fill-opacity:1;stroke-width:0" /><path
           id="path838"
           d="m 675.92,412.82 h 0.07 0.06 l 0.14,0.01 h 0.14 0.07 l 0.07,0.01 0.07,0.01 h 0.07 l 0.07,0.01 0.06,0.02 0.07,0.01 0.06,0.02 0.07,0.02 0.06,0.02 0.06,0.02 0.06,0.03 0.05,0.03 0.05,0.04 0.05,0.04 0.05,0.04 0.04,0.05 0.02,0.02 0.02,0.03 0.02,0.02 0.02,0.03 0.02,0.03 0.01,0.03 0.01,0.03 0.02,0.03 0.01,0.04 0.01,0.03 0.01,0.04 0.01,0.04 0.01,0.04 v 0.04 l 0.01,0.04 v 0.04 0.05 0.04 c 0,1 -0.95,1 -1.68,1 h -29.76 c -0.74,0 -1.68,0 -1.68,-1 0,-1 0.94,-1 1.64,-1 z"
           inkscape:connector-curvature="0"
           style="fill:#ffffff;fill-opacity:1;stroke-width:0" /><path
           id="path840"
           d="m 707.75,402.44 -0.03,-0.38 -0.04,-0.37 -0.07,-0.72 -0.07,-0.68 -0.09,-0.65 -0.09,-0.61 -0.1,-0.59 -0.1,-0.55 -0.11,-0.53 -0.12,-0.49 -0.12,-0.47 -0.13,-0.44 -0.14,-0.41 -0.14,-0.38 -0.15,-0.36 -0.16,-0.33 -0.16,-0.31 -0.17,-0.28 -0.17,-0.27 -0.18,-0.23 -0.19,-0.22 -0.2,-0.2 -0.2,-0.17 -0.21,-0.16 -0.21,-0.13 -0.22,-0.12 -0.23,-0.1 -0.23,-0.08 -0.24,-0.07 -0.24,-0.05 -0.25,-0.03 -0.26,-0.02 -0.26,-0.01 c -0.65,0 -2.15,0.14 -3.19,1.05 1.45,0.19 1.84,1.34 1.84,2.03 0,1.45 -1.09,2.09 -2.05,2.09 -0.98,0 -2.07,-0.64 -2.07,-2.14 0,-2.39 2.48,-4.12 5.47,-4.12 4.73,0 7.12,4.33 8.21,8.81 0.66,2.59 2.46,17.09 2.85,22.61 l 0.95,12.41 c 0.69,9.17 2.39,10.42 4.62,10.42 0.5,0 2.05,-0.11 3.15,-1.05 -1.44,-0.2 -1.85,-1.34 -1.85,-2.05 0,-1.43 1.1,-2.09 2.05,-2.09 1,0 2.09,0.66 2.09,2.14 0,2.39 -2.5,4.14 -5.48,4.14 -4.74,0 -6.67,-4.83 -7.52,-8.62 -0.61,-2.74 -2.39,-16.78 -2.84,-22.82 z"
           inkscape:connector-curvature="0"
           style="fill:#ffffff;fill-opacity:1;stroke-width:0" /><path
           id="path842"
           d="m 747.23,423.68 0.03,0.1 0.02,0.11 0.03,0.11 0.03,0.11 0.03,0.12 0.02,0.12 0.06,0.24 0.07,0.25 0.06,0.25 0.06,0.24 0.06,0.25 0.02,0.11 0.03,0.12 0.03,0.11 0.02,0.11 0.03,0.1 0.02,0.1 0.02,0.1 0.02,0.08 0.02,0.09 0.01,0.07 0.02,0.07 0.01,0.07 0.01,0.05 v 0.05 l 0.01,0.03 v 0.02 0.01 c 0,0.84 -0.59,1.34 -1.44,1.34 -0.15,0 -1.55,-0.04 -2,-1.78 l -7.17,-28.86 c -0.14,-0.59 -0.14,-0.68 -0.14,-0.79 0,-0.74 0.55,-1.35 1.39,-1.35 1.05,0 1.64,0.91 1.75,1.05 0.19,0.45 0.84,3.05 2.73,10.72 1.6,-1.34 3.83,-1.55 4.83,-1.55 3.49,0 5.44,2.24 6.63,3.64 0.45,-2.25 2.29,-3.64 4.48,-3.64 1.75,0 2.89,1.14 3.69,2.74 0.84,1.79 1.5,4.84 1.5,4.93 0,0.5 -0.45,0.5 -0.6,0.5 -0.5,0 -0.54,-0.2 -0.7,-0.9 -0.84,-3.24 -1.75,-6.17 -3.78,-6.17 -1.34,0 -1.5,1.29 -1.5,2.29 0,1.1 0.59,3.44 1,5.17 l 1.39,5.4 c 0.16,0.75 0.64,2.64 0.85,3.39 0.24,1.14 0.74,3.03 0.74,3.32 0,0.91 -0.7,1.35 -1.43,1.35 -0.25,0 -1.55,-0.05 -1.96,-1.74 l -2.34,-9.32 c -0.59,-2.49 -1.14,-4.58 -1.3,-5.08 -0.04,-0.25 -2.43,-4.78 -6.47,-4.78 -2.48,0 -3.68,1.64 -3.68,4.32 0,1.46 0.34,2.85 0.7,4.25 z"
           inkscape:connector-curvature="0"
           style="fill:#ffffff;fill-opacity:1;stroke-width:0" /><path
           id="path844"
           d="m 791.42,440.23 v 0 0.01 0 0.01 0.02 0.01 l -0.01,0.02 v 0.02 0.02 l -0.01,0.02 v 0.02 l -0.01,0.02 -0.01,0.02 v 0.03 l -0.02,0.02 -0.01,0.03 -0.01,0.02 -0.02,0.03 -0.02,0.02 -0.02,0.02 -0.02,0.03 -0.01,0.01 -0.01,0.01 -0.02,0.01 -0.01,0.01 -0.01,0.01 -0.02,0.01 -0.02,0.01 -0.01,0.01 -0.02,0.01 -0.02,0.01 h -0.02 l -0.02,0.01 -0.02,0.01 h -0.02 l -0.02,0.01 -0.02,0.01 h -0.02 -0.03 l -0.02,0.01 h -0.03 -0.03 l -0.02,0.01 h -0.03 -0.03 c -0.75,0 -5.49,-0.46 -6.33,-0.55 -0.41,-0.05 -0.7,-0.3 -0.7,-0.95 0,-0.6 0.45,-0.6 1.2,-0.6 2.39,0 2.48,-0.34 2.48,-0.84 l -0.14,-1 -3,-11.81 c -0.89,1.84 -2.34,3.18 -4.57,3.18 l 0.04,-1.09 c 3.24,0 3.94,-4.08 3.94,-4.37 0,-0.32 -0.1,-0.61 -0.14,-0.86 l -2.5,-9.77 c -0.25,-0.89 -0.25,-0.98 -1,-1.84 -2.19,-2.74 -4.24,-3.53 -5.63,-3.53 -2.48,0 -3.18,2.73 -3.18,4.68 0,2.49 1.59,8.61 2.73,10.91 1.55,2.94 3.8,4.78 5.78,4.78 l -0.04,1.09 c -5.83,0 -12,-7.31 -12,-14.59 0,-4.69 2.73,-7.97 6.62,-7.97 0.98,0 3.48,0.21 6.47,3.74 0.41,-2.1 2.14,-3.74 4.53,-3.74 1.75,0 2.89,1.14 3.69,2.74 0.84,1.79 1.5,4.84 1.5,4.93 0,0.5 -0.46,0.5 -0.6,0.5 -0.5,0 -0.54,-0.2 -0.7,-0.9 -0.84,-3.24 -1.75,-6.17 -3.78,-6.17 -1.35,0 -1.5,1.29 -1.5,2.29 0,1.19 0.09,1.55 0.3,2.39 z"
           inkscape:connector-curvature="0"
           style="fill:#ffffff;fill-opacity:1;stroke-width:0" /><path
           id="path846"
           d="m 804.49,440.23 v 0 0.01 0 0.01 0.02 0.01 0.02 0.02 l -0.01,0.02 v 0.02 l -0.01,0.02 v 0.02 l -0.01,0.02 -0.01,0.03 -0.01,0.02 -0.02,0.03 -0.01,0.02 -0.02,0.03 -0.01,0.02 -0.03,0.02 -0.02,0.03 -0.01,0.01 -0.01,0.01 -0.02,0.01 -0.01,0.01 -0.02,0.01 -0.01,0.01 -0.02,0.01 -0.01,0.01 -0.02,0.01 -0.02,0.01 h -0.02 l -0.02,0.01 -0.02,0.01 h -0.02 l -0.02,0.01 -0.03,0.01 H 804.03 804 l -0.02,0.01 h -0.03 -0.03 l -0.02,0.01 h -0.03 -0.03 c -1.14,0 -4.79,-0.41 -6.08,-0.5 -0.39,-0.05 -0.94,-0.1 -0.94,-1.05 0,-0.55 0.48,-0.55 1.23,-0.55 2.4,0 2.46,-0.45 2.46,-0.84 l -0.16,-1 -6.28,-24.91 c -0.14,-0.54 -0.25,-0.9 -0.25,-1.7 0,-2.83 2.2,-4.58 4.53,-4.58 1.66,0 2.89,1 3.75,2.78 0.89,1.91 1.49,4.8 1.49,4.89 0,0.5 -0.44,0.5 -0.6,0.5 -0.5,0 -0.54,-0.2 -0.7,-0.9 -0.84,-3.24 -1.78,-6.17 -3.78,-6.17 -1.5,0 -1.5,1.59 -1.5,2.29 0,1.19 0.06,1.44 0.29,2.39 z"
           inkscape:connector-curvature="0"
           style="fill:#ffffff;fill-opacity:1;stroke-width:0" /><path
           id="path848"
           d="m 839.01,417.65 h 13.9 c 0.69,0 1.64,0 1.64,1 0,1 -0.95,1 -1.64,1 h -13.9 v 13.96 c 0,0.68 0,1.64 -1,1.64 -0.99,0 -0.99,-0.96 -0.99,-1.64 v -13.96 h -13.95 c -0.7,0 -1.64,0 -1.64,-1 0,-1 0.94,-1 1.64,-1 h 13.95 v -13.94 c 0,-0.7 0,-1.65 0.99,-1.65 1,0 1,0.95 1,1.65 z"
           inkscape:connector-curvature="0"
           style="fill:#ffffff;fill-opacity:1;stroke-width:0" /><path
           id="path850"
           d="m 906.29,440.82 v 0.02 0.02 0.01 l -0.01,0.02 v 0.02 0.02 l -0.01,0.02 v 0.02 l -0.01,0.02 -0.01,0.02 -0.01,0.02 v 0.02 l -0.02,0.02 -0.01,0.02 -0.01,0.02 -0.01,0.02 -0.02,0.02 -0.02,0.02 -0.02,0.02 -0.02,0.02 -0.02,0.01 -0.02,0.02 -0.03,0.01 -0.02,0.02 -0.03,0.01 -0.01,0.01 h -0.02 l -0.01,0.01 h -0.02 l -0.02,0.01 h -0.01 -0.02 l -0.02,0.01 h -0.02 -0.02 -0.02 -0.02 -0.02 -0.02 c -0.14,0 -0.2,-0.04 -0.75,-0.59 l -3.48,-3.84 c -0.44,0.7 -2.74,4.43 -8.27,4.43 -11.11,0 -22.33,-11.01 -22.33,-22.56 0,-8.23 5.89,-13.65 13.52,-13.65 4.33,0 8.11,1.98 10.75,4.28 4.64,4.09 5.48,8.62 5.48,8.76 0,0.5 -0.5,0.5 -0.59,0.5 -0.3,0 -0.55,-0.09 -0.66,-0.5 -0.43,-1.44 -1.59,-4.98 -5.03,-7.87 -3.43,-2.78 -6.58,-3.63 -9.15,-3.63 -4.49,0 -9.77,2.6 -9.77,10.36 0,2.85 1.05,10.91 6.02,16.74 3.04,3.54 7.73,6.03 12.15,6.03 5.1,0 8.03,-3.83 8.03,-9.61 0,-2 -0.15,-2.05 -0.15,-2.55 0,-0.5 0.54,-0.5 0.75,-0.5 0.64,0 0.64,0.11 0.89,1 z"
           inkscape:connector-curvature="0"
           style="fill:#ffffff;fill-opacity:1;stroke-width:0" /><path
           id="path852"
           d="m 922.06,409.87 v 0.71 l -0.02,0.68 -0.03,0.66 -0.04,0.64 -0.06,0.62 -0.08,0.6 -0.09,0.57 -0.11,0.56 -0.12,0.55 -0.15,0.53 -0.17,0.51 -0.19,0.5 -0.21,0.49 -0.24,0.48 -0.26,0.47 -0.14,0.23 -0.15,0.23 c -1.08,1.61 -3.23,3 -6.03,3 v -0.98 c 1.89,0 3.7,-1.14 4.33,-3.17 0.56,-1.88 0.59,-4.39 0.59,-7.43 0,-2.57 0,-5.15 -0.45,-7.34 -0.71,-3.17 -3.06,-3.94 -4.47,-3.94 v 0 c -1.59,0 -3.72,0.94 -4.42,3.8 -0.49,2.05 -0.49,4.91 -0.49,7.48 0,2.55 0,5.21 0.52,7.11 0.73,2.75 2.97,3.49 4.39,3.49 v 0.98 c -8.08,0 -8.08,-9.51 -8.08,-12.03 0,-2.5 0,-11.81 8.08,-11.81 8.09,0 8.09,9.31 8.09,11.81 z"
           inkscape:connector-curvature="0"
           style="fill:#ffffff;fill-opacity:1;stroke-width:0" /><path
           id="path854"
           d="m 939.55,427.96 -0.58,-0.15 -0.57,-0.18 -0.56,-0.21 -0.55,-0.24 -0.54,-0.26 -0.53,-0.28 -0.52,-0.31 -0.5,-0.33 -0.5,-0.35 -0.47,-0.38 -0.47,-0.39 -0.45,-0.41 -0.43,-0.42 -0.41,-0.45 -0.4,-0.46 -0.38,-0.47 -0.37,-0.49 -0.34,-0.5 -0.33,-0.51 -0.3,-0.52 -0.29,-0.53 -0.26,-0.53 -0.24,-0.55 -0.22,-0.55 -0.19,-0.56 -0.17,-0.56 -0.15,-0.57 -0.12,-0.56 -0.09,-0.57 -0.07,-0.57 -0.04,-0.57 -0.02,-0.57 c 0,-4.78 3.19,-8.35 7.88,-8.35 v 1.09 c -2.75,0 -4.78,2.09 -4.78,5.87 0,3.14 1.84,12.5 8.56,14.3 v 0 c 1.25,-2.28 2.73,-4.98 2.73,-8.56 0,-3.3 -1.89,-11.61 -6.51,-11.61 v -1.09 c 5.83,0 9.95,7.81 9.95,14.68 0,4.55 -1.98,7.03 -3.69,9.27 -1.78,2.25 -4.72,5.98 -4.72,8.17 0,1.11 0.99,2.3 2.74,2.3 1.5,0 2.48,-0.64 3.53,-1.35 1,-0.59 2,-1.25 2.75,-1.25 1.23,0 1.98,1.21 1.98,2 0,1.1 -0.79,1.24 -2.59,1.64 -2.58,0.55 -3.28,0.55 -4.08,0.55 -3.89,0 -5.69,-2.14 -5.69,-5.12 0,-2.71 1.46,-5.49 3,-8.54 z"
           inkscape:connector-curvature="0"
           style="fill:#ffffff;fill-opacity:1;stroke-width:0" /><path
           id="path856"
           d="m 984.06,419.73 0.03,0.12 0.03,0.11 0.02,0.11 0.03,0.1 0.03,0.1 0.03,0.09 0.03,0.08 0.03,0.08 0.03,0.08 0.04,0.07 0.04,0.07 0.05,0.06 0.05,0.06 0.06,0.05 0.06,0.05 0.07,0.05 0.07,0.04 0.08,0.04 0.09,0.03 0.1,0.03 0.1,0.03 0.06,0.01 0.06,0.01 0.06,0.02 0.06,0.01 0.07,0.01 h 0.07 l 0.07,0.01 0.07,0.01 0.08,0.01 h 0.08 l 0.08,0.01 0.09,0.01 h 0.09 0.09 l 0.09,0.01 h 0.1 0.1 l 0.11,0.01 h 0.11 0.11 0.11 0.12 c 0.74,0 1.19,0 1.19,0.73 0,0.52 -0.42,0.52 -1.05,0.52 h -4.73 c -1.02,0 -1.05,-0.03 -1.5,-0.69 L 967.47,402 l -3.44,19.62 c -0.19,0.91 -0.19,0.94 -1.22,0.94 h -4.99 c -0.7,0 -1.15,0 -1.15,-0.77 0,-0.48 0.42,-0.48 1.18,-0.48 0.57,0 0.69,0 1.33,-0.08 0.69,-0.06 0.77,-0.14 0.77,-0.48 0,-0.04 0,-0.24 -0.14,-0.77 l -4.39,-17.48 c -0.32,-1.19 -0.85,-2.38 -3.63,-2.49 -0.28,0 -0.73,-0.03 -0.73,-0.76 0,-0.04 0.03,-0.49 0.51,-0.49 1.05,0 2.52,0.14 3.63,0.14 0.84,0 2.86,-0.14 3.7,-0.14 0.17,0 0.69,0 0.69,0.77 0,0.45 -0.45,0.48 -0.77,0.48 -2.22,0.08 -2.22,0.99 -2.22,1.47 0,0.14 0,0.31 0.15,0.88 l 4.62,18.53 h 0.03 l 3.74,-21.19 c 0.11,-0.63 0.17,-0.94 0.7,-0.94 0.48,0 0.76,0.39 1,0.77 l 14.64,21.7 0.03,-0.03 -4.91,-19.72 c -0.28,-1.19 -0.35,-1.47 -3.07,-1.47 -0.63,0 -1.05,0 -1.05,-0.76 0,-0.04 0,-0.49 0.56,-0.49 0.68,0 1.47,0.11 2.16,0.11 0.7,0 1.5,0.03 2.2,0.03 0.97,0 3.45,-0.14 4.42,-0.14 0.22,0 0.74,0 0.74,0.77 0,0.48 -0.42,0.48 -1.11,0.48 -0.05,0 -0.7,0 -1.33,0.08 -0.8,0.06 -0.8,0.17 -0.8,0.52 0,0.21 0.1,0.56 0.15,0.76 z"
           inkscape:connector-curvature="0"
           style="fill:#ffffff;fill-opacity:1;stroke-width:0" /></g>    </g>
    <g
       id="g964"
       style="fill:#ffffff;fill-opacity:1"
       transform="translate(-61.498851,45.43582)">
      <g
         word-spacing="normal"
         letter-spacing="normal"
         font-size-adjust="none"
         font-stretch="normal"
         font-weight="normal"
         font-variant="normal"
         font-style="normal"
         stroke-miterlimit="10.433"
         xml:space="preserve"
         transform="matrix(0.3,0,0,-0.3,-52.5,222.75)"
         id="g962"
         style="font-style:normal;font-variant:normal;font-weight:normal;font-stretch:normal;letter-spacing:normal;word-spacing:normal;text-anchor:start;fill:#ffffff;fill-opacity:1;fill-rule:evenodd;stroke:#000000;stroke-linecap:butt;stroke-linejoin:miter;stroke-miterlimit:10.43299961;stroke-dasharray:none;stroke-dashoffset:0;stroke-opacity:1"><path
           id="path910"
           d="m 493.38,418.39 v 0.01 0.02 0.02 l -0.01,0.01 v 0.02 0.02 l -0.01,0.02 v 0.02 l -0.01,0.02 -0.01,0.02 -0.01,0.02 v 0.02 l -0.02,0.02 -0.01,0.03 -0.01,0.02 -0.01,0.02 -0.02,0.02 -0.02,0.01 -0.02,0.02 -0.02,0.02 -0.02,0.02 -0.02,0.01 -0.03,0.02 -0.02,0.01 -0.03,0.01 -0.01,0.01 h -0.02 l -0.01,0.01 h -0.02 l -0.02,0.01 h -0.01 l -0.02,0.01 h -0.02 -0.02 -0.02 -0.02 l -0.02,0.01 h -0.02 -0.02 c -0.14,0 -0.2,-0.05 -0.75,-0.6 l -3.48,-3.84 c -0.44,0.7 -2.74,4.44 -8.27,4.44 -11.11,0 -22.33,-11.02 -22.33,-22.57 0,-8.23 5.89,-13.65 13.52,-13.65 4.33,0 8.11,1.98 10.75,4.28 4.64,4.09 5.48,8.62 5.48,8.76 0,0.5 -0.5,0.5 -0.59,0.5 -0.3,0 -0.55,-0.09 -0.66,-0.5 -0.43,-1.43 -1.59,-4.98 -5.03,-7.87 -3.43,-2.78 -6.58,-3.63 -9.15,-3.63 -4.49,0 -9.77,2.6 -9.77,10.36 0,2.85 1.05,10.91 6.02,16.74 3.04,3.55 7.73,6.03 12.15,6.03 5.1,0 8.03,-3.83 8.03,-9.61 0,-2 -0.15,-2.05 -0.15,-2.55 0,-0.5 0.54,-0.5 0.75,-0.5 0.64,0 0.64,0.11 0.89,1 z"
           style="fill:#ffffff;fill-opacity:1;stroke-width:0"
           inkscape:connector-curvature="0" /><path
           id="path912"
           d="m 509.14,387.43 v 0.71 l -0.02,0.68 -0.03,0.66 -0.04,0.64 -0.06,0.62 -0.07,0.59 -0.09,0.58 -0.11,0.56 -0.13,0.55 -0.15,0.53 -0.17,0.51 -0.19,0.5 -0.21,0.49 -0.24,0.48 -0.26,0.47 -0.14,0.23 -0.15,0.23 c -1.08,1.61 -3.23,3 -6.03,3 v -0.98 c 1.89,0 3.7,-1.14 4.33,-3.18 0.56,-1.87 0.59,-4.39 0.59,-7.42 0,-2.58 0,-5.15 -0.45,-7.34 -0.7,-3.17 -3.06,-3.94 -4.47,-3.94 v 0 c -1.59,0 -3.72,0.94 -4.42,3.8 -0.49,2.05 -0.49,4.9 -0.49,7.48 0,2.55 0,5.21 0.52,7.11 0.73,2.75 2.97,3.49 4.39,3.49 v 0.98 c -8.08,0 -8.08,-9.51 -8.08,-12.03 0,-2.5 0,-11.81 8.08,-11.81 8.09,0 8.09,9.31 8.09,11.81 z"
           style="fill:#ffffff;fill-opacity:1;stroke-width:0"
           inkscape:connector-curvature="0" /><path
           id="path914"
           d="m 561.63,400.06 h 0.14 0.15 l 0.14,0.01 h 0.07 0.08 l 0.07,0.01 0.07,0.01 0.07,0.01 0.07,0.01 0.07,0.01 0.06,0.02 0.07,0.02 0.06,0.02 0.06,0.03 0.06,0.02 0.06,0.03 0.05,0.04 0.05,0.04 0.05,0.04 0.04,0.04 0.04,0.05 0.02,0.03 0.02,0.03 0.01,0.03 0.02,0.03 0.01,0.03 0.01,0.03 0.02,0.03 0.01,0.04 0.01,0.03 0.01,0.04 v 0.04 l 0.01,0.04 v 0.04 l 0.01,0.04 v 0.05 0.04 c 0,1 -0.95,1 -1.64,1 h -29.84 c -0.71,0 -1.64,0 -1.64,-1 0,-0.98 0.93,-0.98 1.68,-0.98 z"
           style="fill:#ffffff;fill-opacity:1;stroke-width:0"
           inkscape:connector-curvature="0" /><path
           id="path916"
           d="m 561.68,390.39 h 0.07 0.06 0.14 0.14 l 0.07,0.01 h 0.07 l 0.07,0.01 0.06,0.01 0.07,0.01 0.07,0.01 0.07,0.01 0.06,0.02 0.07,0.02 0.06,0.02 0.06,0.03 0.05,0.02 0.06,0.04 0.05,0.03 0.05,0.04 0.05,0.04 0.04,0.05 0.02,0.02 0.02,0.03 0.02,0.03 0.02,0.02 0.01,0.03 0.02,0.03 0.01,0.03 0.01,0.04 0.02,0.03 0.01,0.04 0.01,0.03 0.01,0.04 v 0.04 l 0.01,0.04 v 0.04 l 0.01,0.05 v 0.04 0.05 c 0,1 -0.95,1 -1.69,1 h -29.75 c -0.75,0 -1.68,0 -1.68,-1 0,-1 0.93,-1 1.64,-1 z"
           style="fill:#ffffff;fill-opacity:1;stroke-width:0"
           inkscape:connector-curvature="0" /><path
           id="path918"
           d="m 588.77,418.34 -7.17,-0.55 v -1.54 c 3.48,0 3.89,-0.35 3.89,-2.8 v -25.91 c 0,-2.23 -0.55,-2.23 -3.89,-2.23 v -1.55 c 1.64,0.05 4.28,0.16 5.53,0.16 1.25,0 3.69,-0.11 5.53,-0.16 v 1.55 c -3.34,0 -3.89,0 -3.89,2.23 z"
           style="fill:#ffffff;fill-opacity:1;stroke-width:0"
           inkscape:connector-curvature="0" /><path
           id="path920"
           d="m 617.22,394.42 -0.01,0.59 -0.04,0.59 -0.08,0.58 -0.09,0.57 -0.13,0.56 -0.15,0.55 -0.17,0.54 -0.2,0.53 -0.22,0.51 -0.25,0.51 -0.26,0.48 -0.29,0.48 -0.31,0.46 -0.33,0.44 -0.35,0.42 -0.36,0.41 -0.39,0.38 -0.4,0.37 -0.41,0.35 -0.44,0.33 -0.44,0.3 -0.47,0.28 -0.47,0.26 -0.49,0.24 -0.5,0.21 -0.51,0.18 -0.52,0.16 -0.53,0.13 -0.54,0.11 -0.55,0.07 -0.55,0.05 -0.56,0.01 -0.05,-1.09 c 2.19,0 4.33,-1.09 5.62,-3.23 1.3,-2.14 1.3,-5.04 1.3,-6.93 0,-1.79 0,-4.48 -1.09,-6.67 -1.09,-2.25 -3.28,-3.69 -5.78,-3.69 v 0 c -2.14,0 -4.33,1.05 -5.68,3.33 -1.25,2.21 -1.25,5.24 -1.25,7.03 0,1.94 0,4.63 1.19,6.83 1.36,2.28 3.69,3.33 5.69,3.33 l 0.05,1.09 c -6.22,0 -11.06,-5.42 -11.06,-11.65 0,-6.42 5.18,-11.21 11.01,-11.21 6.03,0 11.06,4.88 11.06,11.21 z"
           style="fill:#ffffff;fill-opacity:1;stroke-width:0"
           inkscape:connector-curvature="0" /><path
           id="path922"
           d="m 623.99,390.39 v 0.02 0.03 0.03 0.03 l 0.01,0.05 v 0.04 0.05 l 0.01,0.06 v 0.06 l 0.01,0.06 0.01,0.06 0.01,0.07 0.01,0.08 0.01,0.07 0.02,0.08 0.02,0.08 0.02,0.08 0.02,0.09 0.03,0.08 0.03,0.09 0.03,0.09 0.04,0.09 0.04,0.1 0.04,0.09 0.04,0.09 0.05,0.1 0.06,0.1 0.06,0.09 0.06,0.1 0.07,0.09 0.07,0.1 0.08,0.09 c 1.95,-1.39 3.98,-1.55 4.93,-1.55 v 1.14 c -4.34,0 -4.34,4.99 -4.34,6.14 0,1.35 0.06,2.94 0.8,4.18 0.4,0.61 1.54,2 3.54,2 4.33,0 4.33,-4.99 4.33,-6.13 0,-1.34 -0.05,-2.94 -0.8,-4.19 -0.39,-0.59 -1.54,-2 -3.53,-2 v 0 -1.14 c 4.63,0 8.07,3.44 8.07,7.28 0,1.85 -0.8,3.69 -2.04,4.83 1.79,1.69 3.58,1.94 4.49,1.94 0.09,0 0.34,0 0.5,-0.05 -0.56,-0.2 -0.8,-0.75 -0.8,-1.34 0,-0.84 0.64,-1.44 1.44,-1.44 0.5,0 1.44,0.35 1.44,1.49 0,0.84 -0.6,2.43 -2.53,2.43 -1,0 -3.19,-0.29 -5.29,-2.32 -2.09,1.64 -4.18,1.78 -5.28,1.78 -4.64,0 -8.07,-3.44 -8.07,-7.27 0,-2.19 1.09,-4.09 2.34,-5.14 -0.64,-0.73 -1.55,-2.39 -1.55,-4.12 0,-1.55 0.66,-3.44 2.21,-4.44 -3,-0.85 -4.6,-2.99 -4.6,-4.99 0,-3.57 4.94,-6.32 11.02,-6.32 l 0.04,1.14 c -5.03,0 -8.46,2.54 -8.46,5.18 0,2.3 1.89,4.14 4.09,4.29 h 2.94 c 4.28,0 9.86,0 9.86,-4.29 0,-2.68 -3.54,-5.18 -8.43,-5.18 v 0 l -0.04,-1.14 c 5.87,0 11.06,2.54 11.06,6.42 0,1.75 -0.7,4.29 -3.23,5.69 -2.65,1.39 -5.54,1.39 -8.58,1.39 -1.25,0 -3.39,0 -3.74,0.04 -1.59,0.21 -2.64,1.75 -2.64,3.35 z"
           style="fill:#ffffff;fill-opacity:1;stroke-width:0"
           inkscape:connector-curvature="0" /><path
           id="path924"
           d="m 687.43,336.93 v 0.02 0.02 0.01 0.02 0.02 l -0.01,0.01 v 0.02 0.01 l -0.01,0.02 v 0.01 l -0.01,0.02 v 0.01 l -0.01,0.01 v 0.02 l -0.01,0.01 -0.01,0.01 -0.01,0.03 -0.02,0.02 -0.01,0.03 -0.02,0.02 -0.02,0.03 -0.02,0.03 -0.02,0.02 -0.01,0.02 -0.01,0.01 c -1.84,1.85 -5.17,5.17 -8.51,10.57 -8.02,12.84 -11.66,29.04 -11.66,48.21 0,13.41 1.79,30.69 10.01,45.55 3.94,7.06 8.02,11.16 10.21,13.34 0.15,0.16 0.15,0.25 0.15,0.41 0,0.5 -0.34,0.5 -1.04,0.5 -0.71,0 -0.8,0 -1.55,-0.75 -16.69,-15.2 -21.92,-38.01 -21.92,-59 0,-19.58 4.48,-39.3 17.14,-54.2 1,-1.14 2.89,-3.19 4.94,-4.99 0.59,-0.59 0.68,-0.59 1.39,-0.59 0.7,0 1.04,0 1.04,0.5 z"
           style="fill:#ffffff;fill-opacity:1;stroke-width:0"
           inkscape:connector-curvature="0" /><path
           id="path926"
           d="m 841.12,425.83 h 0.12 0.12 l 0.11,0.01 h 0.12 l 0.11,0.01 0.11,0.01 0.11,0.02 0.06,0.01 0.06,0.01 0.06,0.02 0.06,0.01 0.06,0.02 0.06,0.02 0.06,0.02 0.07,0.02 0.07,0.03 0.06,0.03 0.07,0.03 0.08,0.03 0.07,0.04 0.08,0.04 0.08,0.04 0.08,0.05 0.08,0.04 0.09,0.05 c 0.22,0.1 1.22,0.77 1.22,1.29 0,0.28 -0.24,0.28 -0.86,0.28 h -10.5 c -4.49,0 -6.52,-0.77 -7.31,-1.08 -3.55,-1.39 -4.6,-3.8 -4.6,-4.42 0,-0.28 0.23,-0.32 0.45,-0.32 0.74,0 2.47,0.91 2.75,1.77 0.4,1.16 0.49,1.44 2.72,1.72 0.14,0 1.81,0.2 3.77,0.2 h 3.94 c -2.27,-2.15 -3.32,-6.06 -4.33,-10.14 -0.83,-3.31 -1.77,-7.03 -3.52,-9.06 -0.31,-0.34 -0.45,-0.34 -1.39,-0.34 h -2.58 c -0.62,0 -1.15,0 -2.06,-0.57 -0.37,-0.2 -1.22,-0.79 -1.22,-1.28 0,-0.28 0.25,-0.28 0.88,-0.28 h 13.31 c 4.67,0 7.63,3.06 7.63,4.36 0,0.03 0,0.28 -0.43,0.28 -0.65,0 -2.39,-0.81 -2.78,-1.78 -0.17,-0.48 -0.2,-0.53 -0.66,-0.63 -0.63,-0.1 -1.26,-0.1 -1.54,-0.1 h -7.38 c 2.58,2.29 3.63,5.54 4.85,10.45 0.73,2.97 1.76,7.14 3.37,9.09 z"
           style="fill:#ffffff;fill-opacity:1;stroke-width:0"
           inkscape:connector-curvature="0" /><path
           id="path928"
           d="m 857.01,407.21 v 0.18 0.21 l -0.01,0.24 v 0.25 l -0.02,0.28 -0.01,0.3 -0.03,0.31 -0.03,0.33 -0.05,0.34 -0.05,0.35 -0.07,0.36 -0.07,0.37 -0.1,0.36 -0.11,0.37 -0.12,0.37 -0.14,0.36 -0.17,0.36 -0.18,0.35 -0.2,0.35 -0.23,0.33 -0.25,0.31 -0.27,0.3 -0.15,0.15 -0.16,0.14 -0.16,0.13 -0.16,0.13 -0.18,0.12 -0.18,0.12 -0.19,0.11 -0.2,0.1 -0.2,0.1 -0.22,0.09 -0.22,0.08 -0.23,0.08 -0.23,0.06 -0.25,0.06 -0.25,0.05 -0.27,0.04 -0.27,0.04 -0.28,0.02 -0.29,0.02 h -0.3 V 415 c 1.84,0 3.17,-0.93 3.65,-2.68 0.36,-1.27 0.36,-3.35 0.36,-4.82 0,-1.68 0,-3.7 -0.37,-5.2 -0.66,-2.42 -2.64,-2.78 -3.64,-2.78 v 0 c -0.92,0 -3.02,0.31 -3.64,2.83 -0.35,1.34 -0.38,3.12 -0.38,5.15 0,1.85 0,3.57 0.41,4.99 0.62,2.09 2.55,2.51 3.61,2.51 v 0.83 c -6.5,0 -6.5,-6.83 -6.5,-8.62 0,-1.82 0,-8.52 6.5,-8.52 6.5,0 6.5,6.7 6.5,8.52 z"
           style="fill:#ffffff;fill-opacity:1;stroke-width:0"
           inkscape:connector-curvature="0" /><polyline
           id="polyline930"
           points="695,395 985.64,395 985.64,397.04 695,397.04 "
           style="fill:#ffffff;fill-opacity:1;fill-rule:nonzero;stroke-width:0" /><path
           id="path932"
           d="m 716.8,378.43 h 0.12 l 0.12,0.01 h 0.11 0.12 l 0.11,0.01 0.11,0.01 0.11,0.02 0.06,0.01 0.06,0.01 0.06,0.02 0.06,0.01 0.06,0.02 0.06,0.02 0.06,0.02 0.07,0.03 0.07,0.02 0.06,0.03 0.07,0.03 0.08,0.04 0.07,0.03 0.08,0.04 0.08,0.04 0.08,0.05 0.08,0.04 0.09,0.06 c 0.22,0.09 1.22,0.76 1.22,1.28 0,0.28 -0.24,0.28 -0.86,0.28 h -10.5 c -4.49,0 -6.52,-0.77 -7.31,-1.08 -3.55,-1.39 -4.6,-3.8 -4.6,-4.42 0,-0.28 0.23,-0.31 0.45,-0.31 0.74,0 2.47,0.9 2.75,1.76 0.4,1.16 0.49,1.44 2.72,1.72 0.14,0 1.81,0.2 3.77,0.2 h 3.94 c -2.27,-2.15 -3.32,-6.06 -4.33,-10.14 -0.83,-3.31 -1.77,-7.03 -3.52,-9.06 -0.31,-0.34 -0.45,-0.34 -1.39,-0.34 h -2.58 c -0.62,0 -1.15,0 -2.06,-0.57 -0.37,-0.2 -1.22,-0.79 -1.22,-1.28 0,-0.28 0.25,-0.28 0.88,-0.28 h 13.31 c 4.67,0 7.63,3.06 7.63,4.36 0,0.03 0,0.28 -0.43,0.28 -0.65,0 -2.39,-0.81 -2.78,-1.78 -0.17,-0.48 -0.2,-0.53 -0.66,-0.62 -0.63,-0.11 -1.26,-0.11 -1.54,-0.11 h -7.38 c 2.58,2.29 3.63,5.54 4.85,10.45 0.73,2.97 1.76,7.14 3.37,9.09 z"
           style="fill:#ffffff;fill-opacity:1;stroke-width:0"
           inkscape:connector-curvature="0" /><path
           id="path934"
           d="m 732.69,359.69 v 0.18 0.21 l -0.01,0.24 v 0.25 l -0.02,0.28 -0.01,0.3 -0.03,0.31 -0.03,0.33 -0.05,0.34 -0.05,0.35 -0.07,0.36 -0.07,0.37 -0.1,0.36 -0.11,0.37 -0.12,0.37 -0.14,0.36 -0.17,0.36 -0.18,0.35 -0.2,0.35 -0.23,0.33 -0.25,0.31 -0.27,0.3 -0.15,0.15 -0.16,0.14 -0.16,0.13 -0.16,0.13 -0.18,0.12 -0.18,0.12 -0.19,0.11 -0.2,0.1 -0.2,0.1 -0.22,0.09 -0.22,0.08 -0.23,0.08 -0.23,0.06 -0.25,0.06 -0.25,0.05 -0.27,0.05 -0.27,0.03 -0.28,0.02 -0.29,0.02 h -0.3 c -6.5,0 -6.5,-6.83 -6.5,-8.62 0,-1.81 0,-8.52 6.5,-8.52 V 352 c -0.92,0 -3.02,0.31 -3.64,2.83 -0.35,1.34 -0.38,3.12 -0.38,5.15 0,1.85 0,3.57 0.41,4.99 0.62,2.09 2.54,2.51 3.61,2.51 1.84,0 3.17,-0.93 3.65,-2.68 0.36,-1.27 0.36,-3.35 0.36,-4.82 0,-1.68 0,-3.7 -0.37,-5.2 -0.66,-2.42 -2.64,-2.78 -3.64,-2.78 v 0 -0.83 c 6.5,0 6.5,6.71 6.5,8.52 z"
           style="fill:#ffffff;fill-opacity:1;stroke-width:0"
           inkscape:connector-curvature="0" /><path
           id="path936"
           d="m 763.08,364.64 h 0.06 0.05 0.11 0.12 l 0.06,0.01 h 0.06 l 0.06,0.01 h 0.05 l 0.06,0.01 0.06,0.01 0.06,0.01 0.05,0.02 0.06,0.01 0.05,0.02 0.05,0.02 0.05,0.03 0.05,0.02 0.04,0.03 0.04,0.04 0.04,0.03 0.04,0.04 0.02,0.02 0.01,0.02 0.02,0.03 0.02,0.02 0.01,0.02 0.01,0.03 0.02,0.03 0.01,0.02 0.01,0.03 0.01,0.03 v 0.03 l 0.01,0.03 0.01,0.04 v 0.03 l 0.01,0.04 v 0.03 0.04 0.04 c 0,0.86 -0.79,0.86 -1.39,0.86 h -20.76 c -0.57,0 -1.39,0 -1.39,-0.83 0,-0.87 0.79,-0.87 1.39,-0.87 z"
           style="fill:#ffffff;fill-opacity:1;stroke-width:0"
           inkscape:connector-curvature="0" /><path
           id="path938"
           d="m 790.44,383.06 -0.02,-0.01 -0.03,-0.01 -0.03,-0.01 -0.04,-0.01 -0.03,-0.01 -0.05,-0.02 -0.04,-0.02 -0.05,-0.02 -0.05,-0.02 -0.05,-0.03 -0.05,-0.03 -0.06,-0.03 -0.05,-0.03 -0.05,-0.04 -0.06,-0.04 -0.05,-0.04 -0.06,-0.05 -0.05,-0.05 -0.05,-0.05 -0.05,-0.06 -0.05,-0.06 -0.04,-0.06 -0.05,-0.07 -0.04,-0.07 -0.03,-0.08 -0.04,-0.08 -0.01,-0.04 -0.01,-0.04 -0.02,-0.04 -0.01,-0.05 -0.01,-0.04 -0.01,-0.05 -0.01,-0.05 v -0.05 l -0.01,-0.05 v -0.05 -0.05 -0.05 c 0,-1.16 0.9,-1.61 1.57,-1.61 0.72,0 1.6,0.45 1.6,1.64 0,1.89 -1.95,3.31 -4.28,3.31 -2.75,0 -5.13,-2.06 -6.24,-6.45 -0.39,-1.43 -1.78,-11.68 -2.43,-19.58 -0.08,-0.88 -0.25,-3.06 -0.46,-4.95 -0.45,-3.9 -1.19,-6.75 -3.76,-6.75 -0.68,0 -1.61,0.2 -2.35,0.79 0.22,0.08 1.27,0.42 1.27,1.58 0,1.14 -0.91,1.59 -1.58,1.59 -0.74,0 -1.59,-0.45 -1.59,-1.64 0,-1.87 1.95,-3.31 4.28,-3.31 2.75,0 5.12,2.06 6.23,6.45 0.39,1.43 1.78,11.68 2.44,19.58 0.08,0.88 0.25,3.08 0.45,4.96 0.45,3.9 1.19,6.76 3.77,6.76 0.65,0 1.61,-0.22 2.34,-0.81 z"
           style="fill:#ffffff;fill-opacity:1;stroke-width:0"
           inkscape:connector-curvature="0" /><path
           id="path940"
           d="m 802.92,385.2 -0.23,-0.12 -0.23,-0.12 -0.23,-0.13 -0.22,-0.12 -0.22,-0.13 -0.22,-0.12 -0.21,-0.14 -0.22,-0.14 -0.21,-0.14 -0.22,-0.16 -0.22,-0.16 -0.21,-0.17 -0.22,-0.18 -0.11,-0.1 -0.11,-0.1 -0.11,-0.1 -0.12,-0.1 -0.11,-0.11 -0.11,-0.11 c -1.35,-1.35 -1.96,-2.94 -1.96,-3.91 0,-2.3 2.72,-3.19 5.57,-3.19 1.59,0 3.53,0.38 5.72,1.64 1.29,0.75 3.34,2.3 3.34,2.89 0,0.22 -0.25,0.28 -0.42,0.28 -0.52,0 -1.3,-0.42 -1.64,-0.78 -0.8,-0.75 -2.43,-2.31 -5.21,-2.31 -0.79,0 -4.84,0.14 -4.84,2.64 0,1.75 1.83,4.56 6.48,4.69 0.5,0 1,0.01 1.69,0.5 0.13,0.09 0.75,0.55 0.75,0.92 0,0.3 -0.2,0.3 -0.75,0.3 -0.64,0.01 -5.17,0.09 -5.17,2.65 0,0.49 0.14,1.77 1.56,2.39 1.14,0.5 2.64,0.58 3.24,0.58 0.45,0 1.2,-0.04 1.89,-0.2 0.36,-0.08 1.08,-0.25 1.08,-1.06 0,-0.33 -0.13,-0.5 -0.21,-0.66 -0.01,-0.05 -0.12,-0.22 -0.12,-0.34 0,-0.05 0.03,-0.28 0.4,-0.28 0.77,0 2.44,0.9 2.44,2.42 0,1.31 -1.22,1.84 -3.69,1.84 -5.06,0 -9.11,-2.89 -9.11,-5.86 0,-1.56 1.29,-2.34 2.49,-2.7 z"
           style="fill:#ffffff;fill-opacity:1;stroke-width:0"
           inkscape:connector-curvature="0" /><path
           id="path942"
           d="m 829.29,376.73 v 0.18 0.21 l -0.01,0.24 v 0.26 l -0.02,0.28 -0.01,0.29 -0.03,0.32 -0.03,0.33 -0.05,0.34 -0.05,0.35 -0.07,0.35 -0.07,0.37 -0.1,0.37 -0.11,0.36 -0.12,0.37 -0.14,0.37 -0.17,0.36 -0.18,0.35 -0.2,0.34 -0.23,0.33 -0.25,0.32 -0.27,0.3 -0.15,0.14 -0.15,0.14 -0.17,0.13 -0.16,0.13 -0.18,0.12 -0.18,0.12 -0.19,0.11 -0.2,0.1 -0.2,0.1 -0.22,0.09 -0.22,0.08 -0.23,0.08 -0.23,0.07 -0.25,0.05 -0.25,0.06 -0.27,0.04 -0.27,0.03 -0.28,0.03 -0.29,0.01 -0.3,0.01 v -0.83 c 1.84,0 3.17,-0.94 3.66,-2.69 0.35,-1.27 0.35,-3.34 0.35,-4.81 0,-1.69 0,-3.71 -0.37,-5.21 -0.66,-2.42 -2.64,-2.78 -3.64,-2.78 v 0 c -0.92,0 -3.02,0.32 -3.64,2.83 -0.35,1.34 -0.38,3.13 -0.38,5.16 0,1.84 0,3.56 0.41,4.98 0.62,2.1 2.55,2.52 3.61,2.52 v 0.83 c -6.5,0 -6.5,-6.83 -6.5,-8.63 0,-1.81 0,-8.52 6.5,-8.52 6.5,0 6.5,6.71 6.5,8.52 z"
           style="fill:#ffffff;fill-opacity:1;stroke-width:0"
           inkscape:connector-curvature="0" /><path
           id="path944"
           d="m 802.65,353.93 v 0.18 0.21 l -0.01,0.24 v 0.26 l -0.02,0.28 -0.01,0.29 -0.03,0.32 -0.03,0.33 -0.05,0.34 -0.05,0.35 -0.07,0.35 -0.07,0.37 -0.1,0.37 -0.11,0.36 -0.12,0.37 -0.14,0.37 -0.17,0.36 -0.18,0.35 -0.2,0.34 -0.23,0.33 -0.25,0.32 -0.27,0.3 -0.15,0.14 -0.16,0.14 -0.16,0.13 -0.16,0.13 -0.18,0.12 -0.18,0.12 -0.19,0.11 -0.2,0.1 -0.2,0.1 -0.22,0.09 -0.22,0.08 -0.23,0.08 -0.23,0.07 -0.25,0.05 -0.25,0.06 -0.27,0.04 -0.27,0.03 -0.28,0.03 -0.29,0.01 h -0.3 v -0.82 c 1.84,0 3.17,-0.94 3.65,-2.69 0.36,-1.27 0.36,-3.34 0.36,-4.81 0,-1.69 0,-3.71 -0.37,-5.21 -0.66,-2.42 -2.64,-2.78 -3.64,-2.78 v 0 c -0.92,0 -3.02,0.31 -3.64,2.83 -0.35,1.34 -0.38,3.13 -0.38,5.16 0,1.84 0,3.56 0.41,4.98 0.62,2.09 2.55,2.52 3.61,2.52 v 0.82 c -6.5,0 -6.5,-6.82 -6.5,-8.62 0,-1.81 0,-8.52 6.5,-8.52 6.5,0 6.5,6.71 6.5,8.52 z"
           style="fill:#ffffff;fill-opacity:1;stroke-width:0"
           inkscape:connector-curvature="0" /><path
           id="path946"
           d="m 864.76,378.43 h 0.12 l 0.12,0.01 h 0.11 0.12 l 0.11,0.01 0.11,0.01 0.11,0.02 0.06,0.01 0.06,0.01 0.06,0.02 0.06,0.01 0.06,0.02 0.06,0.02 0.07,0.02 0.06,0.03 0.07,0.02 0.07,0.03 0.07,0.03 0.07,0.04 0.07,0.03 0.08,0.04 0.08,0.04 0.08,0.05 0.08,0.04 0.09,0.06 c 0.22,0.09 1.22,0.76 1.22,1.28 0,0.28 -0.24,0.28 -0.86,0.28 h -10.5 c -4.49,0 -6.52,-0.77 -7.32,-1.08 -3.54,-1.39 -4.59,-3.8 -4.59,-4.42 0,-0.28 0.24,-0.31 0.46,-0.31 0.73,0 2.46,0.9 2.75,1.76 0.38,1.16 0.48,1.44 2.71,1.72 0.14,0 1.82,0.2 3.77,0.2 h 3.94 c -2.27,-2.15 -3.32,-6.06 -4.33,-10.14 -0.83,-3.31 -1.77,-7.03 -3.52,-9.06 -0.31,-0.34 -0.45,-0.34 -1.39,-0.34 h -2.58 c -0.62,0 -1.15,0 -2.06,-0.57 -0.37,-0.2 -1.22,-0.79 -1.22,-1.28 0,-0.28 0.25,-0.28 0.88,-0.28 h 13.31 c 4.67,0 7.62,3.06 7.62,4.36 0,0.03 0,0.28 -0.42,0.28 -0.65,0 -2.39,-0.81 -2.78,-1.78 -0.17,-0.48 -0.2,-0.53 -0.65,-0.62 -0.65,-0.11 -1.27,-0.11 -1.55,-0.11 h -7.38 c 2.58,2.29 3.63,5.54 4.85,10.45 0.73,2.97 1.76,7.14 3.37,9.09 z"
           style="fill:#ffffff;fill-opacity:1;stroke-width:0"
           inkscape:connector-curvature="0" /><path
           id="path948"
           d="m 880.65,359.69 v 0.18 0.21 l -0.01,0.24 v 0.25 l -0.02,0.28 -0.01,0.3 -0.03,0.31 -0.03,0.33 -0.05,0.34 -0.05,0.35 -0.07,0.36 -0.07,0.37 -0.1,0.36 -0.11,0.37 -0.12,0.37 -0.14,0.36 -0.17,0.36 -0.18,0.35 -0.2,0.35 -0.23,0.33 -0.25,0.31 -0.27,0.3 -0.15,0.15 -0.16,0.14 -0.16,0.13 -0.16,0.13 -0.18,0.12 -0.18,0.12 -0.19,0.11 -0.2,0.1 -0.2,0.1 -0.22,0.09 -0.22,0.08 -0.23,0.08 -0.23,0.06 -0.25,0.06 -0.25,0.05 -0.27,0.05 -0.27,0.03 -0.28,0.02 -0.29,0.02 h -0.3 c -6.5,0 -6.5,-6.83 -6.5,-8.62 0,-1.81 0,-8.52 6.5,-8.52 V 352 c -0.92,0 -3.02,0.31 -3.64,2.83 -0.35,1.34 -0.38,3.12 -0.38,5.15 0,1.85 0,3.57 0.41,4.99 0.62,2.09 2.55,2.51 3.61,2.51 1.84,0 3.17,-0.93 3.65,-2.68 0.36,-1.27 0.36,-3.35 0.36,-4.82 0,-1.68 0,-3.7 -0.37,-5.2 -0.66,-2.42 -2.64,-2.78 -3.64,-2.78 v 0 -0.83 c 6.5,0 6.5,6.71 6.5,8.52 z"
           style="fill:#ffffff;fill-opacity:1;stroke-width:0"
           inkscape:connector-curvature="0" /><path
           id="path950"
           d="m 897.5,382.9 -0.61,-0.44 -0.58,-0.46 -0.55,-0.48 -0.53,-0.49 -0.49,-0.5 -0.48,-0.51 -0.44,-0.52 -0.43,-0.54 -0.4,-0.54 -0.37,-0.55 -0.35,-0.56 -0.34,-0.56 -0.3,-0.57 -0.29,-0.57 -0.27,-0.58 -0.25,-0.58 -0.22,-0.58 -0.21,-0.58 -0.19,-0.58 -0.18,-0.59 -0.15,-0.58 -0.14,-0.57 -0.12,-0.58 -0.11,-0.57 -0.1,-0.57 -0.07,-0.56 -0.07,-0.55 -0.05,-0.54 -0.04,-0.54 -0.03,-0.53 -0.01,-0.51 -0.01,-0.51 c 0,-4.92 1.47,-12.55 8.38,-17.42 0.28,0 0.68,0 0.68,0.41 0,0.21 -0.09,0.28 -0.34,0.53 -4.64,4.18 -6.34,10.11 -6.34,16.45 0,9.41 3.59,14 6.45,16.58 0.14,0.14 0.23,0.25 0.23,0.42 0,0.42 -0.4,0.42 -0.68,0.42 z"
           style="fill:#ffffff;fill-opacity:1;stroke-width:0"
           inkscape:connector-curvature="0" /><path
           id="path952"
           d="m 909.95,369.37 -0.55,-0.28 -0.53,-0.29 -0.5,-0.29 -0.48,-0.3 -0.46,-0.3 -0.43,-0.31 -0.4,-0.31 -0.39,-0.32 -0.36,-0.31 -0.34,-0.32 -0.32,-0.32 -0.29,-0.32 -0.28,-0.32 -0.26,-0.31 -0.24,-0.32 -0.22,-0.31 -0.2,-0.3 -0.19,-0.31 -0.17,-0.3 -0.15,-0.29 -0.14,-0.29 -0.13,-0.27 -0.1,-0.28 -0.1,-0.26 -0.08,-0.25 -0.07,-0.25 -0.06,-0.23 -0.04,-0.23 -0.04,-0.21 -0.02,-0.2 -0.01,-0.18 -0.01,-0.17 c 0,-2.89 3.11,-4.36 6.66,-4.36 6.34,0 11.47,5.58 11.47,6.25 0,0.26 -0.32,0.26 -0.43,0.26 -0.07,0 -1.32,0 -2.75,-1.62 -0.87,-0.95 -2.57,-2.77 -5.82,-2.77 -2.13,0 -5.9,0.82 -5.9,3.82 0,2.12 2.21,6.61 8.07,6.78 0.62,0 1.11,0.04 2.01,0.59 0.35,0.25 1.16,0.81 1.16,1.27 0,0.23 -0.36,0.26 -0.39,0.26 -5.02,0.19 -6.72,1.96 -6.72,3.91 0,1.44 0.83,2.69 1.59,3.25 1.22,0.83 3.21,1.08 4.28,1.08 0.5,0 1.44,-0.08 2.38,-0.36 0.42,-0.1 1.3,-0.38 1.3,-1.53 0,-0.38 -0.11,-0.77 -0.32,-1.08 -0.1,-0.14 -0.21,-0.31 -0.21,-0.46 0,-0.23 0.28,-0.28 0.45,-0.28 0.98,0 3.31,1.3 3.31,3.39 0,1.94 -2.12,2.44 -4.42,2.44 -5.72,0 -11.61,-3.9 -11.61,-8.01 0,-2.21 1.81,-3.35 3.45,-3.88 z"
           style="fill:#ffffff;fill-opacity:1;stroke-width:0"
           inkscape:connector-curvature="0" /><path
           id="path954"
           d="m 928.34,382.9 h -0.03 -0.02 -0.03 -0.02 -0.03 -0.03 -0.03 -0.02 l -0.03,-0.01 h -0.03 l -0.03,-0.01 h -0.03 l -0.02,-0.01 h -0.03 l -0.03,-0.01 -0.02,-0.01 -0.03,-0.01 -0.02,-0.01 -0.03,-0.02 -0.02,-0.01 -0.02,-0.02 -0.02,-0.02 -0.02,-0.01 -0.01,-0.02 -0.01,-0.01 v -0.01 l -0.01,-0.01 -0.01,-0.01 -0.01,-0.01 v -0.02 l -0.01,-0.01 v -0.02 l -0.01,-0.01 v -0.02 l -0.01,-0.01 v -0.02 -0.02 -0.01 -0.02 l -0.01,-0.02 v -0.02 c 0,-0.17 0.11,-0.28 0.32,-0.53 3,-2.75 6.34,-7.45 6.34,-16.44 0,-7.28 -2.27,-12.8 -6.03,-16.2 -0.58,-0.6 -0.63,-0.63 -0.63,-0.81 0,-0.18 0.11,-0.41 0.46,-0.41 0.42,0 3.73,2.3 6.03,6.66 1.53,2.89 2.55,6.65 2.55,10.73 0,4.91 -1.47,12.53 -8.36,17.42 z"
           style="fill:#ffffff;fill-opacity:1;stroke-width:0"
           inkscape:connector-curvature="0" /><path
           id="path956"
           d="m 960.68,379.9 0.01,0.01 v 0 0 0.01 h 0.01 v 0.01 0.01 0 l 0.01,0.01 v 0.01 0.01 l 0.01,0.02 0.01,0.02 v 0.02 l 0.01,0.02 v 0.02 l 0.01,0.02 v 0.03 l 0.01,0.02 0.01,0.05 0.01,0.02 v 0.02 l 0.01,0.03 v 0.02 l 0.01,0.02 v 0.02 0.02 l 0.01,0.02 v 0.02 0.01 l 0.01,0.01 v 0.01 0 0.01 0 0.01 0 0.01 0 0 0.01 0 c 0,0.19 -0.14,0.5 -0.54,0.5 -0.71,0 -3.6,-0.28 -4.47,-0.36 -0.28,-0.03 -0.77,-0.06 -0.77,-0.8 0,-0.48 0.49,-0.48 0.91,-0.48 1.67,0 1.67,-0.25 1.67,-0.53 0,-0.24 -0.06,-0.46 -0.14,-0.77 l -1.98,-7.94 c -0.74,1.14 -1.93,2.05 -3.6,2.05 v -0.97 c 2.44,0 3.11,-2.64 3.11,-3.03 0,-0.14 -0.08,-0.39 -0.11,-0.48 l -1.64,-6.52 c -0.23,-0.98 -1,-1.67 -1.76,-2.34 -0.32,-0.27 -1.72,-1.39 -3.22,-1.39 -1.28,0 -2.53,0.9 -2.53,3.37 0,1.86 1,5.69 1.81,7.08 1.59,2.8 3.37,3.31 4.34,3.31 v 0.97 c -4.45,0 -8.98,-4.91 -8.98,-9.92 0,-3.38 2.26,-5.78 5.26,-5.78 1.88,0 3.55,1.08 4.94,2.44 0.67,-2.1 2.69,-2.44 3.6,-2.44 1.25,0 2.12,0.76 2.75,1.84 0.76,1.36 1.21,3.35 1.21,3.49 0,0.45 -0.45,0.45 -0.54,0.45 -0.5,0 -0.54,-0.14 -0.77,-1.08 -0.42,-1.67 -1.09,-3.73 -2.55,-3.73 -0.9,0 -1.15,0.76 -1.15,1.7 0,0.67 0.08,0.98 0.17,1.44 z"
           style="fill:#ffffff;fill-opacity:1;stroke-width:0"
           inkscape:connector-curvature="0" /><path
           id="path958"
           d="m 970.78,369.37 -0.55,-0.28 -0.53,-0.29 -0.5,-0.29 -0.48,-0.3 -0.45,-0.3 -0.43,-0.31 -0.41,-0.31 -0.38,-0.32 -0.37,-0.31 -0.34,-0.32 -0.31,-0.32 -0.3,-0.32 -0.28,-0.32 -0.26,-0.31 -0.24,-0.32 -0.22,-0.31 -0.2,-0.3 -0.19,-0.31 -0.17,-0.3 -0.15,-0.29 -0.14,-0.29 -0.12,-0.27 -0.11,-0.28 -0.1,-0.26 -0.08,-0.25 -0.07,-0.25 -0.06,-0.23 -0.04,-0.23 -0.03,-0.21 -0.03,-0.2 -0.01,-0.18 -0.01,-0.17 c 0,-2.89 3.11,-4.36 6.66,-4.36 6.34,0 11.47,5.58 11.47,6.25 0,0.26 -0.32,0.26 -0.42,0.26 -0.08,0 -1.33,0 -2.75,-1.62 -0.88,-0.95 -2.58,-2.77 -5.83,-2.77 -2.13,0 -5.89,0.82 -5.89,3.82 0,2.12 2.2,6.61 8.06,6.78 0.63,0 1.11,0.04 2.01,0.59 0.35,0.25 1.16,0.81 1.16,1.27 0,0.23 -0.36,0.26 -0.39,0.26 -5.02,0.19 -6.72,1.96 -6.72,3.91 0,1.44 0.83,2.69 1.6,3.25 1.22,0.83 3.2,1.08 4.28,1.08 0.5,0 1.44,-0.08 2.37,-0.36 0.42,-0.1 1.3,-0.38 1.3,-1.53 0,-0.38 -0.11,-0.77 -0.31,-1.08 -0.11,-0.14 -0.22,-0.31 -0.22,-0.46 0,-0.23 0.28,-0.28 0.45,-0.28 0.98,0 3.31,1.3 3.31,3.39 0,1.94 -2.12,2.44 -4.42,2.44 -5.72,0 -11.61,-3.9 -11.61,-8.01 0,-2.21 1.82,-3.35 3.45,-3.88 z"
           style="fill:#ffffff;fill-opacity:1;stroke-width:0"
           inkscape:connector-curvature="0" /><path
           id="path960"
           d="m 1018,396.16 v 3.68 l -0.2,3.66 -0.2,3.66 -0.4,3.64 -0.6,3.61 -0.6,3.58 -0.8,3.54 -1,3.49 -1.1,3.44 -0.6,1.7 -0.6,1.68 -0.7,1.66 -0.7,1.64 -0.8,1.63 -0.8,1.6 -0.8,1.58 -0.9,1.56 -0.9,1.54 -1,1.52 -1,1.49 -1.1,1.46 -1.1,1.44 -1.2,1.41 c -0.97,1.15 -2.87,3.18 -4.91,4.98 -0.59,0.61 -0.71,0.61 -1.39,0.61 -0.61,0 -1.05,0 -1.05,-0.5 0,-0.2 0.19,-0.41 0.3,-0.5 1.73,-1.8 5.08,-5.14 8.45,-10.51 8,-12.86 11.6,-29.05 11.6,-48.24 0,-13.39 -1.8,-30.69 -10,-45.53 -3.93,-7.08 -8.07,-11.2 -10.16,-13.3 -0.09,-0.15 -0.19,-0.29 -0.19,-0.45 0,-0.5 0.44,-0.5 1.05,-0.5 0.68,0 0.8,0 1.53,0.75 16.67,15.2 21.87,38.02 21.87,58.98 z"
           style="fill:#ffffff;fill-opacity:1;stroke-width:0"
           inkscape:connector-curvature="0" /></g>    </g>
  </g>
</svg>
