<?xml version="1.0" encoding="UTF-8" standalone="no"?>
<!-- Created with Inkscape (http://www.inkscape.org/) -->

<svg
   xmlns:dc="http://purl.org/dc/elements/1.1/"
   xmlns:cc="http://creativecommons.org/ns#"
   xmlns:rdf="http://www.w3.org/1999/02/22-rdf-syntax-ns#"
   xmlns:svg="http://www.w3.org/2000/svg"
   xmlns="http://www.w3.org/2000/svg"
   xmlns:sodipodi="http://sodipodi.sourceforge.net/DTD/sodipodi-0.dtd"
   xmlns:inkscape="http://www.inkscape.org/namespaces/inkscape"
   width="1594.2444mm"
   height="159.74879mm"
   viewBox="0 0 1594.2444 159.7488"
   version="1.1"
   id="svg7027"
   inkscape:version="0.92.4 5da689c313, 2019-01-14"
   sodipodi:docname="MAR_inconsistency_002.svg">
  <defs
     id="defs7021" />
  <sodipodi:namedview
     id="base"
     pagecolor="#000000"
     bordercolor="#666666"
     borderopacity="1.0"
     inkscape:pageopacity="0"
     inkscape:pageshadow="2"
     inkscape:zoom="0.0875"
     inkscape:cx="4914.885"
     inkscape:cy="-618.97733"
     inkscape:document-units="mm"
     inkscape:current-layer="layer1"
     showgrid="false"
     fit-margin-top="0"
     fit-margin-left="0"
     fit-margin-right="0"
     fit-margin-bottom="0"
     inkscape:window-width="1920"
     inkscape:window-height="1006"
     inkscape:window-x="0"
     inkscape:window-y="0"
     inkscape:window-maximized="1" />
  <metadata
     id="metadata7024">
    <rdf:RDF>
      <cc:Work
         rdf:about="">
        <dc:format>image/svg+xml</dc:format>
        <dc:type
           rdf:resource="http://purl.org/dc/dcmitype/StillImage" />
        <dc:title></dc:title>
      </cc:Work>
    </rdf:RDF>
  </metadata>
  <g
     inkscape:label="Layer 1"
     inkscape:groupmode="layer"
     id="layer1"
     transform="translate(814.55293,135.79951)">
    <g
       id="g7968"
       style="fill:#ffffff;fill-opacity:1"
       transform="translate(-1312.3333,-586.61905)">
      <g
         word-spacing="normal"
         letter-spacing="normal"
         font-size-adjust="none"
         font-stretch="normal"
         font-weight="normal"
         font-variant="normal"
         font-style="normal"
         stroke-miterlimit="10.433"
         xml:space="preserve"
         transform="matrix(1.782115,0,0,-1.782115,-311.87012,1263.3927)"
         id="content"
         style="font-style:normal;font-variant:normal;font-weight:normal;font-stretch:normal;letter-spacing:normal;word-spacing:normal;text-anchor:start;fill:#ffffff;fill-opacity:1;fill-rule:evenodd;stroke:#000000;stroke-linecap:butt;stroke-linejoin:miter;stroke-miterlimit:10.43299961;stroke-dasharray:none;stroke-dashoffset:0;stroke-opacity:1"><path
           id="path7905"
           d="m 473.21,432.79 h -0.57 l -0.55,-0.01 -0.53,-0.02 -0.51,-0.02 -0.49,-0.02 -0.47,-0.04 -0.46,-0.03 -0.43,-0.04 -0.42,-0.05 -0.4,-0.05 -0.39,-0.05 -0.37,-0.06 -0.35,-0.05 -0.34,-0.06 -0.32,-0.07 -0.3,-0.06 -0.3,-0.06 -0.27,-0.07 -0.27,-0.07 -0.25,-0.06 -0.23,-0.07 -0.23,-0.07 -0.21,-0.06 -0.2,-0.07 -0.19,-0.06 -0.17,-0.06 -0.17,-0.06 -0.16,-0.06 -0.14,-0.05 -0.13,-0.05 -0.13,-0.05 -0.12,-0.04 c -5.07,-2.14 -6.23,-5.53 -6.23,-6.19 0,-0.34 0.25,-0.39 0.55,-0.39 0.9,0 3.29,1.25 3.68,2.34 0.61,1.9 0.75,2.35 4.1,2.79 1.69,0.2 3.33,0.29 5.03,0.29 h 4.53 c -3.14,-3.03 -4.58,-8.36 -6.37,-15.53 -1.46,-5.89 -2.6,-9.76 -4.64,-12.4 -0.5,-0.55 -0.55,-0.61 -1.9,-0.61 h -3.18 c -0.96,0 -1.5,0 -2.74,-0.74 -0.54,-0.31 -1.65,-1.15 -1.65,-1.65 0,-0.3 0.06,-0.35 1.15,-0.35 h 17.03 c 5.83,0 10.18,4.33 10.18,6.13 0,0.36 -0.41,0.36 -0.55,0.36 -0.86,0 -3.19,-1.16 -3.69,-2.41 -0.36,-1.03 -0.5,-1.34 -3,-1.34 h -9.51 c 3.54,3.04 5.03,7.98 6.73,14.75 1.34,5.43 2.53,10.26 4.58,13.31 0.3,0.44 0.36,0.48 1.34,0.48 h 4.24 c 1,0 1.45,0 2.75,0.75 0.43,0.25 1.59,1.05 1.59,1.64 0,0.32 -0.05,0.36 -1.16,0.36 z"
           style="fill:#ffffff;fill-opacity:1;stroke-width:0"
           inkscape:connector-curvature="0" /><path
           id="path7907"
           d="m 534.39,415.06 h 0.14 0.14 l 0.15,0.01 h 0.07 0.07 l 0.08,0.01 0.07,0.01 0.07,0.01 0.07,0.01 0.07,0.01 0.06,0.02 0.07,0.02 0.06,0.02 0.06,0.03 0.06,0.02 0.05,0.03 0.06,0.04 0.05,0.04 0.04,0.04 0.05,0.04 0.04,0.05 0.02,0.03 0.01,0.03 0.02,0.03 0.02,0.03 0.01,0.03 0.01,0.03 0.01,0.03 0.02,0.04 0.01,0.03 v 0.04 l 0.01,0.04 0.01,0.04 v 0.04 l 0.01,0.04 v 0.05 0.04 c 0,1 -0.96,1 -1.64,1 h -29.85 c -0.7,0 -1.64,0 -1.64,-1 0,-0.98 0.94,-0.98 1.69,-0.98 z"
           style="fill:#ffffff;fill-opacity:1;stroke-width:0"
           inkscape:connector-curvature="0" /><path
           id="path7909"
           d="m 534.44,405.39 h 0.06 0.07 0.14 0.13 l 0.07,0.01 h 0.07 l 0.07,0.01 0.07,0.01 0.07,0.01 0.07,0.01 0.07,0.01 0.06,0.02 0.06,0.02 0.07,0.02 0.06,0.03 0.05,0.02 0.06,0.04 0.05,0.03 0.05,0.04 0.05,0.04 0.04,0.05 0.02,0.02 0.02,0.03 0.02,0.03 0.01,0.02 0.02,0.03 0.02,0.03 0.01,0.03 0.01,0.04 0.01,0.03 0.02,0.04 0.01,0.03 v 0.04 l 0.01,0.04 0.01,0.04 v 0.04 l 0.01,0.05 v 0.04 0.05 c 0,1 -0.96,1 -1.69,1 h -29.75 c -0.75,0 -1.69,0 -1.69,-1 0,-1 0.94,-1 1.64,-1 z"
           style="fill:#ffffff;fill-opacity:1;stroke-width:0"
           inkscape:connector-curvature="0" /><path
           id="path7911"
           d="m 578.5,366.87 v -0.01 h 0.01 v 0 l 0.01,-0.01 v 0 l 0.01,-0.01 h 0.01 l 0.01,-0.01 v -0.01 h 0.01 l 0.02,-0.02 0.02,-0.02 0.02,-0.02 0.02,-0.02 0.03,-0.02 0.02,-0.02 0.02,-0.03 0.03,-0.02 0.02,-0.02 0.05,-0.05 0.03,-0.03 0.02,-0.02 0.02,-0.03 0.03,-0.02 0.02,-0.02 0.02,-0.02 0.02,-0.02 0.02,-0.02 0.02,-0.02 0.01,-0.01 h 0.01 v -0.01 l 0.01,-0.01 h 0.01 v -0.01 h 0.01 l 0.01,-0.01 v 0 h 0.01 v -0.01 0 h 0.01 v 0 h 1.11 c 0.14,0 0.55,0.05 0.55,0.5 0,0.2 -0.11,0.3 -0.21,0.45 -1.79,1.8 -4.48,4.53 -7.57,10.02 -5.38,9.56 -7.38,21.87 -7.38,33.83 0,22.12 6.28,35.12 15,43.93 0.16,0.16 0.16,0.3 0.16,0.41 0,0.5 -0.36,0.5 -0.96,0.5 -0.64,0 -0.75,0 -1.2,-0.41 -4.72,-4.07 -10.06,-11.01 -13.5,-21.51 -2.14,-6.58 -3.28,-14.61 -3.28,-22.88 0,-11.81 2.14,-25.15 9.97,-36.71 1.34,-1.94 3.19,-3.99 3.19,-4.04 0.5,-0.59 1.18,-1.4 1.59,-1.75 z"
           style="fill:#ffffff;fill-opacity:1;stroke-width:0"
           inkscape:connector-curvature="0" /><path
           id="path7913"
           d="m 600.17,432.79 h -0.57 l -0.55,-0.01 -0.53,-0.02 -0.51,-0.02 -0.49,-0.02 -0.47,-0.04 -0.45,-0.03 -0.44,-0.04 -0.42,-0.05 -0.4,-0.05 -0.39,-0.05 -0.37,-0.06 -0.35,-0.05 -0.33,-0.06 -0.33,-0.07 -0.3,-0.06 -0.29,-0.06 -0.28,-0.07 -0.27,-0.07 -0.25,-0.06 -0.23,-0.07 -0.23,-0.07 -0.21,-0.06 -0.2,-0.07 -0.19,-0.06 -0.17,-0.06 -0.17,-0.06 -0.15,-0.06 -0.15,-0.05 -0.13,-0.05 -0.13,-0.05 -0.12,-0.04 c -5.07,-2.14 -6.23,-5.53 -6.23,-6.19 0,-0.34 0.25,-0.39 0.55,-0.39 0.9,0 3.3,1.25 3.68,2.34 0.62,1.9 0.75,2.35 4.1,2.79 1.69,0.2 3.33,0.29 5.03,0.29 h 4.53 c -3.14,-3.03 -4.58,-8.36 -6.37,-15.53 -1.46,-5.89 -2.6,-9.76 -4.64,-12.4 -0.5,-0.55 -0.55,-0.61 -1.9,-0.61 h -3.18 c -0.95,0 -1.5,0 -2.74,-0.74 -0.54,-0.31 -1.65,-1.15 -1.65,-1.65 0,-0.3 0.06,-0.35 1.15,-0.35 h 17.04 c 5.82,0 10.17,4.33 10.17,6.13 0,0.36 -0.41,0.36 -0.55,0.36 -0.86,0 -3.19,-1.16 -3.69,-2.41 -0.36,-1.03 -0.5,-1.34 -3,-1.34 h -9.51 c 3.54,3.04 5.03,7.98 6.73,14.75 1.35,5.43 2.53,10.26 4.58,13.31 0.3,0.44 0.36,0.48 1.34,0.48 h 4.24 c 1,0 1.45,0 2.75,0.75 0.44,0.25 1.59,1.05 1.59,1.64 0,0.32 -0.05,0.36 -1.15,0.36 z"
           style="fill:#ffffff;fill-opacity:1;stroke-width:0"
           inkscape:connector-curvature="0" /><path
           id="path7915"
           d="m 627.59,402.31 -0.01,0.71 -0.02,0.68 -0.03,0.66 -0.04,0.64 -0.06,0.62 -0.07,0.59 -0.09,0.58 -0.11,0.56 -0.13,0.55 -0.15,0.52 -0.17,0.52 -0.19,0.5 -0.21,0.49 -0.24,0.48 -0.26,0.47 -0.14,0.23 -0.15,0.23 c -1.07,1.61 -3.23,3 -6.03,3 -8.08,0 -8.08,-9.52 -8.08,-12.03 0,-2.5 0,-11.81 8.08,-11.81 v 0.98 c -1.59,0 -3.72,0.94 -4.42,3.8 -0.48,2.04 -0.48,4.9 -0.48,7.48 0,2.55 0,5.2 0.51,7.11 0.74,2.75 2.97,3.49 4.39,3.49 1.89,0 3.71,-1.15 4.33,-3.18 0.56,-1.87 0.59,-4.39 0.59,-7.42 0,-2.58 0,-5.15 -0.45,-7.34 -0.7,-3.17 -3.06,-3.94 -4.47,-3.94 v 0 -0.98 c 8.1,0 8.1,9.31 8.1,11.81 z"
           style="fill:#ffffff;fill-opacity:1;stroke-width:0"
           inkscape:connector-curvature="0" /><path
           id="path7917"
           d="m 675.91,410.21 0.15,0.01 h 0.16 0.16 l 0.08,0.01 h 0.08 l 0.07,0.01 0.08,0.01 0.07,0.01 0.07,0.01 0.07,0.01 0.07,0.02 0.06,0.02 0.07,0.02 0.06,0.02 0.06,0.03 0.05,0.03 0.05,0.04 0.05,0.04 0.05,0.04 0.04,0.05 0.04,0.05 0.02,0.02 0.02,0.03 0.01,0.03 0.02,0.03 0.01,0.03 0.01,0.04 0.01,0.03 0.02,0.03 v 0.04 l 0.01,0.04 0.01,0.04 0.01,0.04 v 0.04 0.04 l 0.01,0.05 v 0.04 c 0,1 -0.91,1 -1.75,1 h -26.96 c -0.84,0 -1.73,0 -1.73,-1 0,-1 0.89,-1 1.73,-1 z"
           style="fill:#ffffff;fill-opacity:1;stroke-width:0"
           inkscape:connector-curvature="0" /><path
           id="path7919"
           d="m 706.03,420.53 -0.58,-0.16 -0.57,-0.18 -0.56,-0.21 -0.55,-0.23 -0.54,-0.26 -0.53,-0.29 -0.52,-0.31 -0.5,-0.33 -0.5,-0.35 -0.47,-0.37 -0.47,-0.39 -0.44,-0.41 -0.44,-0.43 -0.41,-0.45 -0.4,-0.45 -0.38,-0.48 -0.37,-0.48 -0.34,-0.5 -0.33,-0.51 -0.3,-0.52 -0.28,-0.53 -0.27,-0.54 -0.24,-0.55 -0.22,-0.55 -0.19,-0.56 -0.17,-0.56 -0.15,-0.56 -0.12,-0.57 -0.09,-0.57 -0.07,-0.57 -0.04,-0.57 -0.02,-0.56 c 0,-4.78 3.19,-8.36 7.88,-8.36 v 1.09 c -2.75,0 -4.78,2.1 -4.78,5.88 0,3.14 1.84,12.5 8.56,14.29 v 0 c 1.25,-2.28 2.73,-4.98 2.73,-8.56 0,-3.3 -1.89,-11.61 -6.51,-11.61 v -1.09 c 5.83,0 9.95,7.81 9.95,14.69 0,4.54 -1.98,7.03 -3.69,9.26 -1.78,2.25 -4.71,5.99 -4.71,8.17 0,1.11 0.98,2.3 2.73,2.3 1.5,0 2.48,-0.64 3.53,-1.34 1,-0.6 2,-1.25 2.75,-1.25 1.24,0 1.99,1.2 1.99,2 0,1.09 -0.8,1.23 -2.6,1.64 -2.58,0.54 -3.28,0.54 -4.08,0.54 -3.89,0 -5.69,-2.14 -5.69,-5.12 0,-2.7 1.46,-5.49 3,-8.53 z"
           style="fill:#ffffff;fill-opacity:1;stroke-width:0"
           inkscape:connector-curvature="0" /><path
           id="path7921"
           d="m 750.54,412.17 0.03,0.12 0.03,0.11 0.02,0.11 0.03,0.1 0.03,0.09 0.03,0.1 0.03,0.08 0.03,0.08 0.04,0.08 0.03,0.07 0.05,0.07 0.04,0.06 0.05,0.05 0.06,0.06 0.06,0.05 0.07,0.04 0.07,0.05 0.08,0.03 0.09,0.04 0.1,0.03 0.1,0.03 0.06,0.01 0.06,0.01 0.06,0.01 0.06,0.01 0.07,0.01 0.07,0.01 0.07,0.01 0.07,0.01 0.08,0.01 h 0.08 l 0.08,0.01 h 0.09 l 0.09,0.01 h 0.09 0.09 l 0.1,0.01 h 0.1 0.11 0.11 l 0.11,0.01 h 0.11 0.12 c 0.74,0 1.19,0 1.19,0.73 0,0.52 -0.42,0.52 -1.05,0.52 h -4.73 c -1.02,0 -1.05,-0.04 -1.5,-0.69 l -13.45,-19.88 -3.44,19.63 c -0.19,0.9 -0.19,0.94 -1.22,0.94 h -4.99 c -0.7,0 -1.15,0 -1.15,-0.77 0,-0.48 0.42,-0.48 1.19,-0.48 0.56,0 0.68,0 1.32,-0.08 0.69,-0.06 0.77,-0.14 0.77,-0.49 0,-0.03 0,-0.23 -0.14,-0.76 l -4.39,-17.49 c -0.31,-1.18 -0.85,-2.37 -3.63,-2.48 -0.28,0 -0.73,-0.03 -0.73,-0.77 0,-0.03 0.03,-0.48 0.51,-0.48 1.05,0 2.52,0.14 3.63,0.14 0.84,0 2.86,-0.14 3.7,-0.14 0.17,0 0.69,0 0.69,0.76 0,0.46 -0.45,0.49 -0.77,0.49 -2.21,0.08 -2.21,0.98 -2.21,1.47 0,0.14 0,0.31 0.14,0.87 l 4.62,18.53 h 0.03 l 3.74,-21.18 c 0.11,-0.63 0.17,-0.94 0.7,-0.94 0.48,0 0.77,0.39 1,0.76 l 14.64,21.71 0.03,-0.03 -4.9,-19.72 c -0.29,-1.19 -0.36,-1.47 -3.08,-1.47 -0.63,0 -1.05,0 -1.05,-0.77 0,-0.03 0,-0.48 0.56,-0.48 0.68,0 1.47,0.11 2.16,0.11 0.7,0 1.5,0.03 2.2,0.03 0.97,0 3.46,-0.14 4.42,-0.14 0.22,0 0.74,0 0.74,0.76 0,0.49 -0.42,0.49 -1.11,0.49 -0.05,0 -0.7,0 -1.33,0.08 -0.8,0.06 -0.8,0.17 -0.8,0.51 0,0.22 0.1,0.57 0.15,0.77 z"
           style="fill:#ffffff;fill-opacity:1;stroke-width:0"
           inkscape:connector-curvature="0" /><path
           id="path7923"
           d="m 781.07,395 -0.03,-0.38 -0.04,-0.37 -0.07,-0.72 -0.07,-0.68 -0.09,-0.65 -0.09,-0.61 -0.1,-0.59 -0.1,-0.55 -0.11,-0.53 -0.12,-0.49 -0.12,-0.47 -0.13,-0.44 -0.14,-0.41 -0.14,-0.38 -0.15,-0.36 -0.16,-0.33 -0.16,-0.31 -0.17,-0.29 -0.17,-0.26 -0.18,-0.24 -0.19,-0.21 -0.2,-0.2 -0.2,-0.17 -0.21,-0.16 -0.21,-0.13 -0.22,-0.12 -0.23,-0.1 -0.23,-0.08 -0.24,-0.07 -0.24,-0.05 -0.25,-0.03 -0.26,-0.02 -0.27,-0.01 c -0.63,0 -2.13,0.14 -3.18,1.05 1.45,0.18 1.84,1.34 1.84,2.03 0,1.45 -1.09,2.09 -2.04,2.09 -0.99,0 -2.08,-0.64 -2.08,-2.14 0,-2.39 2.48,-4.12 5.46,-4.12 4.74,0 7.13,4.32 8.22,8.81 0.66,2.59 2.46,17.09 2.85,22.61 l 0.95,12.4 c 0.69,9.18 2.39,10.43 4.63,10.43 0.5,0 2.04,-0.11 3.14,-1.05 -1.44,-0.2 -1.85,-1.34 -1.85,-2.05 0,-1.44 1.1,-2.09 2.05,-2.09 1,0 2.09,0.65 2.09,2.14 0,2.39 -2.5,4.14 -5.48,4.14 -4.73,0 -6.67,-4.83 -7.52,-8.63 -0.61,-2.73 -2.39,-16.78 -2.84,-22.81 z"
           style="fill:#ffffff;fill-opacity:1;stroke-width:0"
           inkscape:connector-curvature="0" /><path
           id="path7925"
           d="m 810,439.09 -0.56,-0.28 -0.53,-0.29 -0.5,-0.29 -0.48,-0.3 -0.45,-0.3 -0.43,-0.31 -0.41,-0.31 -0.38,-0.32 -0.36,-0.31 -0.34,-0.32 -0.32,-0.32 -0.3,-0.32 -0.28,-0.32 -0.26,-0.31 -0.24,-0.32 -0.22,-0.31 -0.2,-0.31 -0.19,-0.3 -0.17,-0.3 -0.15,-0.29 -0.14,-0.29 -0.12,-0.28 -0.11,-0.27 -0.1,-0.26 -0.08,-0.26 -0.07,-0.24 -0.05,-0.23 -0.05,-0.23 -0.03,-0.21 -0.03,-0.2 -0.01,-0.18 -0.01,-0.17 c 0,-2.89 3.11,-4.36 6.66,-4.36 6.34,0 11.47,5.58 11.47,6.25 0,0.26 -0.31,0.26 -0.42,0.26 -0.08,0 -1.33,0 -2.75,-1.62 -0.88,-0.96 -2.58,-2.77 -5.83,-2.77 -2.13,0 -5.89,0.81 -5.89,3.81 0,2.13 2.2,6.61 8.06,6.79 0.62,0 1.11,0.04 2.02,0.59 0.34,0.25 1.15,0.81 1.15,1.27 0,0.23 -0.36,0.26 -0.39,0.26 -5.01,0.19 -6.72,1.95 -6.72,3.91 0,1.43 0.83,2.68 1.6,3.25 1.21,0.83 3.2,1.08 4.28,1.08 0.5,0 1.43,-0.08 2.37,-0.36 0.43,-0.1 1.3,-0.38 1.3,-1.54 0,-0.37 -0.11,-0.76 -0.31,-1.07 -0.11,-0.14 -0.22,-0.32 -0.22,-0.46 0,-0.23 0.28,-0.28 0.45,-0.28 0.99,0 3.31,1.3 3.31,3.39 0,1.94 -2.12,2.44 -4.42,2.44 -5.72,0 -11.61,-3.91 -11.61,-8.02 0,-2.2 1.81,-3.34 3.46,-3.87 z"
           style="fill:#ffffff;fill-opacity:1;stroke-width:0"
           inkscape:connector-curvature="0" /><path
           id="path7927"
           d="m 837.21,429.53 v 0.18 0.21 l -0.01,0.24 -0.01,0.25 -0.01,0.28 -0.02,0.3 -0.02,0.31 -0.03,0.33 -0.05,0.34 -0.05,0.35 -0.07,0.36 -0.08,0.37 -0.09,0.36 -0.11,0.37 -0.12,0.37 -0.15,0.36 -0.16,0.36 -0.18,0.35 -0.2,0.35 -0.23,0.33 -0.25,0.31 -0.28,0.3 -0.14,0.15 -0.16,0.14 -0.16,0.13 -0.17,0.13 -0.17,0.12 -0.18,0.12 -0.19,0.11 -0.2,0.1 -0.2,0.1 -0.22,0.09 -0.22,0.08 -0.23,0.08 -0.23,0.06 -0.25,0.06 -0.26,0.05 -0.26,0.04 -0.27,0.04 -0.28,0.02 -0.29,0.02 h -0.3 v -0.83 c 1.84,0 3.17,-0.93 3.65,-2.68 0.36,-1.27 0.36,-3.35 0.36,-4.82 0,-1.68 0,-3.7 -0.37,-5.2 -0.66,-2.42 -2.64,-2.78 -3.64,-2.78 v 0 c -0.93,0 -3.02,0.31 -3.64,2.83 -0.35,1.34 -0.38,3.12 -0.38,5.15 0,1.85 0,3.57 0.41,4.99 0.62,2.09 2.55,2.51 3.61,2.51 v 0.83 c -6.5,0 -6.5,-6.83 -6.5,-8.62 0,-1.82 0,-8.52 6.5,-8.52 6.5,0 6.5,6.7 6.5,8.52 z"
           style="fill:#ffffff;fill-opacity:1;stroke-width:0"
           inkscape:connector-curvature="0" /><path
           id="path7929"
           d="m 809.02,392.11 v 0.71 l -0.02,0.68 -0.03,0.66 -0.04,0.64 -0.06,0.62 -0.08,0.59 -0.09,0.58 -0.1,0.56 -0.13,0.55 -0.15,0.53 -0.17,0.51 -0.19,0.5 -0.21,0.49 -0.24,0.48 -0.26,0.47 -0.14,0.23 -0.15,0.23 c -1.08,1.61 -3.23,3 -6.03,3 -8.08,0 -8.08,-9.52 -8.08,-12.03 0,-2.5 0,-11.81 8.08,-11.81 v 0.98 c -1.59,0 -3.72,0.94 -4.42,3.8 -0.49,2.04 -0.49,4.9 -0.49,7.48 0,2.55 0,5.21 0.52,7.11 0.73,2.75 2.97,3.49 4.39,3.49 1.89,0 3.7,-1.14 4.33,-3.18 0.56,-1.87 0.59,-4.39 0.59,-7.42 0,-2.58 0,-5.15 -0.45,-7.34 -0.7,-3.17 -3.06,-3.94 -4.47,-3.94 v 0 -0.98 c 8.09,0 8.09,9.31 8.09,11.81 z"
           style="fill:#ffffff;fill-opacity:1;stroke-width:0"
           inkscape:connector-curvature="0" /><path
           id="path7931"
           d="m 870.17,432.79 h -0.57 l -0.55,-0.01 -0.53,-0.02 -0.51,-0.02 -0.49,-0.02 -0.47,-0.04 -0.45,-0.03 -0.44,-0.04 -0.42,-0.05 -0.4,-0.05 -0.39,-0.05 -0.37,-0.06 -0.35,-0.05 -0.33,-0.06 -0.33,-0.07 -0.3,-0.06 -0.29,-0.06 -0.28,-0.07 -0.27,-0.07 -0.25,-0.06 -0.23,-0.07 -0.23,-0.07 -0.21,-0.06 -0.2,-0.07 -0.19,-0.06 -0.17,-0.06 -0.17,-0.06 -0.15,-0.06 -0.15,-0.05 -0.13,-0.05 -0.13,-0.05 -0.12,-0.04 c -5.07,-2.14 -6.23,-5.53 -6.23,-6.19 0,-0.34 0.25,-0.39 0.55,-0.39 0.9,0 3.3,1.25 3.68,2.34 0.62,1.9 0.75,2.35 4.1,2.79 1.69,0.2 3.33,0.29 5.03,0.29 h 4.53 c -3.14,-3.03 -4.58,-8.36 -6.37,-15.53 -1.46,-5.89 -2.6,-9.76 -4.64,-12.4 -0.5,-0.55 -0.55,-0.61 -1.9,-0.61 h -3.18 c -0.95,0 -1.5,0 -2.74,-0.74 -0.54,-0.31 -1.65,-1.15 -1.65,-1.65 0,-0.3 0.06,-0.35 1.15,-0.35 h 17.04 c 5.82,0 10.17,4.33 10.17,6.13 0,0.36 -0.41,0.36 -0.55,0.36 -0.86,0 -3.19,-1.16 -3.69,-2.41 -0.36,-1.03 -0.5,-1.34 -3,-1.34 h -9.51 c 3.54,3.04 5.03,7.98 6.73,14.75 1.35,5.43 2.53,10.26 4.58,13.31 0.3,0.44 0.36,0.48 1.34,0.48 h 4.24 c 1,0 1.45,0 2.75,0.75 0.44,0.25 1.59,1.05 1.59,1.64 0,0.32 -0.05,0.36 -1.15,0.36 z"
           style="fill:#ffffff;fill-opacity:1;stroke-width:0"
           inkscape:connector-curvature="0" /><path
           id="path7933"
           d="m 897.59,402.31 -0.01,0.71 -0.02,0.68 -0.03,0.66 -0.04,0.64 -0.06,0.62 -0.07,0.59 -0.09,0.58 -0.11,0.56 -0.13,0.55 -0.15,0.52 -0.17,0.52 -0.19,0.5 -0.21,0.49 -0.24,0.48 -0.26,0.47 -0.14,0.23 -0.15,0.23 c -1.07,1.61 -3.23,3 -6.03,3 -8.08,0 -8.08,-9.52 -8.08,-12.03 0,-2.5 0,-11.81 8.08,-11.81 v 0.98 c -1.59,0 -3.72,0.94 -4.42,3.8 -0.48,2.04 -0.48,4.9 -0.48,7.48 0,2.55 0,5.2 0.51,7.11 0.74,2.75 2.97,3.49 4.39,3.49 1.89,0 3.71,-1.15 4.33,-3.18 0.56,-1.87 0.59,-4.39 0.59,-7.42 0,-2.58 0,-5.15 -0.45,-7.34 -0.7,-3.17 -3.06,-3.94 -4.47,-3.94 v 0 -0.98 c 8.1,0 8.1,9.31 8.1,11.81 z"
           style="fill:#ffffff;fill-opacity:1;stroke-width:0"
           inkscape:connector-curvature="0" /><path
           id="path7935"
           d="m 918.41,386.81 v 0.03 l -0.01,0.02 v 0.02 0.01 0.01 l -0.01,0.02 v 0.02 l -0.01,0.01 -0.01,0.02 -0.01,0.02 -0.01,0.03 -0.01,0.02 -0.02,0.02 -0.02,0.03 -0.02,0.03 -0.02,0.03 -0.03,0.04 -0.03,0.03 -0.02,0.02 -0.01,0.02 -0.02,0.02 -0.02,0.02 -0.02,0.03 -0.02,0.02 -0.02,0.02 -0.02,0.03 -0.02,0.02 -0.03,0.03 -0.02,0.02 -0.03,0.03 -0.02,0.03 -0.03,0.03 -0.03,0.03 -0.03,0.03 -0.03,0.03 -0.03,0.03 -0.03,0.04 -0.04,0.03 -0.03,0.04 -0.04,0.04 -0.04,0.03 -0.04,0.04 c -6.22,6.28 -7.81,15.69 -7.81,23.31 0,8.68 1.89,17.35 8.02,23.57 0.64,0.61 0.64,0.7 0.64,0.86 0,0.34 -0.19,0.48 -0.49,0.48 -0.5,0 -4.98,-3.37 -7.92,-9.7 -2.55,-5.49 -3.14,-11.02 -3.14,-15.21 0,-3.89 0.55,-9.9 3.28,-15.54 2.98,-6.13 7.28,-9.36 7.78,-9.36 0.3,0 0.49,0.14 0.49,0.5 z"
           style="fill:#ffffff;fill-opacity:1;stroke-width:0"
           inkscape:connector-curvature="0" /><path
           id="path7937"
           d="m 933.15,416.84 -0.47,-0.25 -0.44,-0.26 -0.44,-0.25 -0.42,-0.26 -0.4,-0.26 -0.4,-0.25 -0.38,-0.26 -0.37,-0.26 -0.7,-0.52 -0.66,-0.52 -0.61,-0.52 -0.56,-0.52 -0.53,-0.51 -0.48,-0.51 -0.45,-0.51 -0.4,-0.5 -0.37,-0.49 -0.34,-0.48 -0.31,-0.47 -0.27,-0.46 -0.25,-0.45 -0.21,-0.44 -0.2,-0.42 -0.16,-0.41 -0.15,-0.38 -0.12,-0.37 -0.1,-0.36 -0.09,-0.33 -0.07,-0.31 -0.05,-0.28 -0.05,-0.27 -0.03,-0.24 -0.02,-0.21 -0.01,-0.18 -0.01,-0.16 v -0.13 c 0,-3.78 3.69,-6.17 8.42,-6.17 8.33,0 15,7.87 15,8.92 0,0.3 -0.25,0.34 -0.5,0.34 -0.59,0 -2.48,-0.65 -3.64,-2.18 -1.05,-1.46 -3.14,-4.35 -7.56,-4.35 -3.55,0 -7.49,1.85 -7.49,5.58 0,2.45 2.8,9.81 10.67,10.13 2.35,0.09 4.08,1.84 4.08,2.39 0,0.29 -0.25,0.34 -0.5,0.34 -7.01,0.3 -8.42,3.73 -8.42,5.73 0,1.14 0.75,6.58 7.74,6.58 0.93,0 4.73,-0.15 4.73,-2.75 0,-0.79 -0.41,-1.48 -0.61,-1.79 -0.09,-0.15 -0.25,-0.4 -0.25,-0.55 0,-0.35 0.36,-0.35 0.5,-0.35 1.5,0 4.6,1.94 4.6,4.79 0,2.93 -3.44,3.39 -5.69,3.39 -6.78,0 -15.25,-5.38 -15.25,-11.46 0,-2.95 2.25,-4.73 4.69,-5.59 z"
           style="fill:#ffffff;fill-opacity:1;stroke-width:0"
           inkscape:connector-curvature="0" /><path
           id="path7939"
           d="m 966.34,411.21 v 0.38 0.38 l -0.01,0.39 -0.01,0.41 -0.04,0.84 -0.06,0.88 -0.09,0.92 -0.1,0.95 -0.14,0.98 -0.16,1 -0.2,1.02 -0.23,1.04 -0.26,1.05 -0.31,1.06 -0.35,1.06 -0.39,1.07 -0.21,0.53 -0.23,0.53 -0.24,0.53 -0.25,0.53 c -2.98,6.13 -7.26,9.36 -7.76,9.36 -0.3,0 -0.5,-0.19 -0.5,-0.48 0,-0.16 0,-0.25 0.93,-1.16 4.89,-4.92 7.74,-12.84 7.74,-23.27 0,-8.51 -1.85,-17.28 -8.03,-23.56 -0.64,-0.59 -0.64,-0.7 -0.64,-0.84 0,-0.3 0.2,-0.5 0.5,-0.5 0.5,0 4.97,3.39 7.92,9.72 2.53,5.47 3.12,11 3.12,15.18 z"
           style="fill:#ffffff;fill-opacity:1;stroke-width:0"
           inkscape:connector-curvature="0" /><path
           id="path7941"
           d="m 996.97,432.79 v 0.01 0 0.01 0.01 0.01 0.01 0.02 0.02 l -0.01,0.02 v 0.02 l -0.01,0.02 v 0.02 l -0.01,0.03 -0.01,0.02 -0.01,0.03 -0.01,0.02 -0.02,0.02 -0.01,0.03 -0.02,0.02 -0.02,0.03 -0.02,0.02 -0.02,0.01 -0.01,0.01 -0.01,0.01 -0.02,0.01 -0.01,0.01 -0.02,0.01 -0.01,0.01 -0.02,0.01 -0.01,0.01 -0.02,0.01 -0.02,0.01 h -0.02 l -0.02,0.01 -0.02,0.01 h -0.02 l -0.03,0.01 h -0.02 l -0.02,0.01 h -0.03 -0.03 l -0.02,0.01 h -0.03 -0.03 -0.03 c -0.75,0 -5.48,-0.45 -6.33,-0.55 -0.4,-0.04 -0.7,-0.29 -0.7,-0.95 0,-0.59 0.45,-0.59 1.2,-0.59 2.4,0 2.49,-0.35 2.49,-0.85 l -0.14,-1 -3,-11.81 c -0.89,1.84 -2.35,3.19 -4.58,3.19 l 0.05,-1.1 c 3.23,0 3.93,-4.07 3.93,-4.37 0,-0.31 -0.09,-0.61 -0.14,-0.86 l -2.5,-9.77 c -0.25,-0.89 -0.25,-0.98 -1,-1.84 -2.18,-2.73 -4.23,-3.53 -5.62,-3.53 -2.49,0 -3.19,2.73 -3.19,4.69 0,2.48 1.6,8.61 2.73,10.9 1.55,2.94 3.8,4.78 5.79,4.78 l -0.05,1.1 c -5.83,0 -12,-7.32 -12,-14.6 0,-4.68 2.73,-7.97 6.63,-7.97 0.98,0 3.48,0.21 6.46,3.74 0.41,-2.09 2.14,-3.74 4.54,-3.74 1.75,0 2.88,1.15 3.68,2.74 0.85,1.8 1.5,4.84 1.5,4.94 0,0.5 -0.45,0.5 -0.59,0.5 -0.5,0 -0.55,-0.21 -0.71,-0.91 -0.84,-3.23 -1.75,-6.17 -3.78,-6.17 -1.34,0 -1.5,1.3 -1.5,2.3 0,1.18 0.1,1.54 0.3,2.39 z"
           style="fill:#ffffff;fill-opacity:1;stroke-width:0"
           inkscape:connector-curvature="0" /><path
           id="path7943"
           d="m 1009.1,416.84 -0.5,-0.25 -0.4,-0.26 -0.5,-0.25 -0.4,-0.26 -0.4,-0.26 -0.4,-0.25 -0.4,-0.26 -0.3,-0.26 -0.7,-0.52 -0.7,-0.52 -0.6,-0.52 -0.6,-0.52 -0.5,-0.51 -0.5,-0.51 -0.4,-0.51 -0.4,-0.5 -0.4,-0.49 -0.3,-0.48 -0.3,-0.47 -0.3,-0.46 -0.25,-0.45 -0.22,-0.44 -0.19,-0.42 -0.16,-0.41 -0.15,-0.38 -0.12,-0.37 -0.1,-0.36 -0.09,-0.33 -0.07,-0.31 -0.06,-0.28 -0.04,-0.27 -0.03,-0.24 -0.02,-0.21 -0.01,-0.18 -0.01,-0.16 v -0.13 c 0,-3.78 3.72,-6.17 8.42,-6.17 8.3,0 15,7.87 15,8.92 0,0.3 -0.2,0.34 -0.5,0.34 -0.6,0 -2.5,-0.65 -3.6,-2.18 -1.1,-1.46 -3.2,-4.35 -7.6,-4.35 -3.5,0 -7.5,1.85 -7.5,5.58 0,2.45 2.8,9.81 10.7,10.13 2.3,0.09 4.1,1.84 4.1,2.39 0,0.29 -0.3,0.34 -0.5,0.34 -7.1,0.3 -8.5,3.73 -8.5,5.73 0,1.14 0.8,6.58 7.8,6.58 0.9,0 4.7,-0.15 4.7,-2.75 0,-0.79 -0.4,-1.48 -0.6,-1.79 -0.1,-0.15 -0.3,-0.4 -0.3,-0.55 0,-0.35 0.4,-0.35 0.6,-0.35 1.4,0 4.5,1.94 4.5,4.79 0,2.93 -3.4,3.39 -5.6,3.39 -6.8,0 -15.3,-5.38 -15.3,-11.46 0,-2.95 2.3,-4.73 4.7,-5.59 z"
           style="fill:#ffffff;fill-opacity:1;stroke-width:0"
           inkscape:connector-curvature="0" /><path
           id="path7945"
           d="m 1048.6,411.16 v 2.69 l -0.1,2.71 -0.2,2.71 -0.3,2.71 -0.4,2.7 -0.5,2.69 -0.6,2.67 -0.8,2.64 -0.8,2.6 -0.4,1.28 -0.5,1.27 -0.6,1.27 -0.5,1.24 -0.6,1.23 -0.6,1.22 -0.7,1.2 -0.6,1.19 -0.8,1.16 -0.7,1.15 -0.8,1.12 -0.8,1.11 -0.9,1.09 -0.9,1.06 c -0.7,0.79 -2.6,2.73 -3.7,3.78 -0.4,0.31 -0.5,0.31 -1.1,0.31 -0.5,0 -1,0 -1,-0.5 0,-0.2 0.2,-0.41 0.3,-0.5 1.7,-1.75 4.4,-4.48 7.5,-9.97 5.4,-9.56 7.4,-21.87 7.4,-33.83 0,-21.62 -6,-34.82 -15,-43.93 -0.1,-0.11 -0.2,-0.25 -0.2,-0.41 0,-0.5 0.5,-0.5 1,-0.5 0.6,0 0.7,0 1.2,0.41 4.7,4.07 10,11 13.5,21.51 2.2,6.83 3.2,14.91 3.2,22.92 z"
           style="fill:#ffffff;fill-opacity:1;stroke-width:0"
           inkscape:connector-curvature="0" /><path
           id="path7947"
           d="m 1071.7,410.28 0.1,1.04 c 0.3,7.43 4.5,8.66 6.2,8.66 5.1,0 5.6,-6.72 5.6,-8.66 h -11.8 l -0.1,-1.04 h 13.9 c 1.1,0 1.3,0 1.3,1.04 0,4.93 -2.7,9.75 -8.9,9.75 -5.8,0 -10.4,-5.12 -10.4,-11.36 0,-6.67 5.2,-11.5 11,-11.5 6,0 8.3,5.54 8.3,6.47 0,0.5 -0.4,0.61 -0.7,0.61 -0.4,0 -0.5,-0.29 -0.6,-0.7 -1.8,-5.13 -6.2,-5.13 -6.7,-5.13 -2.5,0 -4.5,1.49 -5.7,3.33 -1.5,2.39 -1.5,5.69 -1.5,7.49 z"
           style="fill:#ffffff;fill-opacity:1;stroke-width:0"
           inkscape:connector-curvature="0" /><path
           id="path7949"
           d="m 1102.6,410.46 0.3,0.37 0.2,0.37 0.3,0.38 0.4,0.38 0.6,0.78 0.3,0.39 0.3,0.38 0.3,0.37 0.3,0.37 0.3,0.35 0.2,0.34 0.2,0.17 0.1,0.16 0.1,0.15 0.2,0.15 0.1,0.14 0.1,0.14 0.1,0.13 0.2,0.13 c 1.5,1.78 3.6,2.53 5.9,2.57 v 1.55 c -1.3,-0.09 -2.8,-0.14 -4.1,-0.14 -1.5,0 -4.1,0.09 -4.8,0.14 v -1.55 c 1.1,-0.09 1.5,-0.73 1.5,-1.53 0,-0.79 -0.5,-1.45 -0.8,-1.75 l -3.1,-3.89 -3.9,5.03 c -0.4,0.5 -0.4,0.61 -0.4,0.91 0,0.75 0.7,1.19 1.7,1.23 v 1.55 c -1.3,-0.05 -4.5,-0.14 -5.3,-0.14 -1.1,0 -3.4,0.05 -4.8,0.14 v -1.55 c 3.5,0 3.6,-0.04 5.9,-3.03 l 4.9,-6.42 -4.7,-5.94 c -2.3,-2.89 -5.3,-2.98 -6.3,-2.98 v -1.55 c 1.3,0.1 2.8,0.16 4.1,0.16 1.4,0 3.5,-0.11 4.8,-0.16 v 1.55 c -1.1,0.14 -1.5,0.8 -1.5,1.55 0,1.09 1.5,2.73 4.5,6.32 l 3.8,-4.98 c 0.4,-0.55 1,-1.34 1,-1.64 0,-0.45 -0.4,-1.2 -1.8,-1.25 v -1.55 c 1.5,0.05 4.3,0.16 5.4,0.16 1.3,0 3.3,-0.06 4.8,-0.16 v 1.55 c -2.7,0 -3.6,0.09 -4.8,1.55 z"
           style="fill:#ffffff;fill-opacity:1;stroke-width:0"
           inkscape:connector-curvature="0" /><path
           id="path7951"
           d="m 1123.1,417.5 v 3.28 l -7.2,-0.55 v -1.55 c 3.6,0 3.9,-0.29 3.9,-2.48 v -23.31 c 0,-2.25 -0.5,-2.25 -3.9,-2.25 v -1.55 c 1.8,0.06 4.3,0.16 5.6,0.16 1.4,0 3.9,-0.1 5.7,-0.16 v 1.55 c -3.4,0 -3.9,0 -3.9,2.25 v 8.36 0.45 l 0.7,0.66 c -0.7,1.04 -0.7,1.09 -0.7,2.07 v 0 11.13 c 1.4,2.53 3.9,3.98 6.4,3.98 3.6,0 6.7,-4.39 6.7,-10.01 0,-6.03 -3.5,-10.22 -7.2,-10.22 -2,0 -3.9,1 -5.2,3.05 l -0.7,-0.66 c 0.2,-0.8 2.3,-3.49 6.1,-3.49 5.9,0 11.1,4.88 11.1,11.32 0,6.33 -4.8,11.25 -10.4,11.25 -3.9,0 -6,-2.19 -7,-3.28 z"
           style="fill:#ffffff;fill-opacity:1;stroke-width:0"
           inkscape:connector-curvature="0" /><path
           id="path7953"
           d="m 1171.1,381.83 v 0.02 0.01 0.02 0.02 0.02 0.01 0.02 0.01 0.02 0.01 0.02 0.01 0.01 0.02 0.01 0.01 0.03 l -0.1,0.02 v 0.03 0.02 0.03 0.03 0.02 l -0.1,0.03 c -2.3,2.44 -5.6,6.49 -7.7,14.6 -1.2,4.53 -1.6,9.67 -1.6,14.29 0,13.11 3.1,22.28 9.1,28.75 0.4,0.46 0.4,0.55 0.4,0.66 0,0.5 -0.4,0.5 -0.6,0.5 -0.7,0 -3.4,-3 -4.1,-3.75 -5,-6.02 -8.3,-14.99 -8.3,-26.1 0,-7.07 1.3,-17.09 7.8,-25.51 0.5,-0.6 3.7,-4.39 4.6,-4.39 0.2,0 0.6,0 0.6,0.5 z"
           style="fill:#ffffff;fill-opacity:1;stroke-width:0"
           inkscape:connector-curvature="0" /><path
           id="path7955"
           d="m 1206.2,410.21 0.1,0.01 h 0.2 0.2 v 0.01 h 0.1 l 0.1,0.01 0.1,0.01 v 0.01 l 0.1,0.01 0.1,0.01 0.1,0.02 v 0.02 l 0.1,0.02 v 0.02 l 0.1,0.03 0.1,0.03 v 0.04 l 0.1,0.04 v 0.04 0.05 l 0.1,0.05 v 0.02 0.03 0.03 l 0.1,0.03 v 0.03 0.04 0.03 0.03 0.04 0.04 0.04 0.04 0.04 0.04 0.05 0.04 c 0,1 -0.9,1 -1.7,1 h -27 c -0.8,0 -1.7,0 -1.7,-1 0,-1 0.9,-1 1.7,-1 z"
           style="fill:#ffffff;fill-opacity:1;stroke-width:0"
           inkscape:connector-curvature="0" /><path
           id="path7957"
           d="m 1233.9,395 v -0.38 -0.37 l -0.1,-0.72 -0.1,-0.68 v -0.65 l -0.1,-0.61 -0.1,-0.59 -0.1,-0.55 -0.1,-0.53 -0.2,-0.49 -0.1,-0.47 -0.1,-0.44 -0.2,-0.41 -0.1,-0.38 -0.2,-0.36 -0.1,-0.33 -0.2,-0.31 -0.1,-0.29 -0.2,-0.26 -0.2,-0.24 -0.2,-0.21 -0.2,-0.2 -0.2,-0.17 -0.2,-0.16 -0.2,-0.13 -0.2,-0.12 -0.2,-0.1 -0.3,-0.08 -0.2,-0.07 -0.3,-0.05 -0.2,-0.03 -0.3,-0.02 -0.2,-0.01 c -0.7,0 -2.2,0.14 -3.2,1.05 1.4,0.18 1.8,1.34 1.8,2.03 0,1.45 -1.1,2.09 -2,2.09 -1,0 -2.1,-0.64 -2.1,-2.14 0,-2.39 2.5,-4.12 5.5,-4.12 4.7,0 7.1,4.32 8.2,8.81 0.6,2.59 2.4,17.09 2.8,22.61 l 1,12.4 c 0.7,9.18 2.4,10.43 4.6,10.43 0.5,0 2,-0.11 3.1,-1.05 -1.4,-0.2 -1.8,-1.34 -1.8,-2.05 0,-1.44 1.1,-2.09 2.1,-2.09 1,0 2,0.65 2,2.14 0,2.39 -2.5,4.14 -5.4,4.14 -4.8,0 -6.7,-4.83 -7.6,-8.63 -0.6,-2.73 -2.4,-16.78 -2.8,-22.81 z"
           style="fill:#ffffff;fill-opacity:1;stroke-width:0"
           inkscape:connector-curvature="0" /><path
           id="path7959"
           d="m 1273.4,416.25 0.1,0.1 v 0.1 0.11 0.11 l 0.1,0.12 v 0.12 l 0.1,0.24 v 0.25 l 0.1,0.25 v 0.25 l 0.1,0.24 v 0.12 l 0.1,0.11 v 0.11 0.11 0.11 l 0.1,0.09 v 0.1 0.09 0.08 0.08 0.07 0.06 l 0.1,0.05 v 0.05 0.04 0.01 0.01 c 0,0.85 -0.6,1.35 -1.5,1.35 -0.1,0 -1.5,-0.05 -2,-1.78 l -7.1,-28.86 c -0.2,-0.6 -0.2,-0.69 -0.2,-0.8 0,-0.73 0.6,-1.34 1.4,-1.34 1.1,0 1.6,0.9 1.8,1.04 0.2,0.46 0.8,3.05 2.7,10.72 1.6,-1.34 3.8,-1.55 4.8,-1.55 3.5,0 5.5,2.24 6.7,3.65 0.4,-2.25 2.3,-3.65 4.4,-3.65 1.8,0 2.9,1.15 3.7,2.74 0.9,1.8 1.5,4.84 1.5,4.94 0,0.5 -0.4,0.5 -0.6,0.5 -0.5,0 -0.5,-0.21 -0.7,-0.91 -0.8,-3.23 -1.7,-6.17 -3.8,-6.17 -1.3,0 -1.5,1.3 -1.5,2.3 0,1.09 0.6,3.43 1,5.17 l 1.4,5.39 c 0.2,0.75 0.7,2.64 0.9,3.39 0.2,1.14 0.7,3.03 0.7,3.33 0,0.9 -0.7,1.34 -1.4,1.34 -0.3,0 -1.6,-0.05 -2,-1.73 l -2.3,-9.33 c -0.6,-2.49 -1.2,-4.58 -1.3,-5.08 0,-0.25 -2.4,-4.78 -6.5,-4.78 -2.5,0 -3.7,1.64 -3.7,4.33 0,1.45 0.4,2.84 0.7,4.25 z"
           style="fill:#ffffff;fill-opacity:1;stroke-width:0"
           inkscape:connector-curvature="0" /><path
           id="path7961"
           d="m 1317.6,432.79 v 0.01 0 0.01 0.01 0.01 0.01 0.02 0.02 0.02 0.02 0.02 0.02 0.03 0.02 0.03 0.02 l -0.1,0.02 v 0.03 0.02 0.03 0.02 0.01 l -0.1,0.01 v 0.01 0.01 0.01 0.01 0.01 l -0.1,0.01 v 0.01 0.01 0.01 0 0.01 l -0.1,0.01 v 0 0.01 0 l -0.1,0.01 v 0 0 0.01 h -0.1 v 0 0 c -0.8,0 -5.5,-0.45 -6.3,-0.55 -0.5,-0.04 -0.8,-0.29 -0.8,-0.95 0,-0.59 0.5,-0.59 1.3,-0.59 2.3,0 2.4,-0.35 2.4,-0.85 l -0.1,-1 -3,-11.81 c -0.9,1.84 -2.3,3.19 -4.6,3.19 l 0.1,-1.1 c 3.2,0 3.9,-4.07 3.9,-4.37 0,-0.31 -0.1,-0.61 -0.1,-0.86 l -2.5,-9.77 c -0.3,-0.89 -0.3,-0.98 -1,-1.84 -2.2,-2.73 -4.3,-3.53 -5.7,-3.53 -2.4,0 -3.2,2.73 -3.2,4.69 0,2.48 1.6,8.61 2.8,10.9 1.5,2.94 3.8,4.78 5.8,4.78 l -0.1,1.1 c -5.8,0 -12,-7.32 -12,-14.6 0,-4.68 2.8,-7.97 6.6,-7.97 1,0 3.5,0.21 6.5,3.74 0.4,-2.09 2.2,-3.74 4.5,-3.74 1.8,0 2.9,1.15 3.7,2.74 0.9,1.8 1.5,4.84 1.5,4.94 0,0.5 -0.4,0.5 -0.6,0.5 -0.5,0 -0.5,-0.21 -0.7,-0.91 -0.8,-3.23 -1.7,-6.17 -3.7,-6.17 -1.4,0 -1.5,1.3 -1.5,2.3 0,1.18 0,1.54 0.2,2.39 z"
           style="fill:#ffffff;fill-opacity:1;stroke-width:0"
           inkscape:connector-curvature="0" /><path
           id="path7963"
           d="m 1330.7,432.79 v 0.01 0 0.01 0.01 0.01 0.01 0.02 0.02 0.02 0.02 0.02 0.02 0.03 0.02 l -0.1,0.03 v 0.02 0.02 0.03 0.02 0.03 l -0.1,0.02 v 0.01 0.01 0.01 0.01 0.01 0.01 l -0.1,0.01 v 0.01 0.01 0.01 0.01 h -0.1 v 0.01 0.01 0 0.01 h -0.1 v 0.01 0 0 l -0.1,0.01 v 0 0 h -0.1 c -1.1,0 -4.7,-0.41 -6,-0.5 -0.4,-0.05 -1,-0.09 -1,-1.05 0,-0.54 0.5,-0.54 1.3,-0.54 2.4,0 2.4,-0.46 2.4,-0.85 l -0.1,-1 -6.3,-24.9 c -0.2,-0.55 -0.3,-0.91 -0.3,-1.71 0,-2.83 2.2,-4.58 4.6,-4.58 1.6,0 2.8,1 3.7,2.79 0.9,1.9 1.5,4.79 1.5,4.89 0,0.5 -0.5,0.5 -0.6,0.5 -0.5,0 -0.5,-0.21 -0.7,-0.91 -0.8,-3.23 -1.8,-6.17 -3.8,-6.17 -1.5,0 -1.5,1.59 -1.5,2.3 0,1.18 0.1,1.43 0.3,2.39 z"
           style="fill:#ffffff;fill-opacity:1;stroke-width:0"
           inkscape:connector-curvature="0" /><path
           id="path7965"
           d="m 1348.9,411.17 v 1.36 l -0.1,1.43 -0.1,1.47 -0.1,1.53 -0.2,1.57 -0.3,1.61 -0.3,1.63 -0.4,1.66 -0.2,0.83 -0.2,0.84 -0.3,0.84 -0.3,0.84 -0.3,0.84 -0.3,0.84 -0.4,0.84 -0.3,0.84 -0.4,0.84 -0.5,0.83 -0.4,0.83 -0.5,0.82 -0.5,0.82 -0.5,0.81 -0.6,0.8 -0.6,0.8 c -0.5,0.59 -3.7,4.39 -4.6,4.39 -0.3,0 -0.6,-0.11 -0.6,-0.5 0,-0.2 0.1,-0.36 0.3,-0.5 2.4,-2.6 5.6,-6.63 7.6,-14.55 1.2,-4.53 1.6,-9.67 1.6,-14.3 0,-5.03 -0.4,-10.12 -1.7,-15 -1.9,-6.98 -4.8,-10.96 -7.4,-13.75 -0.4,-0.45 -0.4,-0.54 -0.4,-0.65 0,-0.39 0.3,-0.5 0.6,-0.5 0.7,0 3.5,3.05 4.1,3.75 5,6.01 8.3,14.98 8.3,26.09 z"
           style="fill:#ffffff;fill-opacity:1;stroke-width:0"
           inkscape:connector-curvature="0" /></g>    </g>
  </g>
</svg>
