<?xml version="1.0" encoding="UTF-8" standalone="no"?>
<!-- Created with Inkscape (http://www.inkscape.org/) -->

<svg
   xmlns:dc="http://purl.org/dc/elements/1.1/"
   xmlns:cc="http://creativecommons.org/ns#"
   xmlns:rdf="http://www.w3.org/1999/02/22-rdf-syntax-ns#"
   xmlns:svg="http://www.w3.org/2000/svg"
   xmlns="http://www.w3.org/2000/svg"
   xmlns:xlink="http://www.w3.org/1999/xlink"
   xmlns:sodipodi="http://sodipodi.sourceforge.net/DTD/sodipodi-0.dtd"
   xmlns:inkscape="http://www.inkscape.org/namespaces/inkscape"
   width="210mm"
   height="297mm"
   viewBox="0 0 210 297"
   version="1.1"
   id="svg8"
   inkscape:version="0.92.1 r"
   sodipodi:docname="radon.svg"
   inkscape:export-filename="/home/pepe/Papers/PyConES2017/Presentation/images/radon.png"
   inkscape:export-xdpi="100.01"
   inkscape:export-ydpi="100.01">
  <sodipodi:namedview
     id="base"
     pagecolor="#ffffff"
     bordercolor="#666666"
     borderopacity="1.0"
     inkscape:pageopacity="0.0"
     inkscape:pageshadow="2"
     inkscape:zoom="0.35"
     inkscape:cx="-380.47427"
     inkscape:cy="305.82081"
     inkscape:document-units="mm"
     inkscape:current-layer="layer1"
     showgrid="false"
     inkscape:window-width="1920"
     inkscape:window-height="1006"
     inkscape:window-x="0"
     inkscape:window-y="0"
     inkscape:window-maximized="1" />
  <defs
     id="defs2">
    <marker
       inkscape:isstock="true"
       style="overflow:visible;"
       id="marker5224"
       refX="0.0"
       refY="0.0"
       orient="auto"
       inkscape:stockid="Arrow1Lend">
      <path
         transform="scale(0.8) rotate(180) translate(12.5,0)"
         style="fill-rule:evenodd;stroke:#000000;stroke-width:1pt;stroke-opacity:1;fill:#000000;fill-opacity:1"
         d="M 0.0,0.0 L 5.0,-5.0 L -12.5,0.0 L 5.0,5.0 L 0.0,0.0 z "
         id="path5222" />
    </marker>
    <marker
       inkscape:isstock="true"
       style="overflow:visible;"
       id="marker7178"
       refX="0.0"
       refY="0.0"
       orient="auto"
       inkscape:stockid="Arrow1Mend">
      <path
         transform="scale(0.4) rotate(180) translate(10,0)"
         style="fill-rule:evenodd;stroke:#000000;stroke-width:1pt;stroke-opacity:1;fill:#000000;fill-opacity:1"
         d="M 0.0,0.0 L 5.0,-5.0 L -12.5,0.0 L 5.0,5.0 L 0.0,0.0 z "
         id="path7176" />
    </marker>
    <marker
       inkscape:isstock="true"
       style="overflow:visible"
       id="marker7120"
       refX="0.0"
       refY="0.0"
       orient="auto"
       inkscape:stockid="Arrow1Mstart">
      <path
         transform="scale(0.4) translate(10,0)"
         style="fill-rule:evenodd;stroke:#000000;stroke-width:1pt;stroke-opacity:1;fill:#000000;fill-opacity:1"
         d="M 0.0,0.0 L 5.0,-5.0 L -12.5,0.0 L 5.0,5.0 L 0.0,0.0 z "
         id="path7118" />
    </marker>
    <marker
       inkscape:stockid="Arrow1Lend"
       orient="auto"
       refY="0.0"
       refX="0.0"
       id="marker7062"
       style="overflow:visible;"
       inkscape:isstock="true">
      <path
         id="path7060"
         d="M 0.0,0.0 L 5.0,-5.0 L -12.5,0.0 L 5.0,5.0 L 0.0,0.0 z "
         style="fill-rule:evenodd;stroke:#000000;stroke-width:1pt;stroke-opacity:1;fill:#000000;fill-opacity:1"
         transform="scale(0.8) rotate(180) translate(12.5,0)" />
    </marker>
    <marker
       inkscape:isstock="true"
       style="overflow:visible;"
       id="marker7010"
       refX="0.0"
       refY="0.0"
       orient="auto"
       inkscape:stockid="Arrow1Lend">
      <path
         transform="scale(0.8) rotate(180) translate(12.5,0)"
         style="fill-rule:evenodd;stroke:#000000;stroke-width:1pt;stroke-opacity:1;fill:#000000;fill-opacity:1"
         d="M 0.0,0.0 L 5.0,-5.0 L -12.5,0.0 L 5.0,5.0 L 0.0,0.0 z "
         id="path7008" />
    </marker>
    <marker
       inkscape:stockid="Arrow1Mend"
       orient="auto"
       refY="0.0"
       refX="0.0"
       id="Arrow1Mend"
       style="overflow:visible;"
       inkscape:isstock="true"
       inkscape:collect="always">
      <path
         id="path5950"
         d="M 0.0,0.0 L 5.0,-5.0 L -12.5,0.0 L 5.0,5.0 L 0.0,0.0 z "
         style="fill-rule:evenodd;stroke:#000000;stroke-width:1pt;stroke-opacity:1;fill:#000000;fill-opacity:1"
         transform="scale(0.4) rotate(180) translate(10,0)" />
    </marker>
    <marker
       inkscape:stockid="Arrow1Mstart"
       orient="auto"
       refY="0.0"
       refX="0.0"
       id="Arrow1Mstart"
       style="overflow:visible"
       inkscape:isstock="true"
       inkscape:collect="always">
      <path
         id="path5947"
         d="M 0.0,0.0 L 5.0,-5.0 L -12.5,0.0 L 5.0,5.0 L 0.0,0.0 z "
         style="fill-rule:evenodd;stroke:#000000;stroke-width:1pt;stroke-opacity:1;fill:#000000;fill-opacity:1"
         transform="scale(0.4) translate(10,0)" />
    </marker>
    <marker
       inkscape:isstock="true"
       style="overflow:visible;"
       id="marker6840"
       refX="0.0"
       refY="0.0"
       orient="auto"
       inkscape:stockid="Arrow1Lend"
       inkscape:collect="always">
      <path
         transform="scale(0.8) rotate(180) translate(12.5,0)"
         style="fill-rule:evenodd;stroke:#000000;stroke-width:1pt;stroke-opacity:1;fill:#000000;fill-opacity:1"
         d="M 0.0,0.0 L 5.0,-5.0 L -12.5,0.0 L 5.0,5.0 L 0.0,0.0 z "
         id="path6838" />
    </marker>
    <marker
       inkscape:isstock="true"
       style="overflow:visible;"
       id="marker6227"
       refX="0.0"
       refY="0.0"
       orient="auto"
       inkscape:stockid="Arrow1Lend"
       inkscape:collect="always">
      <path
         transform="scale(0.8) rotate(180) translate(12.5,0)"
         style="fill-rule:evenodd;stroke:#000000;stroke-width:1pt;stroke-opacity:1;fill:#000000;fill-opacity:1"
         d="M 0.0,0.0 L 5.0,-5.0 L -12.5,0.0 L 5.0,5.0 L 0.0,0.0 z "
         id="path6225" />
    </marker>
    <marker
       inkscape:stockid="Arrow1Lend"
       orient="auto"
       refY="0.0"
       refX="0.0"
       id="Arrow1Lend"
       style="overflow:visible;"
       inkscape:isstock="true"
       inkscape:collect="always">
      <path
         id="path5944"
         d="M 0.0,0.0 L 5.0,-5.0 L -12.5,0.0 L 5.0,5.0 L 0.0,0.0 z "
         style="fill-rule:evenodd;stroke:#000000;stroke-width:1pt;stroke-opacity:1;fill:#000000;fill-opacity:1"
         transform="scale(0.8) rotate(180) translate(12.5,0)" />
    </marker>
    <pattern
       inkscape:collect="always"
       xlink:href="#Strips1_1.5"
       id="pattern5937"
       patternTransform="matrix(0.61231192,-0.61231192,0.61231192,0.61231192,19.803583,37.866197)" />
    <pattern
       inkscape:isstock="true"
       inkscape:stockid="Stripes 1:1.5"
       id="Strips1_1.5"
       patternTransform="translate(0,0) scale(10,10)"
       height="1"
       width="2.5"
       patternUnits="userSpaceOnUse"
       inkscape:collect="always">
      <rect
         id="rect5211"
         height="2"
         width="1"
         y="-0.5"
         x="0"
         style="fill:black;stroke:none" />
    </pattern>
  </defs>
  <metadata
     id="metadata5">
    <rdf:RDF>
      <cc:Work
         rdf:about="">
        <dc:format>image/svg+xml</dc:format>
        <dc:type
           rdf:resource="http://purl.org/dc/dcmitype/StillImage" />
        <dc:title />
      </cc:Work>
    </rdf:RDF>
  </metadata>
  <g
     inkscape:label="Layer 1"
     inkscape:groupmode="layer"
     id="layer1">
    <path
       style="fill:none;fill-opacity:1;stroke:#000000;stroke-width:0.25;stroke-linecap:round;stroke-miterlimit:4;stroke-dasharray:none;stroke-dashoffset:0;stroke-opacity:1"
       d="m 35.061425,245.30231 -22.512836,12.99765 h 26.027868 a 26.027416,26.027416 0 0 0 0,-5.3e-4 26.027416,26.027416 0 0 0 -3.515032,-12.99712 z"
       id="path6972"
       inkscape:connector-curvature="0" />
    <path
       style="fill:url(#pattern5937);fill-opacity:1;stroke:#000000;stroke-width:0.3759397;stroke-linecap:butt;stroke-linejoin:miter;stroke-miterlimit:4;stroke-dasharray:none;stroke-opacity:1"
       d="m 92.147185,195.26134 c 20.095455,0 42.200445,-10.85154 38.181355,-22.9088 -4.01909,-12.05727 -10.04772,-23.71263 -2.81337,-34.96608 7.23437,-11.25345 14.46873,-24.91835 3.61719,-30.14316 -10.85154,-5.22484 -38.181357,-18.487847 -49.836716,-9.645847 -11.655358,8.842027 -31.750802,32.956557 -21.703081,48.229097 10.047723,15.27253 33.35844,15.67444 29.339351,27.73171 -4.019091,12.05727 -12.861086,21.70308 3.215271,21.70308 z"
       id="path4487"
       inkscape:connector-curvature="0" />
    <g
       id="g6789"
       transform="translate(1.5875,4.7625002)">
      <path
         inkscape:connector-curvature="0"
         id="path5939"
         d="M 10.961309,253.53734 V 214.22782"
         style="fill:none;stroke:#000000;stroke-width:0.5;stroke-linecap:butt;stroke-linejoin:miter;stroke-miterlimit:4;stroke-dasharray:none;stroke-opacity:1;marker-end:url(#Arrow1Lend)" />
      <path
         style="fill:none;stroke:#000000;stroke-width:0.5;stroke-linecap:butt;stroke-linejoin:miter;stroke-miterlimit:4;stroke-dasharray:none;stroke-opacity:1;marker-end:url(#marker6227)"
         d="m 10.961309,253.53734 h 39.30952"
         id="path6223"
         inkscape:connector-curvature="0" />
      <text
         id="text6777"
         y="215.89087"
         x="15.874999"
         style="font-style:normal;font-weight:normal;font-size:10.58333302px;line-height:1.25;font-family:sans-serif;letter-spacing:0px;word-spacing:0px;fill:#000000;fill-opacity:1;stroke:none;stroke-width:0.26458332"
         xml:space="preserve"><tspan
           style="stroke-width:0.26458332"
           y="215.89087"
           x="15.874999"
           id="tspan6775"
           sodipodi:role="line">y</tspan></text>
      <text
         id="text6781"
         y="265.6326"
         x="48.456543"
         style="font-style:normal;font-weight:normal;font-size:10.58333302px;line-height:1.25;font-family:sans-serif;letter-spacing:0px;word-spacing:0px;fill:#000000;fill-opacity:1;stroke:none;stroke-width:0.26458332"
         xml:space="preserve"><tspan
           style="stroke-width:0.26458332"
           y="265.6326"
           x="48.456543"
           id="tspan6779"
           sodipodi:role="line">x</tspan></text>
    </g>
    <g
       id="g6828"
       transform="translate(-3.7041669,40.74584)"
       style="fill:none">
      <circle
         r="19.777945"
         cy="235.26073"
         cx="160.09444"
         id="path6810"
         style="fill:none;fill-opacity:1;stroke:#000000;stroke-width:0.5;stroke-miterlimit:4;stroke-dasharray:none;stroke-dashoffset:0;stroke-opacity:1" />
      <path
         inkscape:connector-curvature="0"
         id="path6812"
         d="m 163.03441,219.09093 c 6.57719,1.76235 10.57025,8.05038 11.49259,11.49259"
         style="fill:none;stroke:#000000;stroke-width:4;stroke-linecap:round;stroke-linejoin:miter;stroke-miterlimit:4;stroke-dasharray:none;stroke-opacity:1" />
      <path
         inkscape:connector-curvature="0"
         id="path6814"
         d="m 175.72971,236.59708 c 0,2.13816 0,2.80633 -0.93544,4.40995"
         style="fill:none;stroke:#000000;stroke-width:4;stroke-linecap:round;stroke-linejoin:miter;stroke-miterlimit:4;stroke-dasharray:none;stroke-opacity:1" />
      <path
         inkscape:connector-curvature="0"
         id="path6816"
         d="M 153.08036,252.96577 V 234.06696"
         style="fill:none;stroke:#000000;stroke-width:1;stroke-linecap:butt;stroke-linejoin:miter;stroke-miterlimit:4;stroke-dasharray:none;stroke-opacity:1" />
      <path
         style="fill:none;stroke:#000000;stroke-width:1;stroke-linecap:butt;stroke-linejoin:miter;stroke-miterlimit:4;stroke-dasharray:none;stroke-opacity:1"
         d="M 167.89703,252.96577 V 234.06696"
         id="path6818"
         inkscape:connector-curvature="0" />
      <path
         inkscape:connector-curvature="0"
         id="path6820"
         d="m 153.08036,234.06696 c 0,-4.55252 3.27231,-4.15161 3.27231,0.25833 0,4.40995 -0.53454,3.34087 -1.20271,3.34087 -0.66818,0 0.53454,-6.81537 2.80633,-6.81537 2.27179,0 3.74177,6.81537 1.87088,6.81537 -1.87088,0 -0.8018,-6.5481 1.73726,-6.5481 2.53906,0 4.00904,6.5481 1.87088,6.5481 -2.13815,0 -0.80181,-6.41447 1.33635,-6.41447 2.13816,0 3.12537,2.81527 3.12537,2.81527"
         style="fill:none;stroke:#000000;stroke-width:0.26458332px;stroke-linecap:butt;stroke-linejoin:miter;stroke-opacity:1" />
    </g>
    <path
       style="fill:none;stroke:#000000;stroke-width:1;stroke-linecap:butt;stroke-linejoin:miter;stroke-miterlimit:4;stroke-dasharray:none;stroke-opacity:1;marker-end:url(#marker6840)"
       d="M 148.05121,253.65401 44.719854,74.678844"
       id="path6830"
       inkscape:connector-curvature="0" />
    <path
       style="fill:none;stroke:#000000;stroke-width:0.5;stroke-linecap:butt;stroke-linejoin:miter;stroke-miterlimit:4;stroke-dasharray:none;stroke-opacity:1;marker-start:url(#Arrow1Mstart);marker-end:url(#Arrow1Mend)"
       d="M 12.54881,258.29987 115.70898,198.74032"
       id="path6878"
       inkscape:connector-curvature="0" />
    <text
       xml:space="preserve"
       style="font-style:normal;font-weight:normal;font-size:10.58333302px;line-height:1.25;font-family:sans-serif;letter-spacing:0px;word-spacing:0px;fill:#000000;fill-opacity:1;stroke:none;stroke-width:0.26458332"
       x="59.852257"
       y="226.6597"
       id="text6970"><tspan
         sodipodi:role="line"
         id="tspan6968"
         x="59.852257"
         y="226.6597"
         style="font-style:italic;font-variant:normal;font-weight:normal;font-stretch:normal;font-family:sans-serif;-inkscape-font-specification:'sans-serif Italic';stroke-width:0.26458332">s</tspan></text>
    <g
       transform="translate(-42.862502,152.40006)"
       id="g4624">
      <g
         style="font-style:normal;font-variant:normal;font-weight:normal;font-stretch:normal;letter-spacing:normal;word-spacing:normal;text-anchor:start;fill:none;fill-opacity:1;fill-rule:evenodd;stroke:#000000;stroke-linecap:butt;stroke-linejoin:miter;stroke-miterlimit:10.43299961;stroke-dasharray:none;stroke-dashoffset:0;stroke-opacity:1"
         id="content"
         transform="matrix(0.3,0,0,-0.3,-52.5,222.75)"
         xml:space="preserve"
         stroke-miterlimit="10.433"
         font-style="normal"
         font-variant="normal"
         font-weight="normal"
         font-stretch="normal"
         font-size-adjust="none"
         letter-spacing="normal"
         word-spacing="normal"><path
           style="fill:#000000;stroke-width:0"
           inkscape:connector-curvature="0"
           d="m 479.29,417.96 -0.01,0.37 -0.01,0.35 -0.02,0.35 -0.02,0.34 -0.06,0.65 -0.09,0.63 -0.11,0.59 -0.14,0.57 -0.15,0.54 -0.18,0.51 -0.19,0.49 -0.21,0.45 -0.23,0.44 -0.25,0.4 -0.26,0.38 -0.27,0.36 -0.29,0.33 -0.3,0.31 -0.31,0.29 -0.31,0.26 -0.33,0.24 -0.34,0.22 -0.34,0.2 -0.35,0.18 -0.35,0.16 -0.36,0.14 -0.35,0.12 -0.36,0.11 -0.37,0.09 -0.36,0.06 -0.36,0.06 -0.35,0.04 -0.35,0.02 h -0.35 l -0.05,-1.09 c 4.94,0 4.94,-6.53 4.94,-10.41 0,-1.84 0,-4.73 0.09,-5.57 v 0 c -4.37,-3.85 -8.22,-4.39 -10.2,-4.39 -3,0 -4.49,2.25 -4.49,5.43 0,2.44 1.3,7.82 2.89,10.36 2.33,3.64 5.04,4.58 6.77,4.58 l 0.05,1.09 c -6.82,0 -13.39,-7.12 -13.39,-14.14 0,-4.64 2.98,-8.42 8.06,-8.42 3.14,0 6.73,1.14 10.51,4.19 0.66,-2.64 2.3,-4.19 4.54,-4.19 2.64,0 4.18,2.74 4.18,3.53 0,0.36 -0.29,0.5 -0.59,0.5 -0.36,0 -0.5,-0.14 -0.66,-0.5 -0.89,-2.43 -2.68,-2.43 -2.78,-2.43 -1.54,0 -1.54,3.89 -1.54,5.07 0,1.05 0,1.16 0.5,1.75 4.68,5.88 5.73,11.66 5.73,11.71 0,0.11 -0.06,0.5 -0.61,0.5 -0.5,0 -0.5,-0.14 -0.75,-1.05 -0.89,-3.14 -2.53,-6.92 -4.87,-9.86 z"
           id="path4621" /></g>    </g>
    <g
       transform="translate(65.465477,146.12563)"
       id="g4840">
      <g
         style="font-style:normal;font-variant:normal;font-weight:normal;font-stretch:normal;letter-spacing:normal;word-spacing:normal;text-anchor:start;fill:none;fill-opacity:1;fill-rule:evenodd;stroke:#000000;stroke-linecap:butt;stroke-linejoin:miter;stroke-miterlimit:10.43299961;stroke-dasharray:none;stroke-dashoffset:0;stroke-opacity:1"
         id="g4838"
         transform="matrix(0.3,0,0,-0.3,-52.5,222.75)"
         xml:space="preserve"
         stroke-miterlimit="10.433"
         font-style="normal"
         font-variant="normal"
         font-weight="normal"
         font-stretch="normal"
         font-size-adjust="none"
         letter-spacing="normal"
         word-spacing="normal"><path
           style="fill:#000000;stroke-width:0"
           inkscape:connector-curvature="0"
           d="m 473.21,440.23 h -0.57 l -0.55,-0.01 -0.53,-0.02 -0.51,-0.02 -0.49,-0.03 -0.47,-0.03 -0.46,-0.04 -0.43,-0.04 -0.42,-0.04 -0.4,-0.05 -0.39,-0.05 -0.37,-0.06 -0.35,-0.06 -0.34,-0.06 -0.32,-0.06 -0.3,-0.06 -0.3,-0.07 -0.27,-0.06 -0.27,-0.07 -0.25,-0.07 -0.23,-0.06 -0.23,-0.07 -0.21,-0.07 -0.2,-0.06 -0.19,-0.06 -0.17,-0.06 -0.17,-0.06 -0.16,-0.06 -0.14,-0.05 -0.13,-0.05 -0.13,-0.05 -0.12,-0.04 c -5.07,-2.14 -6.23,-5.53 -6.23,-6.19 0,-0.34 0.25,-0.39 0.55,-0.39 0.9,0 3.29,1.25 3.68,2.34 0.61,1.89 0.75,2.35 4.1,2.78 1.69,0.21 3.33,0.3 5.03,0.3 h 4.53 c -3.14,-3.03 -4.58,-8.36 -6.37,-15.53 -1.46,-5.89 -2.6,-9.77 -4.64,-12.41 -0.5,-0.54 -0.55,-0.61 -1.9,-0.61 h -3.18 c -0.96,0 -1.5,0 -2.74,-0.73 -0.54,-0.31 -1.65,-1.16 -1.65,-1.66 0,-0.29 0.06,-0.34 1.15,-0.34 h 17.03 c 5.83,0 10.18,4.33 10.18,6.12 0,0.36 -0.41,0.36 -0.55,0.36 -0.86,0 -3.19,-1.15 -3.69,-2.4 -0.36,-1.03 -0.5,-1.35 -3,-1.35 h -9.51 c 3.54,3.05 5.03,7.99 6.73,14.75 1.34,5.44 2.53,10.27 4.58,13.32 0.3,0.43 0.36,0.48 1.34,0.48 h 4.24 c 1,0 1.45,0 2.75,0.75 0.43,0.25 1.59,1.05 1.59,1.64 0,0.31 -0.05,0.36 -1.16,0.36 z"
           id="path4834" /><path
           style="fill:#000000;stroke-width:0"
           inkscape:connector-curvature="0"
           d="m 500.62,409.87 v 0.71 l -0.02,0.68 -0.03,0.66 -0.04,0.64 -0.06,0.62 -0.07,0.6 -0.09,0.57 -0.11,0.56 -0.13,0.55 -0.15,0.53 -0.17,0.51 -0.19,0.5 -0.21,0.49 -0.24,0.48 -0.26,0.47 -0.14,0.23 -0.15,0.23 c -1.08,1.61 -3.23,3 -6.03,3 v -0.98 c 1.89,0 3.7,-1.14 4.33,-3.17 0.56,-1.88 0.59,-4.39 0.59,-7.43 0,-2.57 0,-5.15 -0.45,-7.34 -0.7,-3.17 -3.06,-3.94 -4.47,-3.94 v 0 c -1.59,0 -3.72,0.94 -4.42,3.8 -0.49,2.05 -0.49,4.91 -0.49,7.48 0,2.55 0,5.21 0.52,7.11 0.74,2.75 2.97,3.49 4.39,3.49 v 0.98 c -8.08,0 -8.08,-9.51 -8.08,-12.03 0,-2.5 0,-11.81 8.08,-11.81 8.09,0 8.09,9.31 8.09,11.81 z"
           id="path4836" /></g>    </g>
    <g
       id="g4982"
       transform="translate(-20.713094,-14.892259)">
      <g
         word-spacing="normal"
         letter-spacing="normal"
         font-size-adjust="none"
         font-stretch="normal"
         font-weight="normal"
         font-variant="normal"
         font-style="normal"
         stroke-miterlimit="10.433"
         xml:space="preserve"
         transform="matrix(0.3,0,0,-0.3,-52.5,222.75)"
         id="g4980"
         style="font-style:normal;font-variant:normal;font-weight:normal;font-stretch:normal;letter-spacing:normal;word-spacing:normal;text-anchor:start;fill:none;fill-opacity:1;fill-rule:evenodd;stroke:#000000;stroke-linecap:butt;stroke-linejoin:miter;stroke-miterlimit:10.43299961;stroke-dasharray:none;stroke-dashoffset:0;stroke-opacity:1"><path
           id="path4950"
           d="m 473.21,440.23 h -0.57 l -0.55,-0.01 -0.53,-0.02 -0.51,-0.02 -0.49,-0.03 -0.47,-0.03 -0.46,-0.04 -0.43,-0.04 -0.42,-0.04 -0.4,-0.05 -0.39,-0.05 -0.37,-0.06 -0.35,-0.06 -0.34,-0.06 -0.32,-0.06 -0.3,-0.06 -0.3,-0.07 -0.27,-0.06 -0.27,-0.07 -0.25,-0.07 -0.23,-0.06 -0.23,-0.07 -0.21,-0.07 -0.2,-0.06 -0.19,-0.06 -0.17,-0.06 -0.17,-0.06 -0.16,-0.06 -0.14,-0.05 -0.13,-0.05 -0.13,-0.05 -0.12,-0.04 c -5.07,-2.14 -6.23,-5.53 -6.23,-6.19 0,-0.34 0.25,-0.39 0.55,-0.39 0.9,0 3.29,1.25 3.68,2.34 0.61,1.89 0.75,2.35 4.1,2.78 1.69,0.21 3.33,0.3 5.03,0.3 h 4.53 c -3.14,-3.03 -4.58,-8.36 -6.37,-15.53 -1.46,-5.89 -2.6,-9.77 -4.64,-12.41 -0.5,-0.54 -0.55,-0.61 -1.9,-0.61 h -3.18 c -0.96,0 -1.5,0 -2.74,-0.73 -0.54,-0.31 -1.65,-1.16 -1.65,-1.66 0,-0.29 0.06,-0.34 1.15,-0.34 h 17.03 c 5.83,0 10.18,4.33 10.18,6.12 0,0.36 -0.41,0.36 -0.55,0.36 -0.86,0 -3.19,-1.15 -3.69,-2.4 -0.36,-1.03 -0.5,-1.35 -3,-1.35 h -9.51 c 3.54,3.05 5.03,7.99 6.73,14.75 1.34,5.44 2.53,10.27 4.58,13.32 0.3,0.43 0.36,0.48 1.34,0.48 h 4.24 c 1,0 1.45,0 2.75,0.75 0.43,0.25 1.59,1.05 1.59,1.64 0,0.31 -0.05,0.36 -1.16,0.36 z"
           inkscape:connector-curvature="0"
           style="fill:#000000;stroke-width:0" /><path
           id="path4952"
           d="m 534.39,422.5 h 0.14 0.14 0.15 l 0.07,0.01 h 0.07 l 0.08,0.01 0.07,0.01 0.07,0.01 0.07,0.01 0.07,0.01 0.06,0.02 0.07,0.02 0.06,0.02 0.06,0.02 0.06,0.03 0.05,0.03 0.06,0.04 0.05,0.03 0.04,0.05 0.05,0.04 0.04,0.05 0.02,0.03 0.01,0.03 0.02,0.02 0.02,0.03 0.01,0.03 0.01,0.04 0.01,0.03 0.02,0.04 0.01,0.03 v 0.04 l 0.01,0.04 0.01,0.04 v 0.04 l 0.01,0.04 v 0.04 0.05 c 0,1 -0.96,1 -1.64,1 h -29.85 c -0.7,0 -1.64,0 -1.64,-1 0,-0.98 0.94,-0.98 1.69,-0.98 z"
           inkscape:connector-curvature="0"
           style="fill:#000000;stroke-width:0" /><path
           id="path4954"
           d="m 534.44,412.82 h 0.06 0.07 l 0.14,0.01 h 0.13 0.07 l 0.07,0.01 0.07,0.01 h 0.07 l 0.07,0.01 0.07,0.02 0.07,0.01 0.06,0.02 0.06,0.02 0.07,0.02 0.06,0.02 0.05,0.03 0.06,0.03 0.05,0.04 0.05,0.04 0.05,0.04 0.04,0.05 0.02,0.02 0.02,0.03 0.02,0.02 0.01,0.03 0.02,0.03 0.02,0.03 0.01,0.03 0.01,0.03 0.01,0.04 0.02,0.03 0.01,0.04 v 0.04 l 0.01,0.04 0.01,0.04 v 0.04 l 0.01,0.04 v 0.05 0.04 c 0,1 -0.96,1 -1.69,1 h -29.75 c -0.75,0 -1.69,0 -1.69,-1 0,-1 0.94,-1 1.64,-1 z"
           inkscape:connector-curvature="0"
           style="fill:#000000;stroke-width:0" /><path
           id="path4956"
           d="m 570.52,440.23 h -0.57 l -0.54,-0.01 -0.53,-0.02 -0.51,-0.02 -0.49,-0.03 -0.48,-0.03 -0.45,-0.04 -0.44,-0.04 -0.41,-0.04 -0.41,-0.05 -0.38,-0.05 -0.37,-0.06 -0.35,-0.06 -0.34,-0.06 -0.32,-0.06 -0.31,-0.06 -0.29,-0.07 -0.28,-0.06 -0.26,-0.07 -0.25,-0.07 -0.24,-0.06 -0.22,-0.07 -0.21,-0.07 -0.2,-0.06 -0.19,-0.06 -0.18,-0.06 -0.16,-0.06 -0.16,-0.06 -0.14,-0.05 -0.14,-0.05 -0.12,-0.05 -0.12,-0.04 c -5.08,-2.14 -6.23,-5.53 -6.23,-6.19 0,-0.34 0.25,-0.39 0.54,-0.39 0.91,0 3.3,1.25 3.69,2.34 0.61,1.89 0.75,2.35 4.09,2.78 1.69,0.21 3.33,0.3 5.04,0.3 h 4.53 c -3.14,-3.03 -4.58,-8.36 -6.38,-15.53 -1.45,-5.89 -2.59,-9.77 -4.64,-12.41 -0.5,-0.54 -0.55,-0.61 -1.89,-0.61 h -3.19 c -0.95,0 -1.5,0 -2.73,-0.73 -0.55,-0.31 -1.66,-1.16 -1.66,-1.66 0,-0.29 0.07,-0.34 1.16,-0.34 h 17.03 c 5.83,0 10.17,4.33 10.17,6.12 0,0.36 -0.4,0.36 -0.54,0.36 -0.86,0 -3.19,-1.15 -3.69,-2.4 -0.36,-1.03 -0.5,-1.35 -3,-1.35 h -9.52 c 3.55,3.05 5.03,7.99 6.74,14.75 1.34,5.44 2.53,10.27 4.57,13.32 0.3,0.43 0.36,0.48 1.35,0.48 h 4.23 c 1,0 1.46,0 2.75,0.75 0.44,0.25 1.6,1.05 1.6,1.64 0,0.31 -0.05,0.36 -1.16,0.36 z"
           inkscape:connector-curvature="0"
           style="fill:#000000;stroke-width:0" /><path
           id="path4958"
           d="m 597.95,409.87 -0.01,0.71 -0.02,0.68 -0.03,0.66 -0.04,0.64 -0.06,0.62 -0.07,0.6 -0.09,0.57 -0.11,0.56 -0.13,0.55 -0.15,0.53 -0.17,0.51 -0.19,0.5 -0.21,0.49 -0.24,0.48 -0.26,0.47 -0.14,0.23 -0.15,0.23 c -1.08,1.61 -3.23,3 -6.03,3 v -0.98 c 1.89,0 3.7,-1.14 4.33,-3.17 0.56,-1.88 0.59,-4.39 0.59,-7.43 0,-2.57 0,-5.15 -0.45,-7.34 -0.7,-3.17 -3.06,-3.94 -4.47,-3.94 v 0 c -1.59,0 -3.72,0.94 -4.42,3.8 -0.48,2.05 -0.48,4.91 -0.48,7.48 0,2.55 0,5.21 0.51,7.11 0.74,2.75 2.97,3.49 4.39,3.49 v 0.98 c -8.08,0 -8.08,-9.51 -8.08,-12.03 0,-2.5 0,-11.81 8.08,-11.81 8.1,0 8.1,9.31 8.1,11.81 z"
           inkscape:connector-curvature="0"
           style="fill:#000000;stroke-width:0" /><path
           id="path4960"
           d="m 616.09,417.71 0.05,1.05 c 0.29,7.42 4.48,8.66 6.18,8.66 5.13,0 5.63,-6.72 5.63,-8.66 h -11.81 l -0.05,-1.05 H 630 c 1.09,0 1.23,0 1.23,1.05 0,4.92 -2.69,9.75 -8.91,9.75 -5.78,0 -10.37,-5.12 -10.37,-11.36 0,-6.67 5.23,-11.5 10.97,-11.5 6.08,0 8.31,5.53 8.31,6.47 0,0.5 -0.39,0.61 -0.64,0.61 -0.45,0 -0.55,-0.3 -0.66,-0.7 -1.73,-5.13 -6.21,-5.13 -6.71,-5.13 -2.5,0 -4.49,1.49 -5.63,3.33 -1.5,2.39 -1.5,5.69 -1.5,7.48 z"
           inkscape:connector-curvature="0"
           style="fill:#000000;stroke-width:0" /><path
           id="path4962"
           d="m 646.93,417.9 0.29,0.36 0.29,0.37 0.3,0.38 0.31,0.39 0.61,0.78 0.31,0.38 0.3,0.39 0.3,0.37 0.3,0.37 0.29,0.35 0.28,0.34 0.13,0.16 0.14,0.16 0.13,0.16 0.13,0.15 0.12,0.14 0.12,0.14 0.12,0.13 0.11,0.12 c 1.55,1.78 3.59,2.53 5.94,2.58 v 1.55 c -1.3,-0.1 -2.8,-0.14 -4.1,-0.14 -1.48,0 -4.12,0.09 -4.78,0.14 v -1.55 c 1.05,-0.09 1.46,-0.73 1.46,-1.53 0,-0.8 -0.5,-1.45 -0.75,-1.75 l -3.1,-3.89 -3.87,5.03 c -0.46,0.5 -0.46,0.61 -0.46,0.91 0,0.75 0.75,1.18 1.74,1.23 v 1.55 c -1.28,-0.05 -4.58,-0.14 -5.37,-0.14 -1.05,0 -3.4,0.04 -4.74,0.14 v -1.55 c 3.49,0 3.55,-0.05 5.87,-3.03 l 4.94,-6.42 -4.69,-5.94 c -2.38,-2.89 -5.32,-2.98 -6.37,-2.98 v -1.55 c 1.3,0.09 2.84,0.16 4.14,0.16 1.44,0 3.53,-0.11 4.73,-0.16 v 1.55 c -1.09,0.14 -1.45,0.79 -1.45,1.54 0,1.1 1.45,2.74 4.49,6.33 l 3.79,-4.98 c 0.39,-0.55 1.05,-1.35 1.05,-1.64 0,-0.46 -0.45,-1.21 -1.8,-1.25 v -1.55 c 1.49,0.05 4.29,0.16 5.38,0.16 1.34,0 3.29,-0.07 4.78,-0.16 v 1.55 c -2.69,0 -3.58,0.09 -4.74,1.54 z"
           inkscape:connector-curvature="0"
           style="fill:#000000;stroke-width:0" /><path
           id="path4964"
           d="m 667.48,424.93 v 3.28 l -7.18,-0.54 v -1.55 c 3.55,0 3.9,-0.3 3.9,-2.48 v -23.32 c 0,-2.25 -0.55,-2.25 -3.9,-2.25 v -1.54 c 1.71,0.06 4.29,0.15 5.58,0.15 1.35,0 3.89,-0.09 5.64,-0.15 v 1.54 c -3.34,0 -3.89,0 -3.89,2.25 v 8.36 0.46 l 0.71,0.65 c -0.71,1.05 -0.71,1.1 -0.71,2.08 v 0 11.13 c 1.44,2.53 3.89,3.98 6.42,3.98 3.65,0 6.69,-4.39 6.69,-10.02 0,-6.03 -3.5,-10.21 -7.19,-10.21 -1.98,0 -3.87,1 -5.21,3.04 l -0.71,-0.65 c 0.25,-0.8 2.35,-3.49 6.13,-3.49 5.94,0 11.11,4.88 11.11,11.31 0,6.33 -4.83,11.25 -10.41,11.25 -3.89,0 -5.98,-2.18 -6.98,-3.28 z"
           inkscape:connector-curvature="0"
           style="fill:#000000;stroke-width:0" /><path
           id="path4966"
           d="m 715.5,389.27 v 0.02 0.02 0.01 0.02 l -0.01,0.02 v 0.01 0.02 l -0.01,0.01 v 0.02 l -0.01,0.01 v 0.02 l -0.01,0.01 v 0.01 l -0.01,0.02 v 0.01 l -0.01,0.01 -0.02,0.03 -0.01,0.02 -0.02,0.03 -0.02,0.02 -0.01,0.03 -0.02,0.03 -0.02,0.02 -0.01,0.02 -0.01,0.01 c -2.3,2.44 -5.68,6.49 -7.77,14.6 -1.15,4.53 -1.59,9.67 -1.59,14.29 0,13.11 3.14,22.28 9.11,28.75 0.45,0.46 0.45,0.55 0.45,0.66 0,0.5 -0.41,0.5 -0.59,0.5 -0.75,0 -3.44,-3 -4.1,-3.75 -5.08,-6.02 -8.31,-14.98 -8.31,-26.09 0,-7.08 1.23,-17.1 7.77,-25.52 0.5,-0.59 3.73,-4.39 4.64,-4.39 0.18,0 0.59,0 0.59,0.5 z"
           inkscape:connector-curvature="0"
           style="fill:#000000;stroke-width:0" /><path
           id="path4968"
           d="m 750.67,417.65 h 0.16 0.16 l 0.15,0.01 h 0.08 l 0.08,0.01 h 0.07 l 0.08,0.01 0.07,0.01 0.07,0.01 0.07,0.02 0.07,0.02 0.07,0.02 0.06,0.02 0.06,0.02 0.06,0.03 0.05,0.03 0.06,0.04 0.05,0.03 0.04,0.05 0.04,0.04 0.04,0.05 0.02,0.03 0.02,0.03 0.01,0.03 0.02,0.03 0.01,0.03 0.02,0.03 0.01,0.04 0.01,0.03 0.01,0.04 v 0.04 l 0.01,0.04 0.01,0.04 v 0.04 l 0.01,0.04 v 0.05 0.04 c 0,1 -0.91,1 -1.75,1 h -26.95 c -0.85,0 -1.74,0 -1.74,-1 0,-1 0.89,-1 1.74,-1 z"
           inkscape:connector-curvature="0"
           style="fill:#000000;stroke-width:0" /><path
           id="path4970"
           d="m 778.43,402.44 -0.03,-0.38 -0.04,-0.37 -0.07,-0.72 -0.07,-0.68 -0.09,-0.65 -0.09,-0.61 -0.1,-0.59 -0.1,-0.55 -0.11,-0.53 -0.12,-0.49 -0.12,-0.47 -0.13,-0.44 -0.14,-0.41 -0.14,-0.38 -0.15,-0.36 -0.16,-0.33 -0.16,-0.31 -0.17,-0.28 -0.17,-0.27 -0.19,-0.23 -0.18,-0.22 -0.2,-0.2 -0.2,-0.17 -0.21,-0.16 -0.21,-0.13 -0.22,-0.12 -0.23,-0.1 -0.23,-0.08 -0.24,-0.07 -0.24,-0.05 -0.25,-0.03 -0.26,-0.02 -0.26,-0.01 c -0.65,0 -2.15,0.14 -3.19,1.05 1.45,0.19 1.84,1.34 1.84,2.03 0,1.45 -1.09,2.09 -2.05,2.09 -0.98,0 -2.07,-0.64 -2.07,-2.14 0,-2.39 2.48,-4.12 5.47,-4.12 4.73,0 7.12,4.33 8.21,8.81 0.66,2.59 2.46,17.09 2.85,22.61 l 0.95,12.41 c 0.69,9.17 2.39,10.42 4.62,10.42 0.5,0 2.05,-0.11 3.15,-1.05 -1.44,-0.2 -1.85,-1.34 -1.85,-2.05 0,-1.43 1.1,-2.09 2.05,-2.09 1,0 2.09,0.66 2.09,2.14 0,2.39 -2.5,4.14 -5.48,4.14 -4.74,0 -6.67,-4.83 -7.52,-8.62 -0.61,-2.74 -2.39,-16.78 -2.84,-22.82 z"
           inkscape:connector-curvature="0"
           style="fill:#000000;stroke-width:0" /><path
           id="path4972"
           d="m 817.91,423.68 0.03,0.1 0.02,0.11 0.03,0.11 0.03,0.11 0.03,0.12 0.02,0.12 0.06,0.24 0.07,0.25 0.06,0.25 0.06,0.24 0.05,0.25 0.03,0.11 0.03,0.12 0.03,0.11 0.02,0.11 0.03,0.1 0.02,0.1 0.02,0.1 0.02,0.08 0.02,0.09 0.01,0.07 0.02,0.07 0.01,0.07 0.01,0.05 v 0.05 l 0.01,0.03 v 0.02 0.01 c 0,0.84 -0.6,1.34 -1.44,1.34 -0.16,0 -1.55,-0.04 -2,-1.78 l -7.17,-28.86 c -0.14,-0.59 -0.14,-0.68 -0.14,-0.79 0,-0.74 0.55,-1.35 1.39,-1.35 1.05,0 1.64,0.91 1.75,1.05 0.19,0.45 0.84,3.05 2.73,10.72 1.6,-1.34 3.83,-1.55 4.83,-1.55 3.49,0 5.44,2.24 6.63,3.64 0.45,-2.25 2.29,-3.64 4.48,-3.64 1.75,0 2.89,1.14 3.69,2.74 0.84,1.79 1.5,4.84 1.5,4.93 0,0.5 -0.45,0.5 -0.6,0.5 -0.5,0 -0.54,-0.2 -0.7,-0.9 -0.84,-3.24 -1.75,-6.17 -3.78,-6.17 -1.34,0 -1.5,1.29 -1.5,2.29 0,1.1 0.59,3.44 1,5.17 l 1.39,5.4 c 0.16,0.75 0.64,2.64 0.84,3.39 0.25,1.14 0.75,3.03 0.75,3.32 0,0.91 -0.7,1.35 -1.43,1.35 -0.25,0 -1.55,-0.05 -1.96,-1.74 l -2.34,-9.32 c -0.59,-2.49 -1.14,-4.58 -1.3,-5.08 -0.04,-0.25 -2.43,-4.78 -6.47,-4.78 -2.48,0 -3.68,1.64 -3.68,4.32 0,1.46 0.34,2.85 0.7,4.25 z"
           inkscape:connector-curvature="0"
           style="fill:#000000;stroke-width:0" /><path
           id="path4974"
           d="m 862.1,440.23 v 0 0.01 0 0.01 0.02 0.01 l -0.01,0.02 v 0.02 0.02 l -0.01,0.02 v 0.02 l -0.01,0.02 -0.01,0.02 v 0.03 l -0.02,0.02 -0.01,0.03 -0.01,0.02 -0.02,0.03 -0.02,0.02 -0.02,0.02 -0.02,0.03 -0.01,0.01 -0.01,0.01 -0.02,0.01 -0.01,0.01 -0.01,0.01 -0.02,0.01 -0.02,0.01 -0.01,0.01 -0.02,0.01 -0.02,0.01 h -0.02 l -0.02,0.01 -0.02,0.01 h -0.02 l -0.02,0.01 -0.02,0.01 h -0.02 -0.03 l -0.02,0.01 h -0.03 -0.03 l -0.02,0.01 h -0.03 -0.03 c -0.75,0 -5.49,-0.46 -6.33,-0.55 -0.41,-0.05 -0.7,-0.3 -0.7,-0.95 0,-0.6 0.45,-0.6 1.2,-0.6 2.39,0 2.48,-0.34 2.48,-0.84 l -0.14,-1 -3,-11.81 c -0.89,1.84 -2.34,3.18 -4.57,3.18 l 0.04,-1.09 c 3.24,0 3.94,-4.08 3.94,-4.37 0,-0.32 -0.1,-0.61 -0.14,-0.86 l -2.5,-9.77 c -0.25,-0.89 -0.25,-0.98 -1,-1.84 -2.19,-2.74 -4.24,-3.53 -5.63,-3.53 -2.48,0 -3.18,2.73 -3.18,4.68 0,2.49 1.59,8.61 2.73,10.91 1.55,2.94 3.8,4.78 5.78,4.78 l -0.04,1.09 c -5.83,0 -12,-7.31 -12,-14.59 0,-4.69 2.73,-7.97 6.62,-7.97 0.98,0 3.48,0.21 6.47,3.74 0.41,-2.1 2.14,-3.74 4.53,-3.74 1.75,0 2.89,1.14 3.69,2.74 0.84,1.79 1.5,4.84 1.5,4.93 0,0.5 -0.46,0.5 -0.6,0.5 -0.5,0 -0.54,-0.2 -0.7,-0.9 -0.84,-3.24 -1.75,-6.17 -3.78,-6.17 -1.35,0 -1.5,1.29 -1.5,2.29 0,1.19 0.09,1.55 0.3,2.39 z"
           inkscape:connector-curvature="0"
           style="fill:#000000;stroke-width:0" /><path
           id="path4976"
           d="m 875.17,440.23 v 0 0.01 0 0.01 0.02 0.01 0.02 0.02 l -0.01,0.02 v 0.02 l -0.01,0.02 v 0.02 l -0.01,0.02 -0.01,0.03 -0.01,0.02 -0.02,0.03 -0.01,0.02 -0.02,0.03 -0.01,0.02 -0.03,0.02 -0.02,0.03 -0.01,0.01 -0.01,0.01 -0.02,0.01 -0.01,0.01 -0.02,0.01 -0.01,0.01 -0.02,0.01 -0.01,0.01 -0.02,0.01 -0.02,0.01 h -0.02 l -0.02,0.01 -0.02,0.01 h -0.02 l -0.02,0.01 -0.03,0.01 h -0.02 -0.03 l -0.02,0.01 h -0.03 -0.03 l -0.02,0.01 h -0.03 -0.03 c -1.14,0 -4.79,-0.41 -6.08,-0.5 -0.39,-0.05 -0.94,-0.1 -0.94,-1.05 0,-0.55 0.48,-0.55 1.23,-0.55 2.39,0 2.46,-0.45 2.46,-0.84 l -0.16,-1 -6.28,-24.91 c -0.14,-0.54 -0.25,-0.9 -0.25,-1.7 0,-2.83 2.2,-4.58 4.53,-4.58 1.66,0 2.89,1 3.75,2.78 0.89,1.91 1.49,4.8 1.49,4.89 0,0.5 -0.44,0.5 -0.6,0.5 -0.5,0 -0.55,-0.2 -0.7,-0.9 -0.85,-3.24 -1.78,-6.17 -3.78,-6.17 -1.5,0 -1.5,1.59 -1.5,2.29 0,1.19 0.06,1.44 0.29,2.39 z"
           inkscape:connector-curvature="0"
           style="fill:#000000;stroke-width:0" /><path
           id="path4978"
           d="m 893.36,418.61 -0.01,1.36 -0.05,1.43 -0.1,1.47 -0.13,1.53 -0.2,1.57 -0.25,1.61 -0.31,1.63 -0.39,1.66 -0.22,0.83 -0.24,0.84 -0.26,0.84 -0.29,0.84 -0.3,0.84 -0.33,0.84 -0.35,0.85 -0.38,0.83 -0.4,0.84 -0.42,0.83 -0.46,0.83 -0.48,0.82 -0.51,0.82 -0.53,0.81 -0.57,0.8 -0.6,0.8 c -0.5,0.59 -3.73,4.39 -4.62,4.39 -0.25,0 -0.61,-0.11 -0.61,-0.5 0,-0.2 0.11,-0.36 0.3,-0.5 2.38,-2.59 5.63,-6.63 7.67,-14.55 1.15,-4.53 1.61,-9.67 1.61,-14.29 0,-5.04 -0.46,-10.13 -1.75,-15 -1.9,-6.99 -4.83,-10.97 -7.38,-13.75 -0.45,-0.46 -0.45,-0.55 -0.45,-0.66 0,-0.39 0.36,-0.5 0.61,-0.5 0.73,0 3.48,3.05 4.07,3.75 5.08,6.02 8.33,14.98 8.33,26.09 z"
           inkscape:connector-curvature="0"
           style="fill:#000000;stroke-width:0" /></g>    </g>
    <path
       style="fill:none;stroke:#000000;stroke-width:1;stroke-linecap:butt;stroke-linejoin:miter;stroke-miterlimit:4;stroke-dasharray:4, 8;stroke-dashoffset:0;stroke-opacity:1"
       d="M 3.099405,95.76547 121.66945,27.30903"
       id="path5054"
       inkscape:connector-curvature="0" />
    <path
       style="fill:none;stroke:#000000;stroke-width:1;stroke-linecap:butt;stroke-linejoin:miter;stroke-miterlimit:4;stroke-dasharray:none;stroke-opacity:1"
       d="m 20.864287,85.182138 c 3.437454,-1.984615 3.948749,-3.479063 4.535714,-5.669645 0.627537,-2.342 2.401239,-24.88089 -0.755953,-36.663688 C 21.486856,31.066003 22.721175,14.352615 40.141073,4.2952301 56.984052,-5.4290677 90.589142,45.04567 95.703572,42.092851"
       id="path5416"
       inkscape:connector-curvature="0"
       sodipodi:nodetypes="csssc" />
  </g>
</svg>
