<?xml version="1.0" encoding="UTF-8" standalone="no"?>
<!-- Created with Inkscape (http://www.inkscape.org/) -->

<svg
   xmlns:dc="http://purl.org/dc/elements/1.1/"
   xmlns:cc="http://creativecommons.org/ns#"
   xmlns:rdf="http://www.w3.org/1999/02/22-rdf-syntax-ns#"
   xmlns:svg="http://www.w3.org/2000/svg"
   xmlns="http://www.w3.org/2000/svg"
   xmlns:sodipodi="http://sodipodi.sourceforge.net/DTD/sodipodi-0.dtd"
   xmlns:inkscape="http://www.inkscape.org/namespaces/inkscape"
   width="425.27411mm"
   height="356.07208mm"
   viewBox="0 0 425.27411 356.07208"
   version="1.1"
   id="svg5759"
   inkscape:version="0.92.2 2405546, 2018-03-11"
   sodipodi:docname="crop_domain.svg">
  <defs
     id="defs5753" />
  <sodipodi:namedview
     id="base"
     pagecolor="#000000"
     bordercolor="#666666"
     borderopacity="1.0"
     inkscape:pageopacity="0"
     inkscape:pageshadow="2"
     inkscape:zoom="0.35"
     inkscape:cx="306.15321"
     inkscape:cy="551.46786"
     inkscape:document-units="mm"
     inkscape:current-layer="layer1"
     showgrid="false"
     inkscape:window-width="1920"
     inkscape:window-height="1006"
     inkscape:window-x="0"
     inkscape:window-y="0"
     inkscape:window-maximized="1"
     fit-margin-top="0"
     fit-margin-left="0"
     fit-margin-right="0"
     fit-margin-bottom="0" />
  <metadata
     id="metadata5756">
    <rdf:RDF>
      <cc:Work
         rdf:about="">
        <dc:format>image/svg+xml</dc:format>
        <dc:type
           rdf:resource="http://purl.org/dc/dcmitype/StillImage" />
        <dc:title></dc:title>
      </cc:Work>
    </rdf:RDF>
  </metadata>
  <g
     inkscape:label="Layer 1"
     inkscape:groupmode="layer"
     id="layer1"
     transform="translate(85.160776,61.32953)">
    <path
       style="fill:#ffffff;fill-opacity:0.50292394;stroke:#f6f6f6;stroke-width:18.89763832;stroke-linecap:butt;stroke-linejoin:miter;stroke-miterlimit:4;stroke-dasharray:37.79527712, 37.79527712;stroke-dashoffset:0;stroke-opacity:1"
       d="m 248.5293,-222.08984 c -75.47799,0.31448 -145.46036,13.33654 -202.814456,44.60937 -99.899218,54.47095 -145.714564,88.571708 -262.857424,282.85742 -117.14285,194.28571 -121.42857,375.71373 -40,514.28516 81.42857,138.57143 348.570874,574.28659 614.28516,468.57229 265.71429,-105.71436 120.00001,-439.99949 520,-374.28518 C 1277.1426,779.66349 1345.714,328.23438 1217.1426,208.23438 1088.5711,88.234379 919.86563,-57.163923 571.42773,-166.05078 465.71345,-199.0865 351.96209,-222.5208 248.5293,-222.08984 Z m 22.19531,106.51757 c 86.11276,0.1 181.30225,26.741178 279.57422,57.451176 C 849.91358,35.50852 977.83656,154.82028 1088.3926,258.00586 1198.9486,361.19144 1177.1408,667.42112 836.0332,595.7168 472.08129,519.21039 513.00146,814.56034 323.18164,928.98633 151.21186,1032.6521 -49.297619,739.51025 -119.31641,620.35547 -189.3352,501.20072 -194.22096,330.90807 -93.492188,163.8457 7.2365998,-3.216672 40.917034,-35.395903 126.81836,-82.234375 c 43.83789,-23.903005 92.2386,-33.397885 143.90625,-33.337895 z"
       transform="scale(0.26458333)"
       id="path6304"
       inkscape:connector-curvature="0" />
    <path
       sodipodi:nodetypes="zssssssz"
       inkscape:connector-curvature="0"
       id="path6335"
       d="M -68.035711,163.95238 C -46.491073,200.61607 24.190476,315.89882 94.494047,287.92858 164.79762,259.95833 126.24405,171.5119 232.07738,188.89881 337.91072,206.28571 356.05357,86.845237 322.03572,55.095237 288.01785,23.345238 243.38133,-15.124874 151.19047,-43.934522 102.80952,-59.053571 48.065455,-66.571421 12.095242,-46.958334 c -26.431673,14.412106 -38.553574,23.434525 -69.547619,74.839287 -30.994052,51.40476 -32.127979,99.407737 -10.583334,136.071427 z"
       style="fill:none;fill-opacity:0.50292394;stroke:#f6f6f6;stroke-width:5;stroke-linecap:butt;stroke-linejoin:miter;stroke-miterlimit:4;stroke-dasharray:none;stroke-opacity:1" />
    <flowRoot
       xml:space="preserve"
       id="flowRoot6357"
       style="fill:black;fill-opacity:1;stroke:none;font-family:sans-serif;font-style:normal;font-weight:normal;font-size:40px;line-height:1.25;letter-spacing:0px;word-spacing:0px"><flowRegion
         id="flowRegion6359"><rect
           id="rect6361"
           width="397.14285"
           height="217.14285"
           x="585.71429"
           y="497.21286" /></flowRegion><flowPara
         id="flowPara6363"></flowPara></flowRoot>    <text
       xml:space="preserve"
       style="font-style:normal;font-weight:normal;font-size:10.58333302px;line-height:1.25;font-family:sans-serif;letter-spacing:0px;word-spacing:0px;fill:#000000;fill-opacity:1;stroke:none;stroke-width:0.26458332"
       x="59.226128"
       y="113.314"
       id="text6367"><tspan
         sodipodi:role="line"
         id="tspan6365"
         x="59.226128"
         y="113.314"
         style="font-size:90.31111145px;fill:#ffffff;fill-opacity:1;stroke-width:0.26458332">x2</tspan></text>
  </g>
</svg>
