<?xml version="1.0" encoding="UTF-8" standalone="no"?>
<!-- Created with Inkscape (http://www.inkscape.org/) -->

<svg
   xmlns:dc="http://purl.org/dc/elements/1.1/"
   xmlns:cc="http://creativecommons.org/ns#"
   xmlns:rdf="http://www.w3.org/1999/02/22-rdf-syntax-ns#"
   xmlns:svg="http://www.w3.org/2000/svg"
   xmlns="http://www.w3.org/2000/svg"
   xmlns:sodipodi="http://sodipodi.sourceforge.net/DTD/sodipodi-0.dtd"
   xmlns:inkscape="http://www.inkscape.org/namespaces/inkscape"
   width="248.52078mm"
   height="111.56368mm"
   viewBox="0 0 248.52079 111.56368"
   version="1.1"
   id="svg932"
   inkscape:version="0.92.4 5da689c313, 2019-01-14"
   sodipodi:docname="cat_dead.svg">
  <defs
     id="defs926" />
  <sodipodi:namedview
     id="base"
     pagecolor="#ffffff"
     bordercolor="#666666"
     borderopacity="1.0"
     inkscape:pageopacity="0.0"
     inkscape:pageshadow="2"
     inkscape:zoom="0.35"
     inkscape:cx="537.60946"
     inkscape:cy="13.300667"
     inkscape:document-units="mm"
     inkscape:current-layer="layer1"
     showgrid="false"
     fit-margin-top="0"
     fit-margin-left="0"
     fit-margin-right="0"
     fit-margin-bottom="0"
     inkscape:window-width="1920"
     inkscape:window-height="1006"
     inkscape:window-x="0"
     inkscape:window-y="0"
     inkscape:window-maximized="1" />
  <metadata
     id="metadata929">
    <rdf:RDF>
      <cc:Work
         rdf:about="">
        <dc:format>image/svg+xml</dc:format>
        <dc:type
           rdf:resource="http://purl.org/dc/dcmitype/StillImage" />
        <dc:title></dc:title>
      </cc:Work>
    </rdf:RDF>
  </metadata>
  <g
     inkscape:label="Layer 1"
     inkscape:groupmode="layer"
     id="layer1"
     transform="translate(172.10262,-40.788788)">
    <g
       style="fill:#6a6a6a;fill-opacity:1;stroke:#000000;stroke-width:5;stroke-miterlimit:4;stroke-dasharray:none;stroke-opacity:1"
       id="g923"
       transform="matrix(-0.26458333,0,0,0.26458333,110.95754,-123.98125)">
      <path
         inkscape:connector-curvature="0"
         style="fill:#6a6a6a;fill-opacity:1;fill-rule:evenodd;stroke:#000000;stroke-width:5;stroke-linecap:butt;stroke-linejoin:miter;stroke-miterlimit:4;stroke-dasharray:none;stroke-opacity:1"
         id="path913"
         d="m 569.20131,625.26914 c -21.47956,-0.36551 -55.49744,5.58913 -65.63416,9.48786 -11.58478,4.45569 -20.49845,6.22878 -35.6478,8.9022 -14.95134,2.63847 -73.23104,31.3141 -111.58978,49.19633 l -0.19523,-0.35141 c 0,0 -57.94148,15.78719 -76.21526,23.34874 -18.27376,7.56156 -34.04812,25.80969 -38.45904,30.22061 -4.4109,4.41091 -17.01067,11.97276 -32.13379,22.68496 -15.12311,10.71222 -20.80114,30.23802 -26.47231,32.75852 -5.67117,2.52049 -34.65004,21.43126 -37.17056,26.47231 -2.52052,5.04104 -13.24157,18.26981 -12.61144,27.72175 0.63013,9.45193 12.62456,11.9867 20.18611,11.98672 7.56156,0 30.87155,-2e-5 45.99467,0 15.12311,0 6.28848,5.68656 15.1103,16.39876 8.82181,10.71222 30.11828,20.45263 38.10763,25.80856 6.85499,4.59547 1.94006,51.10654 10.6592,51.53901 22.93385,3.64576 60.37471,-38.5512 81.68152,-49.6258 8.04524,-4.96122 12.61146,-20.78492 12.61146,-28.34647 0,-7.56156 24.54173,-8.19169 22.02122,0 -2.52053,8.19167 -16.99988,17.63538 -33.38324,32.75851 -16.38336,15.12309 -20.62873,16.84679 -28.19027,23.77821 -7.56157,6.93145 -11.8012,14.40683 -13.39234,23.66112 -3.12405,24.45225 -1.48685,56.46047 17.84343,73.24787 6.30129,6.3013 23.10594,5.3209 33.18799,4.0606 10.0821,-1.2602 8.82412,-35.906 8.8241,-42.2073 0,-6.30128 5.68543,-13.24501 11.98674,-25.84759 6.28021,-12.56043 73.71487,-72.90043 88.51434,-85.78122 18.85815,3.98553 21.44219,7.84797 39.16186,7.84797 17.82274,0 24.51317,-7.15893 31.19671,-8.94122 6.68354,-1.78228 3.1006,-12.9238 2.65505,-20.49846 -0.44557,-7.57469 0.0368,-6.67666 9.83926,-6.67666 9.80252,0 211.17218,-30.29869 246.37211,-37.87336 35.19996,-7.57468 77.32921,-8.47038 83.78994,-3.12358 6.46076,5.34683 40.52613,13.1466 50.32861,12.92379 9.80251,-0.22278 25.38824,6.93849 31.62622,6.71568 6.23797,-0.22277 23.16729,12.68495 36.31159,17.14064 13.14425,4.45569 39.54425,6.13692 45.44805,7.02806 5.9038,0.89113 10.6948,-3.37508 12.1429,-3.70926 4.1512,-5.14301 5.4826,-2.43678 8.8241,-5.50531 2.562,0.44557 4.8025,-10.42491 4.8025,-14.21227 -3.2454,-7.95047 -5.606,-12.22599 -9.4879,-17.25775 -4.4557,-8.02025 -48.1329,-36.51371 -72.19365,-52.55419 -24.06072,-16.04047 -85.55386,-49.03094 -101.59432,-57.94233 -16.04048,-8.91138 -96.20844,-53.4614 -116.70464,-59.69936 -20.49616,-6.23797 -110.51029,-27.60691 -127.44191,-17.80439 -16.93163,9.80252 -42.78843,-4.47177 -62.39345,-7.14518 -2.45063,-0.33417 -5.248,-0.53345 -8.31652,-0.58567 z" />
      <path
         inkscape:connector-curvature="0"
         style="fill:#6a6a6a;fill-opacity:1;stroke:#000000;stroke-width:5;stroke-linecap:butt;stroke-linejoin:miter;stroke-miterlimit:4;stroke-dasharray:none;stroke-opacity:1"
         id="path915"
         d="m 1036.8863,803.03147 c -23.1696,0.89112 -26.2708,4.61319 -44.98469,-4.29818 -18.7139,-8.91139 -30.29869,-19.60504 -45.44804,-19.60504 -15.14934,0 -42.77463,-8.02025 -69.50876,-12.47592 -26.73414,-4.4557 -60.59738,-8.02026 -60.59738,-8.02026" />
      <path
         inkscape:connector-curvature="0"
         style="fill:#6a6a6a;fill-opacity:1;stroke:#000000;stroke-width:5;stroke-linecap:butt;stroke-linejoin:miter;stroke-miterlimit:4;stroke-dasharray:none;stroke-opacity:1"
         id="path917"
         d="m 462.78842,886.62178 c -19.15949,-4.01012 -36.75944,5.23543 -47.45311,-13.92404 -10.69366,-19.15945 -16.48606,-24.06072 -16.48606,-37.42778 0,-13.36707 -1.33669,-20.05062 -1.33669,-36.0911 0,-16.0405 0,-26.28856 0,-26.28856" />
      <path
         inkscape:connector-curvature="0"
         style="fill:#6a6a6a;fill-opacity:1;stroke:#000000;stroke-width:5;stroke-linecap:butt;stroke-linejoin:miter;stroke-miterlimit:4;stroke-dasharray:none;stroke-opacity:1"
         id="path919"
         d="m 281.98426,772.04001 c 14.33684,15.3197 76.06812,45.99369 80.11173,49.83816 6.12141,5.81995 16.44127,27.56622 11.40023,35.75791 -5.04103,8.19169 -15.93316,23.9264 -15.93316,23.9264" />
      <path
         inkscape:connector-curvature="0"
         style="fill:#6a6a6a;fill-opacity:1;stroke:#000000;stroke-width:5;stroke-linecap:butt;stroke-linejoin:miter;stroke-miterlimit:4;stroke-dasharray:none;stroke-opacity:1"
         id="path921"
         d="m 434.0492,707.83721 c 32.97211,1.78228 50.79489,-1.78227 50.79489,14.2582 0,16.0405 7.1291,65.05309 0.89112,72.18218 -6.23797,7.1291 -22.27845,29.40756 -15.14934,31.18985 7.12909,1.78226 32.95818,2.6734 42.77463,11.58479 3.87027,4.10751 7.77207,5.10032 12.28967,7.96272 3.15064,1.89038 11.97247,5.04104 11.97247,10.08209 0,5.04104 0.63011,10.08207 0.63011,10.08207" />
    </g>
  </g>
</svg>
