<?xml version="1.0" encoding="UTF-8" standalone="no"?>
<!-- Created with Inkscape (http://www.inkscape.org/) -->

<svg
   xmlns:dc="http://purl.org/dc/elements/1.1/"
   xmlns:cc="http://creativecommons.org/ns#"
   xmlns:rdf="http://www.w3.org/1999/02/22-rdf-syntax-ns#"
   xmlns:svg="http://www.w3.org/2000/svg"
   xmlns="http://www.w3.org/2000/svg"
   xmlns:sodipodi="http://sodipodi.sourceforge.net/DTD/sodipodi-0.dtd"
   xmlns:inkscape="http://www.inkscape.org/namespaces/inkscape"
   width="103.24399mm"
   height="161.56982mm"
   viewBox="0 0 103.24399 161.56982"
   version="1.1"
   id="svg932"
   inkscape:version="0.92.4 5da689c313, 2019-01-14"
   sodipodi:docname="cat_alive.svg">
  <defs
     id="defs926" />
  <sodipodi:namedview
     id="base"
     pagecolor="#ffffff"
     bordercolor="#666666"
     borderopacity="1.0"
     inkscape:pageopacity="0.0"
     inkscape:pageshadow="2"
     inkscape:zoom="0.35"
     inkscape:cx="-189.17896"
     inkscape:cy="256.75737"
     inkscape:document-units="mm"
     inkscape:current-layer="layer1"
     showgrid="false"
     fit-margin-top="0"
     fit-margin-left="0"
     fit-margin-right="0"
     fit-margin-bottom="0"
     inkscape:window-width="1920"
     inkscape:window-height="1006"
     inkscape:window-x="0"
     inkscape:window-y="0"
     inkscape:window-maximized="1" />
  <metadata
     id="metadata929">
    <rdf:RDF>
      <cc:Work
         rdf:about="">
        <dc:format>image/svg+xml</dc:format>
        <dc:type
           rdf:resource="http://purl.org/dc/dcmitype/StillImage" />
        <dc:title></dc:title>
      </cc:Work>
    </rdf:RDF>
  </metadata>
  <g
     inkscape:label="Layer 1"
     inkscape:groupmode="layer"
     id="layer1"
     transform="translate(-20.193481,-55.19723)">
    <g
       style="stroke-width:3.71246791;stroke-miterlimit:4;stroke-dasharray:none"
       transform="matrix(-0.32256402,0,0,0.32256402,347.47714,-487.30225)"
       id="g896">
      <path
         style="fill:#6a6a6a;fill-opacity:1;stroke:#000000;stroke-width:3.71246791;stroke-linecap:butt;stroke-linejoin:miter;stroke-miterlimit:4;stroke-dasharray:none;stroke-opacity:1"
         d="m 785.57227,2167.6992 c 2.19521,10.976 17.12318,13.1719 27.66015,13.1719 10.53698,0 18.87727,-7.9042 17.1211,-14.0508 -0.77434,-2.7102 -1.54538,-10.0314 -1.94336,-18.5351 10.49546,7.6584 50.57205,-3.922 51.44726,-14.1329 0.93135,-10.8657 -6.51953,-10.8659 -6.51953,-19.248 0,-2.8664 3.93291,-6.5017 9.14844,-11.5566 5.75121,2.9683 36.66198,18.0332 72.11719,18.0332 39.29413,0 58.17188,-27.6593 58.17188,-54.6602 0,-27.001 -57.51498,-99.6636 -59.9297,-131.4941 -2.41472,-31.8304 9.44069,-43.9025 26.34375,-55.5371 16.90306,-11.6346 18.65963,-19.1 16.02539,-25.6856 -2.63424,-6.5856 -16.68508,-6.1452 -30.73437,4.6113 -14.0493,10.7565 -32.92774,36.4394 -32.92774,81.002 0,44.5626 51.54638,114.5201 45.88086,135.664 -5.63777,21.0407 -44.05449,12.7375 -72.02734,-3.2773 2.56445,-6.1061 4.54241,-13.0656 5.49609,-21.0527 4.96718,-41.6001 -24.21407,-70.1613 -27.93945,-73.8867 -3.72539,-3.7254 1.24063,-12.4184 2.48242,-26.0782 1.2418,-13.6597 13.83831,-62.0779 14.27735,-74.3711 0.43904,-12.2931 -10.09777,-33.3674 -12.29297,-43.9043 -2.1952,-10.537 0.43851,-59.7091 -2.63477,-70.2461 -3.07329,-10.537 -10.97555,-14.0498 -14.04883,-19.3183 -3.07328,-5.2685 -12.73233,-41.27 -18.8789,-41.709 -6.14657,-0.4391 -19.31695,14.9281 -30.29297,15.3672 -10.46151,0.4184 -61.60539,-32.6658 -71.69922,-33.1074 -0.49642,-0.022 -0.89352,0.036 -1.18164,0.1797 -6.14656,3.0733 14.92619,30.2928 15.36523,36.4394 0.43904,6.1466 9e-5,6.1473 -6.14648,13.1719 -6.14656,7.0247 -27.2204,39.9525 -28.97656,43.4648 -1.75616,3.5124 0.43915,11.4152 2.19531,18.8789 1.75616,7.4637 2.81752,37.8256 5.26953,46.9766 2.45201,9.151 7.20095,7.1577 12.29297,10.0976 2.3864,1.3779 4.47576,3.9649 6.86914,6.3321 l -2.36719,5.4433 c 0,0 -3.72531,27.3201 -5.89843,39.1172 -2.17314,11.797 -4.03711,65.8145 -4.03711,65.8145 0,0 -7.76106,-1.5518 -18.00586,7.4512 -10.2448,9.003 -17.38487,49.6728 -17.69532,71.4043 -0.31045,21.7314 14.5918,38.1835 14.5918,44.3925 0,6.209 -12.10744,9.9352 -18.31641,15.2129 -6.20897,5.2776 -10.55672,11.7973 -4.6582,19.2481 5.89852,7.4507 14.28208,7.4503 35.39258,4.9668 7.46341,-0.8781 16.14419,-2.6922 25.01172,-4.5547 -1.04124,9.6511 -1.98095,16.8857 -2.54492,18.0136 -1.75616,3.5124 -18.43946,0.439 -18.43946,14.4883 0,14.0493 9.21837,16.6825 17.1211,17.5606 7.90273,0.8781 28.09931,-5.2683 29.85547,-10.0977"
         id="path886"
         inkscape:connector-curvature="0"
         sodipodi:nodetypes="cssccscsssssssccsccscssccccsccsscccccssscccccssc" />
      <g
         id="g894"
         transform="translate(480)"
         style="stroke:#000000;stroke-width:3.71246791;stroke-miterlimit:4;stroke-dasharray:none;stroke-opacity:1">
        <path
           style="fill:none;stroke:#000000;stroke-width:3.71246791;stroke-linecap:butt;stroke-linejoin:miter;stroke-miterlimit:4;stroke-dasharray:none;stroke-opacity:1"
           d="m 263.25977,1969.6133 c 8.06726,51.4463 23.43367,66.3737 22.11655,89.6429 -1.31712,23.2691 -6.58561,82.9786 -8.34177,86.4909 -1.75616,3.5124 -18.4397,0.4391 -18.4397,14.4884 0,14.0493 9.21985,16.6835 17.12258,17.5616 7.90273,0.8781 28.09859,-5.2685 29.85475,-10.0979"
           id="path888"
           inkscape:connector-curvature="0" />
        <path
           style="fill:none;stroke:#000000;stroke-width:3.71246791;stroke-linecap:butt;stroke-linejoin:miter;stroke-miterlimit:4;stroke-dasharray:none;stroke-opacity:1"
           d="m 313.91395,1954.7645 c 1.31712,36.0013 10.97602,84.7348 9.65889,108.004 -1.31712,23.2691 -20.19587,93.9547 -18.00066,104.9307 2.19521,10.976 17.12258,13.1712 27.65955,13.1712 10.53698,0 18.87875,-7.9027 17.12258,-14.0493 -1.75616,-6.1466 -3.51232,-36.0013 -0.87808,-49.6116 2.63425,-13.6102 52.68486,-140.4929 52.68486,-140.4929"
           id="path890"
           inkscape:connector-curvature="0" />
        <path
           inkscape:connector-curvature="0"
           id="path892"
           d="m 275.5625,1859.2383 c 6.96006,4.6448 28.91208,-1.2822 40.32714,-1.5017 11.41505,-0.2195 7.02464,3.9513 15.58593,3.5123 8.56129,-0.439 49.17254,-10.7565 52.46534,-15.5859"
           style="fill:none;stroke:#000000;stroke-width:3.71246791;stroke-linecap:butt;stroke-linejoin:miter;stroke-miterlimit:4;stroke-dasharray:none;stroke-opacity:1" />
      </g>
    </g>
  </g>
</svg>
