<?xml version="1.0" encoding="UTF-8" standalone="no"?>
<svg
   xmlns:dc="http://purl.org/dc/elements/1.1/"
   xmlns:cc="http://creativecommons.org/ns#"
   xmlns:rdf="http://www.w3.org/1999/02/22-rdf-syntax-ns#"
   xmlns:svg="http://www.w3.org/2000/svg"
   xmlns="http://www.w3.org/2000/svg"
   xmlns:sodipodi="http://sodipodi.sourceforge.net/DTD/sodipodi-0.dtd"
   xmlns:inkscape="http://www.inkscape.org/namespaces/inkscape"
   version="1.0"
   width="244.14168"
   height="307.26953"
   id="svg3027"
   inkscape:version="0.48.2 r9819"
   sodipodi:docname="Laurel_wreath.svg">
  <metadata
     id="metadata3067">
    <rdf:RDF>
      <cc:Work
         rdf:about="">
        <dc:format>image/svg+xml</dc:format>
        <dc:type
           rdf:resource="http://purl.org/dc/dcmitype/StillImage" />
        <dc:title></dc:title>
      </cc:Work>
    </rdf:RDF>
  </metadata>
  <defs
     id="defs3065" />
  <sodipodi:namedview
     pagecolor="#ffffff"
     bordercolor="#666666"
     borderopacity="1"
     objecttolerance="10"
     gridtolerance="10"
     guidetolerance="10"
     inkscape:pageopacity="0"
     inkscape:pageshadow="2"
     inkscape:window-width="1024"
     inkscape:window-height="555"
     id="namedview3063"
     showgrid="false"
     fit-margin-left="10"
     fit-margin-top="10"
     fit-margin-right="10"
     fit-margin-bottom="10"
     inkscape:zoom="1"
     inkscape:cx="201.68368"
     inkscape:cy="127.29673"
     inkscape:window-x="-4"
     inkscape:window-y="-4"
     inkscape:window-maximized="1"
     inkscape:current-layer="svg3027" />
  <g
     transform="translate(-263.27531,-152.27393)"
     id="g3029">
    <g
       id="g3031"
       style="fill:#008000">
      <path
         d="m 413.88664,162.27393 c 9.20019,8.06543 15.58105,18.26562 22.40625,27.77734 6.11816,7.57519 13.94433,12.57031 20.87988,19.08447 -3.74414,-7.76172 -3.88086,-17.0332 -9.19141,-24.16308 -7.55664,-13.1836 -21.56933,-17.82178 -34.09472,-22.69873 l 0,0 z"
         id="path3043"
         inkscape:connector-curvature="0" />
      <path
         d="m 464.20011,190.35986 c -4.47461,-5.5625 -10.14746,-9.42822 -16.53125,-11.06054 12.39551,8.51513 11.58887,23.7749 15.51856,36.46045 1.25293,4.69091 3.42871,9.01269 4.51269,13.82128 l -0.31543,0.25098 c -2.0625,-5.43603 -5.6875,-10.57226 -10.21191,-15.00781 -8.80371,-8.12695 -21.82715,-13.1919 -26.1416,-25.21387 0.19726,16.70606 14.13379,29.83985 27.46875,39.22901 5.49902,4.82421 10.80175,10.32226 13.83008,16.52392 0.29687,-4.21484 -0.62305,-8.44678 -0.32325,-12.96191 1.4502,-14.5835 2.50391,-31.22901 -7.80664,-42.04151 l 0,0 z"
         id="path3045"
         inkscape:connector-curvature="0" />
      <path
         d="m 489.28019,240.22754 c 0.37305,-14.77832 -5.76074,-26.8418 -14.4043,-37.85303 -0.25097,-0.12549 -0.42968,-0.37646 -0.75293,-0.31592 9.51465,14.4585 1.64356,32.67041 2.07715,49.11036 l 1.25489,16.83203 c -0.18653,0.12207 -0.18653,0.62793 -0.62793,0.43359 -0.5625,-1.87598 -0.68457,-3.88086 -1.06055,-5.81055 -2.24121,-13.57714 -14.03223,-23.21093 -24.33106,-32.59375 -2.19921,-2.4541 -4.14355,-4.9458 -5.27343,-7.82568 0.84082,6.76025 2.95996,13.57861 5.76464,19.83057 8.01563,15.63183 22.82325,28.458 25.52833,46.35449 1.3125,-17.15039 12.98925,-29.97266 11.82519,-48.16211 l 0,0 z"
         id="path3047"
         inkscape:connector-curvature="0" />
      <path
         d="m 496.47843,261.24316 c -1.06543,-4.62207 -1.87988,-9.40527 -3.8916,-13.64648 3.81152,19.53711 -9.3291,33.61426 -13.63965,50.54883 -1.80371,6.33398 -2.24511,13.13672 -4.82422,19.08008 -0.24023,0.12988 -0.44921,-0.1211 -0.59765,-0.31153 6.41797,-17.98926 -2.84668,-34.70605 -12.15625,-48.79101 -2.26367,-3.81641 -3.56836,-8.06641 -4.69434,-12.45313 -0.98926,8.1416 1.06934,17.51758 2.25195,25.97071 2.26368,10.75585 5.64258,20.95605 8.58399,31.39257 1.93555,6.52149 1.42676,13.87891 0.43262,20.71192 L 468.87589,333 c 6.8252,-12.58594 20.33985,-22.40234 24.35352,-36.15234 3.30273,-10.96192 5.49805,-23.66016 3.24902,-35.6045 l 0,0 z"
         id="path3049"
         inkscape:connector-curvature="0" />
      <path
         d="m 497.09464,299.40137 c -1.50293,20.70801 -23.77148,31.65039 -34.09375,48.79394 -2.44238,3.50782 -4.56152,7.38867 -7.82519,10.3252 0.50976,-2.20606 2.56836,-4.0625 3.32422,-6.32227 3.61133,-7.19043 4.92773,-15.75879 4.05957,-24.44922 -1,-10.57714 -5.43653,-20.39257 -3.74317,-31.51757 -9.07031,19.55664 -6.31543,43.96679 -11.38672,65.1582 -1.32812,4.63476 -4.01074,8.77344 -5.76855,13.20312 18.63574,-12.69238 44.04687,-24.76855 52.31445,-48.03027 3.48438,-8.02051 3.87305,-17.9502 3.11914,-27.16113 l 0,0 z"
         id="path3051"
         inkscape:connector-curvature="0" />
      <path
         d="m 485.96281,346.95508 c -10.39063,23.50586 -36.41406,25.45312 -53.86231,39.7666 -3.21093,2.8457 -6.57519,5.26562 -10.20019,6.9541 l -0.18653,-0.18945 c 4.00586,-3.62207 8.63965,-7.74707 11.44434,-12.44141 10.21191,-14.19922 6.62012,-34.08984 14.27148,-49.36133 -6.95214,8.31641 -13.27441,16.96094 -17.47168,26.39551 -6.24316,15.40137 -8.6289,32.79688 -23.07519,44.43897 15.63379,-5.15235 33.94922,-3.71289 47.74805,-13.33936 15.0664,-9.25976 28.51269,-24.96582 31.33203,-42.22363 l 0,0 z"
         id="path3053"
         inkscape:connector-curvature="0" />
      <path
         d="m 459.25773,390.80664 c -16.66016,18.94775 -43.88281,12.62549 -66.0752,17.58447 -3.13476,0.42774 -6.0039,1.6836 -9.32617,1.17383 2.64551,-1.67383 6.31641,-1.49219 9.2041,-3.01367 17.39551,-6.11133 19.94727,-24.94385 29.39063,-37.64307 -12.06445,8.01172 -22.20703,18.81739 -33.33692,29.2876 -8,7.00781 -17.62988,10.24219 -27.77636,12.30469 2.43847,0.89062 5.63476,0.64648 8.25195,1.33203 18.22852,4.48242 38.48047,11.80859 57.81152,5.25 12.56739,-3.95703 25.53321,-13.89453 31.85645,-26.27588 l 0,0 z"
         id="path3055"
         inkscape:connector-curvature="0" />
      <path
         d="m 312.85148,415.57471 c -13.4208,6.6289 -27.47754,15.76758 -39.57617,27.45508 2.03906,2.32812 4.67969,4.50585 7.16699,6.51367 11.65918,-12.5625 24.57129,-24.6543 39.02832,-31.7168 2.65299,-1.06199 5.30599,-1.99055 7.95898,-2.37305 14.47464,-3.28304 23.58204,7.4336 34.41309,13.51368 12.62109,8.8125 30.77246,12.95117 46.02539,6.87109 8.20313,-3.11133 16.15039,-7.69336 22.08984,-15.14063 -12.0039,8.26954 -29.88183,9.13672 -43.5332,3.76563 -18.31836,-7.94531 -37.35351,-18.01758 -59.43652,-13.20117 -7.66804,1.32616 -7.43972,1.1141 -14.13672,4.3125 z"
         id="path3057"
         inkscape:connector-curvature="0"
         sodipodi:nodetypes="ccccccccccc" />
    </g>
  </g>
</svg>
