<?xml version="1.0" encoding="UTF-8" standalone="no"?>
<!-- Created with Inkscape (http://www.inkscape.org/) -->

<svg
   xmlns:dc="http://purl.org/dc/elements/1.1/"
   xmlns:cc="http://creativecommons.org/ns#"
   xmlns:rdf="http://www.w3.org/1999/02/22-rdf-syntax-ns#"
   xmlns:svg="http://www.w3.org/2000/svg"
   xmlns="http://www.w3.org/2000/svg"
   xmlns:sodipodi="http://sodipodi.sourceforge.net/DTD/sodipodi-0.dtd"
   xmlns:inkscape="http://www.inkscape.org/namespaces/inkscape"
   width="1024"
   height="1024"
   viewBox="0 0 270.93333 270.93334"
   version="1.1"
   id="svg8"
   inkscape:version="0.92.4 5da689c313, 2019-01-14"
   sodipodi:docname="mastering_power.svg">
  <defs
     id="defs2" />
  <sodipodi:namedview
     id="base"
     pagecolor="#ffffff"
     bordercolor="#666666"
     borderopacity="1.0"
     inkscape:pageopacity="0.0"
     inkscape:pageshadow="2"
     inkscape:zoom="0.35"
     inkscape:cx="555.03377"
     inkscape:cy="-78.327374"
     inkscape:document-units="mm"
     inkscape:current-layer="layer1"
     showgrid="false"
     units="px"
     inkscape:window-width="1920"
     inkscape:window-height="1006"
     inkscape:window-x="0"
     inkscape:window-y="0"
     inkscape:window-maximized="1" />
  <metadata
     id="metadata5">
    <rdf:RDF>
      <cc:Work
         rdf:about="">
        <dc:format>image/svg+xml</dc:format>
        <dc:type
           rdf:resource="http://purl.org/dc/dcmitype/StillImage" />
        <dc:title></dc:title>
      </cc:Work>
    </rdf:RDF>
  </metadata>
  <g
     inkscape:label="Layer 1"
     inkscape:groupmode="layer"
     id="layer1"
     transform="translate(0,-26.06665)">
    <g
       id="g993">
      <circle
         r="124.35416"
         cy="162.06248"
         cx="136.07143"
         id="path900"
         style="opacity:1;fill:#e7000a;fill-opacity:1;stroke:none;stroke-width:0.26499999;stroke-linecap:round;stroke-linejoin:round;stroke-miterlimit:4;stroke-dasharray:none;stroke-dashoffset:0;stroke-opacity:1" />
      <g
         id="g980">
        <path
           style="fill:#820606;fill-opacity:1;stroke:none;stroke-width:0.99999994px;stroke-linecap:butt;stroke-linejoin:miter;stroke-opacity:1"
           d="M 514.28516 44 A 469.99996 469.99996 0 0 0 431.58594 51.46875 L 507.93945 983.68164 A 469.99996 469.99996 0 0 0 509.05273 983.73828 L 584.08594 49.806641 A 469.99996 469.99996 0 0 0 514.28516 44 z "
           transform="matrix(0.26458333,0,0,0.26458333,0,26.06665)"
           id="path907" />
        <path
           style="fill:#820606;fill-opacity:1;stroke:none;stroke-width:0.99999994px;stroke-linecap:butt;stroke-linejoin:miter;stroke-opacity:1"
           d="M 675.52734 73.150391 L 509.75195 983.77344 A 469.99996 469.99996 0 0 0 510.94727 983.83398 L 808.46875 147.98633 A 469.99996 469.99996 0 0 0 675.52734 73.150391 z "
           transform="matrix(0.26458333,0,0,0.26458333,0,26.06665)"
           id="path920" />
        <path
           style="fill:#820606;fill-opacity:1;stroke:none;stroke-width:0.99999994px;stroke-linecap:butt;stroke-linejoin:miter;stroke-opacity:1"
           d="M 875.81641 214.29492 L 511.75 983.87305 A 469.99996 469.99996 0 0 0 513.23242 983.94727 L 953.14453 346.10156 A 469.99996 469.99996 0 0 0 875.81641 214.29492 z "
           transform="matrix(0.26458333,0,0,0.26458333,0,26.06665)"
           id="path924" />
        <path
           style="fill:#820606;fill-opacity:1;stroke:none;stroke-width:0.99999994px;stroke-linecap:butt;stroke-linejoin:miter;stroke-opacity:1"
           d="M 977.88477 437.71484 L 514.31445 983.99805 A 469.99996 469.99996 0 0 0 516.73438 983.91406 L 977.25781 591.88477 A 469.99996 469.99996 0 0 0 984.28516 514 A 469.99996 469.99996 0 0 0 977.88477 437.71484 z "
           transform="matrix(0.26458333,0,0,0.26458333,0,26.06665)"
           id="path928" />
        <path
           style="fill:#820606;fill-opacity:1;stroke:none;stroke-width:0.99999994px;stroke-linecap:butt;stroke-linejoin:miter;stroke-opacity:1"
           d="M 951.88086 684.1582 L 518.80273 983.83984 A 469.99996 469.99996 0 0 0 524.07422 983.65234 L 872.46484 818.17578 A 469.99996 469.99996 0 0 0 951.88086 684.1582 z "
           transform="matrix(0.26458333,0,0,0.26458333,0,26.06665)"
           id="path932" />
        <path
           style="fill:#820606;fill-opacity:1;stroke:none;stroke-width:0.99999994px;stroke-linecap:butt;stroke-linejoin:miter;stroke-opacity:1"
           d="M 341.85156 76.892578 A 469.99996 469.99996 0 0 0 210.91211 155.68945 L 505.5957 983.56445 A 469.99996 469.99996 0 0 0 506.91992 983.63086 L 341.85156 76.892578 z "
           transform="matrix(0.26458333,0,0,0.26458333,0,26.06665)"
           id="path936" />
        <path
           style="fill:#820606;fill-opacity:1;stroke:none;stroke-width:0.99999994px;stroke-linecap:butt;stroke-linejoin:miter;stroke-opacity:1"
           d="M 145.26562 223.77344 A 469.99996 469.99996 0 0 0 71.544922 357.9375 L 502.9375 983.43164 A 469.99996 469.99996 0 0 0 504.68164 983.51953 L 145.26562 223.77344 z "
           transform="matrix(0.26458333,0,0,0.26458333,0,26.06665)"
           id="path938" />
        <path
           style="fill:#820606;fill-opacity:1;stroke:none;stroke-width:0.99999994px;stroke-linecap:butt;stroke-linejoin:miter;stroke-opacity:1"
           d="M 49.183594 450.20117 A 469.99996 469.99996 0 0 0 44.285156 514 A 469.99996 469.99996 0 0 0 53.410156 604.0625 L 498.81836 983.22656 A 469.99996 469.99996 0 0 0 501.61914 983.36719 L 49.183594 450.20117 z "
           transform="matrix(0.26458333,0,0,0.26458333,0,26.06665)"
           id="path940" />
        <path
           style="fill:#820606;fill-opacity:1;stroke:none;stroke-width:0.99999994px;stroke-linecap:butt;stroke-linejoin:miter;stroke-opacity:1"
           d="M 81.439453 695.95703 A 469.99996 469.99996 0 0 0 166.06445 828.85547 L 490.16016 982.79297 A 469.99996 469.99996 0 0 0 496.4043 983.10547 L 81.439453 695.95703 z "
           transform="matrix(0.26458333,0,0,0.26458333,0,26.06665)"
           id="path942" />
      </g>
    </g>
    <g
       id="g948"
       transform="matrix(1.1155498,0,0,1.1155498,-138.94196,-205.00587)">
      <path
         id="path895"
         transform="matrix(0.26458333,0,0,0.26458333,0,26.06665)"
         d="m 999.45898,1250.5664 a 143.94674,73.236096 0 0 0 -0.41796,4.2539 143.94674,73.236096 0 0 0 143.94728,73.2363 143.94674,73.236096 0 0 0 136.3847,-50.0156 c -42.1734,-4.1048 -236.5856,-23.0326 -279.91402,-27.4746 z"
         style="opacity:1;fill:#fbde90;fill-opacity:1;stroke:none;stroke-width:1.00157475;stroke-linecap:round;stroke-linejoin:round;stroke-miterlimit:4;stroke-dasharray:none;stroke-dashoffset:0;stroke-opacity:1"
         inkscape:connector-curvature="0" />
      <path
         sodipodi:nodetypes="ccscccc"
         inkscape:connector-curvature="0"
         id="path893"
         d="m 338.56366,364.21827 c 0,0 2.67272,-3.4745 0.53454,-7.34991 -2.73951,-4.81084 -13.49419,-8.46009 -16.5707,-12.22759 -4.13951,-5.06925 -9.08716,-20.24567 -13.69756,-24.05424 -4.61041,-3.8086 -6.68176,-3.20726 -6.68176,-3.20726 l 0.26729,40.69181 z"
         style="fill:#fbde90;fill-opacity:1;stroke:none;stroke-width:0.26458332px;stroke-linecap:butt;stroke-linejoin:miter;stroke-opacity:1" />
      <ellipse
         style="opacity:1;fill:#820606;fill-opacity:1;stroke:#820606;stroke-width:1;stroke-linecap:round;stroke-linejoin:round;stroke-miterlimit:4;stroke-dasharray:none;stroke-dashoffset:0;stroke-opacity:1"
         id="ellipse915"
         cx="301.89548"
         cy="360.75867"
         rx="1.6036172"
         ry="0.53453904" />
      <ellipse
         style="opacity:1;fill:#820606;fill-opacity:1;stroke:#820606;stroke-width:1;stroke-linecap:round;stroke-linejoin:round;stroke-miterlimit:4;stroke-dasharray:none;stroke-dashoffset:0;stroke-opacity:1"
         id="ellipse919"
         cx="278.83893"
         cy="358.77429"
         rx="1.6036172"
         ry="0.53453904" />
      <path
         sodipodi:nodetypes="czszcc"
         inkscape:connector-curvature="0"
         id="path889"
         d="m 264.32956,357.00198 c 11.69814,-3.1345 17.20548,-10.39011 20.17885,-14.83345 2.97336,-4.44335 9.35768,-24.63149 17.10524,-24.85606 9.2208,-0.26727 13.9885,18.39691 18.84251,29.33281 4.85401,10.93591 18.1075,17.57299 18.1075,17.57299 z"
         style="fill:#000000;fill-opacity:1;stroke:none;stroke-width:0.26458332px;stroke-linecap:butt;stroke-linejoin:miter;stroke-opacity:1" />
      <path
         sodipodi:nodetypes="csccc"
         inkscape:connector-curvature="0"
         id="path891"
         d="m 264.32956,357.00198 c 0,0 2.49128,0.0249 9.75043,-4.25051 4.95719,-2.9196 6.56733,-5.66965 6.56733,-5.66965 0,0 -4.65074,1.06381 -9.35492,3.77976 -4.70419,2.71597 -6.96284,6.1404 -6.96284,6.1404 z"
         style="fill:#fbde90;fill-opacity:1;stroke:none;stroke-width:0.26458332px;stroke-linecap:butt;stroke-linejoin:miter;stroke-opacity:1" />
      <ellipse
         ry="0.53453904"
         rx="1.6036172"
         cy="374.32803"
         cx="308.79349"
         id="path905"
         style="opacity:1;fill:#820606;fill-opacity:1;stroke:#820606;stroke-width:1;stroke-linecap:round;stroke-linejoin:round;stroke-miterlimit:4;stroke-dasharray:none;stroke-dashoffset:0;stroke-opacity:1" />
      <ellipse
         style="opacity:1;fill:#820606;fill-opacity:1;stroke:#820606;stroke-width:1;stroke-linecap:round;stroke-linejoin:round;stroke-miterlimit:4;stroke-dasharray:none;stroke-dashoffset:0;stroke-opacity:1"
         id="ellipse907"
         cx="305.08926"
         cy="367.97803"
         rx="1.6036172"
         ry="0.53453904" />
      <ellipse
         ry="0.53453904"
         rx="1.6036172"
         cy="363.21555"
         cx="314.08524"
         id="ellipse909"
         style="opacity:1;fill:#820606;fill-opacity:1;stroke:#820606;stroke-width:1;stroke-linecap:round;stroke-linejoin:round;stroke-miterlimit:4;stroke-dasharray:none;stroke-dashoffset:0;stroke-opacity:1" />
      <ellipse
         style="opacity:1;fill:#820606;fill-opacity:1;stroke:#820606;stroke-width:1;stroke-linecap:round;stroke-linejoin:round;stroke-miterlimit:4;stroke-dasharray:none;stroke-dashoffset:0;stroke-opacity:1"
         id="ellipse911"
         cx="319.37689"
         cy="371.24753"
         rx="1.6036172"
         ry="0.53453904" />
      <ellipse
         ry="0.53453904"
         rx="1.6036172"
         cy="365.86136"
         cx="329.86572"
         id="ellipse913"
         style="opacity:1;fill:#820606;fill-opacity:1;stroke:#820606;stroke-width:1;stroke-linecap:round;stroke-linejoin:round;stroke-miterlimit:4;stroke-dasharray:none;stroke-dashoffset:0;stroke-opacity:1" />
      <ellipse
         ry="0.53453904"
         rx="1.6036172"
         cy="362.17609"
         cx="291.69012"
         id="ellipse917"
         style="opacity:1;fill:#820606;fill-opacity:1;stroke:#820606;stroke-width:1;stroke-linecap:round;stroke-linejoin:round;stroke-miterlimit:4;stroke-dasharray:none;stroke-dashoffset:0;stroke-opacity:1" />
      <ellipse
         ry="0.53453904"
         rx="1.6036172"
         cy="360.75867"
         cx="267.59415"
         id="ellipse921"
         style="opacity:1;fill:#820606;fill-opacity:1;stroke:#820606;stroke-width:1;stroke-linecap:round;stroke-linejoin:round;stroke-miterlimit:4;stroke-dasharray:none;stroke-dashoffset:0;stroke-opacity:1" />
      <ellipse
         style="opacity:1;fill:#820606;fill-opacity:1;stroke:#820606;stroke-width:1;stroke-linecap:round;stroke-linejoin:round;stroke-miterlimit:4;stroke-dasharray:none;stroke-dashoffset:0;stroke-opacity:1"
         id="ellipse923"
         cx="273.83075"
         cy="366.14484"
         rx="1.6036172"
         ry="0.53453904" />
      <ellipse
         ry="0.53453904"
         rx="1.6036172"
         cy="365.95584"
         cx="283.94162"
         id="ellipse925"
         style="opacity:1;fill:#820606;fill-opacity:1;stroke:#820606;stroke-width:1;stroke-linecap:round;stroke-linejoin:round;stroke-miterlimit:4;stroke-dasharray:none;stroke-dashoffset:0;stroke-opacity:1" />
      <ellipse
         style="opacity:1;fill:#820606;fill-opacity:1;stroke:#820606;stroke-width:1;stroke-linecap:round;stroke-linejoin:round;stroke-miterlimit:4;stroke-dasharray:none;stroke-dashoffset:0;stroke-opacity:1"
         id="ellipse927"
         cx="293.39102"
         cy="370.86951"
         rx="1.6036172"
         ry="0.53453904" />
      <ellipse
         ry="0.53453904"
         rx="1.6036172"
         cy="372.47589"
         cx="280.8233"
         id="ellipse929"
         style="opacity:1;fill:#820606;fill-opacity:1;stroke:#820606;stroke-width:1;stroke-linecap:round;stroke-linejoin:round;stroke-miterlimit:4;stroke-dasharray:none;stroke-dashoffset:0;stroke-opacity:1" />
    </g>
    <g
       id="g898"
       transform="matrix(0.68337758,0,0,0.68337758,40.991086,29.317442)">
      <path
         inkscape:connector-curvature="0"
         id="path870"
         d="m 64.999729,246.05284 c 0,-0.0913 0.37771,-1.00408 0.83937,-2.02847 0.461647,-1.0244 1.192847,-2.89442 1.624887,-4.1556 0.43204,-1.26118 1.38158,-3.24556 2.11009,-4.40972 0.72851,-1.16417 1.89053,-3.14854 2.582256,-4.40972 1.40329,-2.5585 3.21026,-4.43346 5.455187,-5.66046 0.82462,-0.45071 1.49931,-0.92308 1.49931,-1.04971 0,-0.61825 5.083077,-3.57977 7.532717,-4.38875 3.606547,-1.19103 4.358297,-1.60674 6.032627,-3.3359 0.766977,-0.7921 1.541427,-1.44018 1.720997,-1.44018 0.17956,0 0.90141,-0.48257 1.60409,-1.07236 1.68502,-1.41432 4.93371,-3.90382 6.04012,-4.6286 0.48507,-0.31776 1.51693,-1.18594 2.29304,-1.9293 2.26662,-2.17097 3.42768,-2.95286 4.39007,-2.95639 0.75704,-0.003 0.60231,-0.17495 -0.9651,-1.07382 -2.19077,-1.25634 -2.84823,-2.46146 -2.02682,-3.7151 0.29422,-0.44904 1.60813,-1.68698 2.91979,-2.75097 1.31166,-1.064 3.25796,-2.72805 4.32512,-3.69791 l 1.94028,-1.76337 -1.50503,-2.93456 c -0.99181,-1.9339 -1.50307,-3.38568 -1.4993,-4.25749 0.003,-0.7276 -0.15304,-1.32291 -0.34706,-1.32291 -0.19403,0 -0.35278,-0.39688 -0.35278,-0.88195 0,-0.48507 -0.15875,-0.88194 -0.35278,-0.88194 -0.19403,0 -0.35278,-0.22947 -0.35278,-0.50992 0,-0.28045 -0.41526,-0.71701 -0.92279,-0.97014 -0.71699,-0.35758 -1.10932,-1.05031 -1.75917,-3.10605 -0.46,-1.45521 -0.8385,-3.25813 -0.84109,-4.0065 -0.004,-1.07997 -0.11695,-1.31759 -0.54873,-1.1519 -0.38819,0.14896 -0.74296,-0.21915 -1.2386,-1.28517 -0.97499,-2.09706 -2.89605,-5.06589 -4.12791,-6.37934 -4.09391,-4.36507 -6.21912,-11.34639 -5.06361,-16.63404 0.22184,-1.01513 0.30293,-1.05566 1.986727,-0.99295 1.15874,0.0432 1.45567,-0.0168 0.87352,-0.17639 -0.48507,-0.13297 -1.332057,-0.54672 -1.882187,-0.91943 -0.7981,-0.54071 -1.05826,-0.58379 -1.2873,-0.21321 -0.20979,0.33946 -0.43525,0.17784 -0.83776,-0.60053 -0.63917,-1.23601 -0.4513,-1.57718 0.70823,-1.28615 0.74234,0.18631 0.82957,0.0887 0.82957,-0.92841 0,-1.06665 -0.0663,-1.12689 -1.07714,-0.97853 -1.45758,0.21393 -1.68331,-0.29318 -2.46874,-5.54606 -0.174067,-1.16417 -0.539327,-2.91042 -0.811677,-3.88056 -0.85207,-3.03516 0.0134,-7.27541 0.894747,-4.38357 0.24807,0.814 0.19432,-0.0369 -0.284217,-4.49939 l -0.19596,-1.8274 1.177737,-0.14461 c 0.84793,-0.10412 0.66064,-0.16042 -0.66877,-0.20107 -2.548697,-0.0779 -3.706157,-1.17014 -4.919947,-4.64257 -0.946637,-2.70815 -1.277147,-6.45271 -0.762877,-8.64306 0.553517,-2.35752 2.761827,-7.71162 4.131767,-10.01757 0.80152,-1.34915 1.457297,-2.58683 1.457297,-2.7504 0,-0.76373 1.85014,-2.89117 2.98101,-3.4278 0.69311,-0.32891 1.51422,-0.98569 1.82469,-1.45952 0.650457,-0.99273 2.93942,-1.77408 6.22674,-2.12554 2.64512,-0.28279 5.11282,-0.90524 7.48839,-1.88886 0.97014,-0.40169 3.50428,-1.31726 5.63144,-2.03459 2.60414,-0.87819 4.27515,-1.66847 5.11528,-2.41921 1.7852,-1.59525 2.0845,-1.71421 8.37024,-3.327 l 5.6798,-1.45731 6.6516,0.36286 c 8.95208,0.48836 12.20507,1.21166 17.0255,3.78562 5.22928,2.79227 6.33599,3.58823 7.11662,5.1184 0.37565,0.73634 1.35647,2.12087 2.17958,3.07674 3.83022,4.44794 3.73941,4.27469 3.68067,7.022 -0.0447,2.09112 0.0767,2.68213 0.73324,3.5702 0.43276,0.58534 0.78683,1.28936 0.78683,1.5645 0,0.27514 0.23393,0.6944 0.51983,0.93168 0.28591,0.23728 0.6247,1.01078 0.75287,1.71889 0.12817,0.70811 0.54377,2.12925 0.92356,3.15809 0.48762,1.32095 0.65513,2.51305 0.57005,4.05694 -0.11136,2.02093 -0.0624,2.1946 0.64766,2.2957 1.49301,0.21259 1.65765,0.84553 1.23556,4.7499 -0.82852,7.66378 -0.84631,8.25537 -0.28126,9.34807 0.30615,0.59203 1.03781,1.22481 1.70051,1.47071 0.63974,0.23738 1.37077,0.53756 1.62451,0.66706 0.25373,0.12949 1.09003,1.6296 1.85844,3.33356 1.14302,2.53471 1.32685,3.22939 1.0108,3.81993 -0.21247,0.397 -0.3075,0.92715 -0.21119,1.17813 0.32537,0.84791 -1.13512,5.46474 -2.37589,7.51054 -0.67788,1.1177 -1.7211,2.95624 -2.31826,4.08565 -1.01937,1.92791 -1.91418,3.18738 -5.29665,7.45518 -0.76177,0.96115 -1.93835,2.03142 -2.61463,2.37837 -1.61514,0.82862 -1.73159,1.66693 -1.57381,11.32949 0.14759,9.03906 0.0665,8.84418 3.83453,9.21547 2.53401,0.2497 3.15469,0.60103 2.48575,1.40704 -0.30104,0.36274 -0.2216,0.51482 0.34651,0.66338 0.69862,0.1827 0.72686,0.36117 0.54122,3.42069 -0.10773,1.77537 -0.29516,3.38859 -0.41651,3.58494 -0.12864,0.20815 0.12685,0.32804 0.61274,0.28752 3.76631,-0.31404 4.91999,0.48263 6.74525,4.65796 2.67081,6.10954 4.84786,12.13813 4.84786,13.42448 0,1.04316 0.23523,1.52958 1.1105,2.29637 1.55571,1.36288 2.77005,2.67998 2.77005,3.00444 0,0.15119 1.19063,1.61312 2.64584,3.24873 l 2.64583,2.97383 v 13.7764 13.7764 h -66.85137 c -36.76825,0 -66.851351,-0.0747 -66.851351,-0.16593 z"
         style="fill:#fbde90;fill-opacity:1;stroke-width:0.35277778" />
      <path
         inkscape:connector-curvature="0"
         id="path872"
         d="m 65.60188,245.60141 c 0.12492,-0.33955 0.42435,-0.93486 0.66539,-1.32292 0.24104,-0.38805 0.86025,-1.97555 1.376007,-3.52778 0.92421,-2.78147 3.29234,-7.27635 5.876566,-11.15412 0.8489,-1.27381 2.05212,-2.46257 3.367741,-3.32725 1.125816,-0.73994 2.639786,-1.84557 3.364366,-2.45695 1.872561,-1.58003 4.399287,-2.88391 7.846828,-4.04926 2.506986,-0.84742 3.483336,-1.42505 6.073063,-3.59303 3.19069,-2.67106 3.934631,-3.26648 7.389939,-5.91465 1.12489,-0.86211 2.94311,-2.39292 4.04051,-3.40179 1.0974,-1.00886 2.33149,-1.94102 2.74243,-2.07144 1.13117,-0.35902 9.57174,4.90264 9.57174,5.96682 0,0.43206 -2.42451,2.10484 -3.96874,2.73822 -0.76527,0.31388 -0.81167,0.98151 -0.0682,0.98151 0.46421,0 5.01987,-1.73611 7.38836,-2.81562 0.38805,-0.17687 1.57868,-0.65962 2.64583,-1.07278 1.06716,-0.41316 2.41653,-0.96521 2.99861,-1.22677 0.58209,-0.26157 2.09021,-0.91643 3.35139,-1.45525 1.26118,-0.53883 2.84868,-1.32147 3.52778,-1.73921 0.6791,-0.41773 1.56697,-0.86486 1.97304,-0.99362 1.36788,-0.43373 4.544,-3.05175 5.78807,-4.77101 1.55339,-2.14672 3.22943,-3.56463 4.21359,-3.56463 0.41818,0 1.24927,0.25284 1.84686,0.56186 1.42193,0.73532 4.07781,0.32356 11.40205,-1.76774 0.97014,-0.277 5.1595,-1.41908 9.30969,-2.53795 4.69578,-1.26595 8.01865,-2.35518 8.7977,-2.88386 1.02191,-0.69348 1.51515,-0.80755 2.68476,-0.62089 0.78807,0.12578 1.75945,0.4424 2.15863,0.70361 1.34578,0.88065 7.3248,15.41575 7.00329,17.02511 -0.147,0.73582 0.0554,1.3145 0.79957,2.28655 1.7168,2.24238 7.11185,8.30304 8.04354,9.03591 l 0.89034,0.70033 v 13.44298 13.44298 h -66.66395 c -63.340783,0 -66.65259,-0.0308 -66.43677,-0.61736 z m 58.72882,-48.47073 c -1.03183,-0.39642 -1.9624,-0.94579 -2.06794,-1.22083 -0.28037,-0.73063 0.48026,-1.47292 1.7635,-1.72097 4.33986,-0.8389 11.28672,-5.04272 12.92687,-7.82257 l 0.73006,-1.23736 -1.13162,-1.05709 -1.13162,-1.0571 -4.25383,0.40867 c -2.3396,0.22477 -4.9682,0.5428 -5.84132,0.70674 -0.87313,0.16393 -2.76166,0.19124 -4.19675,0.0607 -2.26328,-0.2059 -2.70072,-0.36016 -3.29918,-1.16345 -0.93749,-1.25837 -0.37868,-2.30586 1.40903,-2.64124 3.25843,-0.61128 9.7329,-3.45854 9.49953,-4.17758 -0.18631,-0.57405 -2.41605,-0.96609 -4.27975,-0.75249 -0.97829,0.11212 -3.84445,0.33758 -6.36924,0.50101 -2.52478,0.16343 -4.92762,0.47757 -5.33963,0.69807 -0.41202,0.2205 -1.08908,0.97711 -1.50459,1.68135 -0.69386,1.176 -0.81461,1.24116 -1.4806,0.79896 -0.77058,-0.51164 -2.78327,-4.84177 -2.78327,-5.98796 0,-1.11054 0.98235,-3.12876 1.52289,-3.12876 0.6086,0 3.76878,-4.17873 3.76878,-4.98348 0,-0.31601 -0.23812,-0.7722 -0.52917,-1.01374 -0.77899,-0.64651 -0.65546,-0.94529 0.56701,-1.37144 0.60289,-0.21017 2.02985,-1.01945 3.17101,-1.7984 1.14116,-0.77895 2.33283,-1.41627 2.64816,-1.41627 0.62311,0 3.11689,-1.2575 4.10896,-2.07197 1.44784,-1.18863 0.19249,-2.86692 -2.14444,-2.86692 h -1.47153 v -1.41111 c 0,-1.01914 0.14699,-1.41111 0.52917,-1.41111 0.29104,0 0.52916,0.14741 0.52916,0.32757 0,0.8716 1.12902,1.41366 2.57387,1.23577 0.81569,-0.10043 1.65153,-0.0567 1.8574,0.0972 0.7154,0.53467 2.97707,4.60995 2.97707,5.36432 0,0.41742 0.23812,1.32885 0.52916,2.02541 0.29105,0.69656 0.52917,1.56093 0.52917,1.92082 0,0.96795 1.27042,1.58755 4.19986,2.04834 1.4368,0.226 3.06243,0.67677 3.61251,1.00171 1.27735,0.75455 1.67966,0.37659 2.00265,-1.88139 0.18625,-1.30203 0.44287,-1.81351 1.06568,-2.12402 1.29587,-0.64605 1.50806,-1.00146 1.5296,-2.56193 0.0162,-1.17537 0.22592,-1.63701 1.06396,-2.34217 0.57407,-0.48305 1.17929,-0.87827 1.34494,-0.87827 0.16564,0 0.3519,-0.3557 0.4139,-0.79045 0.0636,-0.44599 0.53549,-0.99243 1.08287,-1.25397 0.53358,-0.25494 0.97014,-0.62854 0.97014,-0.83022 0,-0.20168 0.88868,-2.1874 1.97482,-4.41272 1.82879,-3.74681 1.93314,-4.09208 1.41112,-4.66892 -0.31004,-0.34258 -0.56372,-0.77897 -0.56372,-0.96974 0,-0.19077 -0.47625,-0.69896 -1.05833,-1.12931 -0.58208,-0.43035 -1.05833,-1.00864 -1.05833,-1.28508 0,-1.05145 -2.28314,-1.00518 -5.89021,0.11935 -3.63745,1.13401 -6.10424,1.6764 -6.10424,1.3422 0,-0.10948 0.18941,-0.61477 0.42092,-1.12286 0.52852,-1.15998 -0.0741,-1.6558 -1.71178,-1.40843 -1.46378,0.22111 -3.65153,1.5267 -3.44775,2.05754 0.11804,0.30752 -0.62926,0.38517 -2.82946,0.29401 -2.94261,-0.12191 -3.00539,-0.10701 -3.9727,0.94291 -0.7306,0.79299 -4.11924,2.53025 -4.93918,2.53218 -0.44498,0.001 -0.92652,-2.11612 -1.03291,-4.54143 -0.0773,-1.76282 -0.33496,-3.30945 -0.62502,-3.75213 -0.2714,-0.41421 -0.69065,-1.41128 -0.93166,-2.21571 -0.55111,-1.83944 -0.29062,-2.19411 2.62394,-3.57272 4.81355,-2.27686 10.04333,-3.28863 15.74005,-3.04514 3.56497,0.15237 9.48829,-0.36761 10.02157,-0.87975 0.19065,-0.18308 0.14668,-0.51656 -0.10866,-0.82423 -0.55574,-0.66961 -0.3093,-3.35672 0.34587,-3.7714 0.27552,-0.17439 0.93616,-0.3195 1.46809,-0.32247 0.58082,-0.003 1.14316,-0.28724 1.40778,-0.71096 0.24234,-0.38805 0.79931,-0.70555 1.23771,-0.70555 0.55586,0 0.79708,-0.20878 0.79708,-0.68989 0,-0.37944 0.3795,-1.24911 0.84333,-1.9326 0.80586,-1.1875 0.8203,-1.30954 0.32509,-2.74691 -0.64306,-1.86648 -1.06669,-2.39171 -1.92907,-2.39171 -0.38711,0 -0.9631,-0.48956 -1.35251,-1.14957 -0.37305,-0.63226 -1.12593,-1.414 -1.67308,-1.73721 -1.58453,-0.93601 -5.73272,-2.40489 -6.79152,-2.40489 -0.53282,0 -1.36536,-0.31197 -1.8501,-0.69326 -0.48473,-0.3813 -1.63751,-0.86273 -2.56172,-1.06985 -0.92421,-0.20712 -1.93808,-0.51332 -2.25304,-0.68044 -1.25097,-0.66378 -8.23171,-1.86647 -12.5671,-2.16515 -5.45056,-0.3755 -6.37051,-0.16324 -8.71614,2.01107 -1.39878,1.29662 -1.88848,1.5393 -3.10616,1.5393 -0.79507,0 -2.13455,0.31386 -2.97663,0.69747 -1.58018,0.71986 -4.086042,3.26518 -5.043928,5.12336 -0.30006,0.58208 -1.064851,1.66702 -1.699531,2.41098 -0.63468,0.74396 -1.51023,2.23044 -1.94568,3.3033 l -0.79171,1.95065 -1.595526,-0.21869 c -0.877541,-0.12028 -1.942121,-0.44579 -2.365751,-0.72336 -1.28262,-0.84041 -2.686766,-4.88653 -2.883986,-8.31038 -0.15977,-2.77344 -0.0759,-3.27774 1.117356,-6.71577 0.70955,-2.04444 1.83735,-4.66382 2.50621,-5.82084 0.66887,-1.15702 1.644081,-2.96189 2.167151,-4.01083 0.586236,-1.17562 1.353486,-2.12284 2.000256,-2.46944 0.57708,-0.30926 1.63242,-1.07357 2.3452,-1.69848 1.504717,-1.31923 4.484619,-2.21351 7.392849,-2.21864 1.37662,-0.002 2.52792,-0.27734 3.89463,-0.92998 1.06715,-0.5096 4.37844,-1.7636 7.35841,-2.78667 3.9935,-1.37103 5.70954,-2.14116 6.52639,-2.92894 1.37728,-1.32825 1.95963,-1.54926 8.54915,-3.24465 l 5.32424,-1.36985 5.08271,0.33678 c 11.57116,0.7667 13.60897,1.31456 20.89323,5.61704 2.17194,1.28287 3.08605,2.04401 3.41839,2.84634 0.39696,0.95837 2.43355,3.50169 5.47169,6.83316 0.82753,0.90743 0.9033,1.20328 0.69536,2.71518 -0.29148,2.11938 0.59404,5.42074 1.79436,6.68962 0.48093,0.50839 1.24023,2.19248 1.74962,3.88055 0.76149,2.52353 0.86412,3.37586 0.66704,5.54 -0.23258,2.55385 -0.23162,2.55764 0.64727,2.55764 1.48567,0 1.75717,0.69512 1.33187,3.41005 -0.76477,4.88217 -1.12828,9.60273 -0.78647,10.2135 0.18517,0.33089 1.18913,1.17126 2.23102,1.8675 3.49383,2.33475 4.69308,6.75622 3.12932,11.53735 -1.88568,5.76536 -5.93913,12.09444 -10.39212,16.22634 l -3.19009,2.96006 0.1189,7.53423 c 0.0654,4.14383 0.30352,8.46561 0.52917,9.60397 0.46685,2.35522 1.18668,2.9514 3.58527,2.96943 1.7681,0.0133 2.53461,0.41849 1.85639,0.98136 -1.02868,0.85372 -7.73169,2.31315 -14.90917,3.24612 -3.46397,0.45028 -9.04485,1.31959 -10.34083,1.61077 -0.44871,0.10081 -1.82115,1.09059 -3.04986,2.1995 -6.30674,5.69184 -8.56764,7.02681 -13.59681,8.02841 -1.64924,0.32846 -3.53394,0.81665 -4.18822,1.08486 -1.61157,0.66064 -3.04103,0.58747 -5.27255,-0.26987 z m -4.45945,-24.31316 c 0.32468,-0.52534 -0.0518,-0.81096 -0.72721,-0.55177 -0.3117,0.11962 -0.46793,0.37735 -0.34717,0.57275 0.28595,0.46268 0.78144,0.45301 1.07438,-0.021 z m 12.50735,-34.28417 c -0.003,-0.75602 -1.61573,-2.51337 -2.05652,-2.24094 -0.73021,0.45129 -0.47928,1.97172 0.38258,2.31815 1.13295,0.45538 1.67596,0.43034 1.67394,-0.0772 z m 13.59984,-52.14903 c 0.25052,-0.40535 -1.01079,-1.93089 -2.06716,-2.5002 -0.44607,-0.2404 -0.80548,-0.20746 -1.18647,0.10873 -0.47926,0.39775 -0.37875,0.59558 0.8163,1.60674 1.43354,1.21294 2.05001,1.41142 2.43733,0.78473 z m -48.679469,58.50873 c -0.30204,-0.43122 -0.54917,-1.45373 -0.54917,-2.27223 0,-1.60829 -0.30899,-1.97017 -1.72828,-2.02412 -0.80812,-0.0307 -0.94697,-0.2242 -1.16422,-1.62237 -0.659626,-4.24535 -0.993276,-5.96503 -1.328247,-6.84607 -0.52511,-1.38115 -0.47706,-3.8333 0.0715,-3.65043 0.749071,0.24969 1.635587,3.83384 1.658207,6.70413 0.026,3.30294 0.27005,3.4023 3.30025,1.34387 1.269941,-0.86266 2.803519,-1.54616 4.049639,-1.80485 2.10382,-0.43675 5.63294,-0.24258 6.7836,0.37323 0.8659,0.46342 1.40583,2.43234 1.40832,5.13561 0.003,3.10352 -0.41058,3.51639 -3.40436,3.39973 -2.05492,-0.0801 -2.5302,-0.22358 -3.19133,-0.96355 -0.42726,-0.4782 -0.99709,-0.86945 -1.2663,-0.86945 -0.49303,0 -1.30827,1.40515 -1.30827,2.25498 0,0.6804 -1.183952,1.62557 -2.036238,1.62557 -0.41028,0 -0.993101,-0.35282 -1.295141,-0.78405 z"
         style="fill:#820606;fill-opacity:1;stroke-width:0.35277778" />
      <path
         inkscape:connector-curvature="0"
         id="path874"
         d="m 67.116436,245.89119 c 0,-0.18017 0.213053,-0.54063 0.47345,-0.80103 0.871589,-0.87159 1.290439,-1.98838 1.290439,-3.44072 0,-1.07428 0.54213,-2.48386 2.131445,-5.54193 2.80814,-5.40326 4.259495,-7.51888 5.88079,-8.57237 0.735007,-0.47759 2.310348,-1.6277 3.500758,-2.5558 2.512015,-1.95849 6.543671,-3.96223 9.252061,-4.5983 1.591611,-0.3738 2.599208,-1.0314 6.356261,-4.14838 2.455649,-2.03729 5.17638,-4.25314 6.04606,-4.92411 0.86968,-0.67097 2.51832,-2.07413 3.66365,-3.11813 2.9702,-2.70743 3.0782,-2.72458 6.33752,-1.00597 1.52652,0.80492 3.34385,1.9541 4.03851,2.55374 l 1.26302,1.09024 -2.33018,1.30312 c -1.28159,0.71671 -2.58664,1.69453 -2.90011,2.17294 -0.3387,0.51693 -0.90693,0.86984 -1.40055,0.86984 -1.07458,0 -1.89817,0.92383 -1.33006,1.49194 0.30309,0.30309 0.60836,0.21145 1.22486,-0.36773 0.53442,-0.50206 1.27009,-0.77144 2.1068,-0.77144 1.09673,0 9.83191,-3.23553 15.24944,-5.64842 0.77612,-0.34567 1.99649,-0.87081 2.71196,-1.16698 0.71546,-0.29616 2.93796,-1.45367 4.93889,-2.57222 2.00092,-1.11856 5.30492,-2.9583 7.34221,-4.08832 2.03729,-1.13002 5.21229,-2.52245 7.05556,-3.09431 3.48933,-1.08252 4.56661,-1.38212 17.63888,-4.90545 4.36563,-1.17665 8.73125,-2.55161 9.70139,-3.05546 1.63961,-0.85155 1.86332,-0.88336 3.175,-0.45149 1.66186,0.54715 2.04387,1.23409 5.65977,10.17724 1.77452,4.3889 2.26139,5.96283 2.08831,6.75088 -0.15294,0.69635 -0.0259,1.3358 0.39419,1.98345 0.79661,1.22827 4.20573,5.10081 7.46815,8.48335 l 2.55764,2.6518 v 12.8138 12.8138 h -65.79306 c -40.252847,0 -65.793054,-0.12716 -65.793054,-0.32758 z m 11.994444,-2.31825 c 0,-0.58079 -0.966317,-0.96346 -1.254685,-0.49687 -0.120421,0.19485 -0.131514,0.58211 -0.02465,0.86059 0.229318,0.59759 1.279337,0.29906 1.279337,-0.36372 z m 1.612235,-1.82664 c -0.10107,-0.26339 0.07891,-1.02971 0.39995,-1.70294 0.670945,-1.40699 0.288957,-2.15116 -0.501075,-0.97617 -0.4307,0.64056 -0.657026,0.71709 -1.223726,0.4138 -0.906756,-0.48528 -1.698495,-0.16283 -1.698495,0.69174 0,0.69885 0.643101,1.10715 1.743822,1.10715 0.494355,0 0.588604,0.20619 0.443447,0.97014 -0.167386,0.88094 -0.128976,0.9244 0.417753,0.47265 0.331148,-0.27362 0.519394,-0.71299 0.418324,-0.97637 z m -6.891493,-3.83276 c 0.320875,-0.38663 0.342274,-0.65342 0.07393,-0.92176 -0.505054,-0.50506 -1.144676,-0.0686 -1.144676,0.78114 0,0.82388 0.454184,0.88353 1.070742,0.14062 z m 55.168028,-42.44737 c 0.13602,-0.2201 0.61486,-0.40018 1.06409,-0.40018 0.44922,0 1.51141,-0.24782 2.36043,-0.55071 2.07891,-0.74166 4.54227,-1.1903 4.54227,-0.82727 0,0.53883 -1.53877,1.12876 -3.69275,1.41572 -1.17045,0.15592 -2.66657,0.3913 -3.32473,0.52306 -0.85109,0.17037 -1.12522,0.12399 -0.94931,-0.16062 z m 9.11751,-2.40765 c 0.32801,-0.328 0.71461,-0.47812 0.85913,-0.3336 0.14453,0.14452 0.0292,0.41046 -0.25618,0.59096 -0.85886,0.54316 -1.24055,0.38024 -0.60295,-0.25736 z m 30.08904,-11.111 c 0.82949,-1.45197 1.16107,-1.58717 2.97915,-1.21474 2.09967,0.43011 2.25481,0.81824 0.4415,1.10461 -3.72715,0.5886 -3.69337,0.58751 -3.42065,0.11013 z m -57.25712,-5.83214 c -0.69616,-0.24972 -0.51367,-0.80494 0.26458,-0.80494 0.38806,0 0.70556,0.14938 0.70556,0.33195 0,0.45157 -0.43653,0.6644 -0.97014,0.47299 z m 10.06658,-1.43802 c 0.44339,-0.3309 1.12779,-0.84116 1.52089,-1.1339 0.94045,-0.70035 0.60518,-1.49355 -0.94342,-2.23202 -2.1009,-1.00185 -3.14752,-0.78207 -4.9741,1.0445 l -1.63161,1.63162 -0.6681,-0.83787 c -0.36745,-0.46083 -0.81143,-1.18371 -0.98662,-1.60642 -0.19807,-0.47791 -0.69232,-0.81143 -1.30698,-0.88194 -0.78892,-0.0905 -0.98845,-0.29142 -0.98845,-0.99534 0,-0.73707 0.18825,-0.9001 1.14606,-0.99245 1.45894,-0.14068 1.98297,-1.0721 1.66433,-2.95817 -0.262,-1.55073 0.0868,-2.03134 1.48149,-2.0412 0.4638,-0.003 1.19596,-0.55065 1.86289,-1.39272 1.40466,-1.77353 3.04393,-2.36344 4.86954,-1.75236 0.7276,0.24355 1.75948,0.41209 2.29305,0.37453 0.93078,-0.0655 0.9706,-7e-5 0.98136,1.61302 0.006,0.92471 0.22297,1.96028 0.48177,2.30127 0.58885,0.77583 3.44835,1.66422 5.37296,1.66927 2.59508,0.007 5.03161,1.41038 5.05894,2.91423 0.008,0.45056 -0.26909,0.61736 -1.02629,0.61736 -1.1672,0 -1.76789,0.59878 -0.92512,0.92218 0.62745,0.24078 0.74217,1.3878 0.17391,1.739 -0.63955,0.39526 -4.59186,1.13056 -7.55989,1.40645 -1.55222,0.14429 -3.43749,0.47872 -4.18949,0.74319 -1.95394,0.68717 -2.73815,0.61724 -1.70712,-0.15223 z m -11.90878,-1.11724 c -0.44692,-0.28263 -0.43698,-0.35998 0.0713,-0.55502 0.64735,-0.24841 1.32992,0.0402 1.32992,0.56227 0,0.42242 -0.72776,0.41865 -1.40122,-0.007 z m 55.15511,-14.99597 c -0.22942,-0.59786 0.0483,-2.95407 0.3883,-3.29405 0.41635,-0.41635 0.86311,0.52845 0.96319,2.03696 0.084,1.26635 -0.0162,1.59766 -0.51408,1.70029 -0.34014,0.0701 -0.71697,-0.12934 -0.83741,-0.4432 z m 2.76111,-6.96038 c -0.63709,-0.6371 -0.52654,-1.05459 0.66069,-2.4949 0.91579,-1.11101 1.29901,-1.3151 2.46944,-1.3151 0.76199,0 1.38543,-0.15035 1.38543,-0.33411 0,-0.18376 -0.40406,-1.09404 -0.8979,-2.02283 -1.02573,-1.92914 -1.11823,-4.79127 -0.16043,-4.9642 0.29104,-0.0525 1.74566,0.69462 3.23249,1.66035 2.12873,1.38269 2.75337,1.98375 2.93877,2.82787 0.5113,2.32795 -2.21988,5.26441 -4.93654,5.30757 -0.58208,0.009 -1.69333,0.40792 -2.46945,0.88594 -1.63139,1.0048 -1.6611,1.01081 -2.2225,0.44941 z m 12.85504,-7.22977 c -0.39107,-0.39108 -0.24882,-1.50948 0.50953,-4.00621 0.748,-2.46261 0.80958,-6.05957 0.13863,-8.09624 -0.27098,-0.82254 -0.2471,-0.8463 0.35444,-0.35278 1.664,1.36519 2.1861,6.26673 0.93153,8.7453 -0.36438,0.71988 -0.77347,1.82298 -0.90909,2.45135 -0.25535,1.18313 -0.63471,1.64891 -1.02504,1.25858 z m -81.657301,-1.18877 c 0.08241,-0.55524 0.393735,-0.8135 1.065467,-0.88386 0.839834,-0.088 0.916604,-0.0111 0.667155,0.66802 -0.155031,0.42209 -0.634492,0.81983 -1.065466,0.88387 -0.635459,0.0944 -0.761577,-0.0319 -0.667156,-0.66803 z m 64.574221,-0.0626 c -0.70148,-0.84524 -2.18552,-4.30361 -2.18906,-5.10135 -0.002,-0.42714 -0.7972,-2.28481 -1.76734,-4.12816 -0.97014,-1.84335 -1.76389,-3.58841 -1.76389,-3.87791 0,-0.2895 -0.56935,-1.92432 -1.26522,-3.63294 -1.758,-4.31653 -2.1593,-6.05217 -2.43114,-10.51492 -0.26649,-4.37475 -0.65179,-5.99364 -1.70025,-7.14375 -0.754,-0.8271 -2.55916,-1.0917 -2.7869,-0.4085 -0.14427,0.43281 -2.23472,-0.13187 -6.74391,-1.82167 -1.51612,-0.56816 -2.97358,-1.03302 -3.23879,-1.03302 -0.26521,0 -1.7235,-0.38501 -3.24064,-0.85558 -4.8847,-1.51506 -9.22559,-2.35761 -12.91465,-2.50667 -4.90667,-0.19825 -7.63472,-0.51405 -8.89378,-1.02956 -0.58208,-0.23833 -1.25249,-0.36774 -1.4898,-0.28758 -0.23731,0.0802 -1.24316,1.16581 -2.23524,2.41256 -1.57948,1.98497 -1.95214,2.26683 -2.99704,2.26683 -0.90657,0 -1.14532,-0.12498 -0.99367,-0.52017 0.19829,-0.51674 -1.18589,-2.59797 -1.7527,-2.63531 -0.33877,-0.0223 -1.61462,1.42439 -1.63231,1.85091 -0.007,0.15562 0.47173,0.45147 1.06263,0.65746 0.5909,0.20599 1.02746,0.49151 0.97014,0.63449 -0.0874,0.21811 -1.53976,1.46001 -6.013258,5.14202 -0.339548,0.27947 -0.617361,0.88928 -0.617361,1.35512 0,0.46813 -0.630167,1.60957 -1.408825,2.55186 -0.774855,0.93768 -1.687667,2.38312 -2.028473,3.21209 -0.462284,1.12445 -0.815391,1.50755 -1.390431,1.50854 -1.734003,0.003 -2.604835,-0.67156 -3.525856,-2.73109 -0.803344,-1.79637 -0.90108,-2.44751 -0.848951,-5.65594 0.08006,-4.92764 1.166511,-8.60715 4.026994,-13.63834 l 2.193829,-3.85864 2.953833,-1.69761 c 2.882619,-1.65669 4.148699,-2.14955 3.273439,-1.27428 -0.23284,0.23283 -0.42334,0.84899 -0.42334,1.36923 0,0.83366 -0.19827,0.99582 -1.671006,1.36666 -1.858642,0.46801 -2.196257,0.80712 -2.204145,2.21391 -0.0066,1.17984 1.064909,1.55431 2.954561,1.03256 1.11102,-0.30677 1.32589,-0.26396 1.64227,0.3272 0.2919,0.54542 0.18976,0.8544 -0.51558,1.55974 l -0.87958,0.87959 h 1.25983 c 1.07387,0 1.23337,0.10118 1.08057,0.68551 -0.20355,0.77835 0.90052,1.98304 1.48586,1.62128 0.57976,-0.35832 0.44286,-1.85249 -0.19207,-2.09614 -0.46702,-0.17921 -0.34251,-0.46617 0.70555,-1.62626 0.69995,-0.77475 1.27263,-1.76821 1.27263,-2.20768 0,-0.43947 0.3905,-1.37371 0.86778,-2.07609 0.47728,-0.70238 1.27997,-2.14762 1.78376,-3.21164 0.73399,-1.55021 1.24499,-2.11181 2.57181,-2.8265 1.80723,-0.97346 8.58084,-3.23443 10.81471,-3.60985 0.95351,-0.16025 1.77036,-0.62997 2.57003,-1.47786 2.24325,-2.37854 8.20302,-3.08883 8.20302,-0.97764 0,0.61385 -0.48735,0.65836 -1.46716,0.13398 -0.81228,-0.43472 -2.55268,-0.128 -2.23061,0.39312 0.1164,0.18834 0.64725,0.34243 1.17965,0.34243 0.53241,0 1.62289,0.4816 2.42329,1.07022 1.11291,0.81845 1.43344,1.27505 1.36245,1.94085 -0.0511,0.47884 -0.1984,0.9762 -0.32744,1.10524 -0.50754,0.50754 -0.18398,1.6597 0.88352,3.14616 1.2338,1.71804 1.96776,1.92442 2.95689,0.83144 0.43613,-0.48192 0.91674,-0.66025 1.43133,-0.53109 0.4261,0.10694 1.27914,0.0936 1.89566,-0.0298 0.89276,-0.17855 1.08429,-0.36429 0.94094,-0.91249 -0.16473,-0.62992 -0.12862,-0.6418 0.42574,-0.14011 0.94108,0.85166 3.154,1.68214 3.40408,1.27749 0.11885,-0.19229 0.66652,-0.34962 1.21705,-0.34962 0.70416,0 1.32563,-0.36976 2.09585,-1.247 0.60218,-0.68585 1.09488,-1.46236 1.09488,-1.72559 0,-0.26322 -0.6586,-0.7421 -1.46355,-1.06418 -1.9204,-0.76839 -1.3865,-1.33322 1.45444,-1.53872 1.95236,-0.14122 2.10345,-0.21201 1.93123,-0.90483 -0.14982,-0.60271 0.16127,-0.97878 1.57017,-1.89816 0.96636,-0.63059 1.93162,-1.14652 2.14502,-1.14652 0.54491,0 2.86833,1.19967 6.2337,3.21872 2.17733,1.30628 3.14157,2.14011 3.97278,3.43542 0.60368,0.94076 1.43259,2.01124 1.84202,2.37886 0.40943,0.36761 1.3387,1.54151 2.06506,2.60866 1.25995,1.85112 1.33264,2.11679 1.58186,5.7812 l 0.26122,3.84092 1.32188,1.27436 c 1.48287,1.42956 2.83694,4.63178 2.83694,6.70901 0,0.72321 -0.171,2.23996 -0.38,3.37055 -0.41295,2.23383 -0.20759,2.64393 1.32932,2.65467 1.10334,0.008 1.17582,0.29644 0.76059,3.02978 -0.46467,3.05884 -0.64417,4.97641 -0.74706,7.98091 -0.079,2.30537 -0.11446,2.38725 -1.47504,3.40184 -0.76678,0.57179 -1.79865,1.59082 -2.29306,2.26451 -2.59929,3.54186 -3.95955,5.20402 -4.66071,5.69514 -0.42808,0.29983 -1.36103,1.70028 -2.07323,3.11211 -1.02711,2.0361 -1.47584,2.58888 -2.16985,2.67298 -0.48123,0.0583 -1.05178,-0.10702 -1.26789,-0.36742 z M 123.08244,86.13029 c -0.36016,-0.0763 -0.80876,0.0151 -0.99689,0.20326 -0.22089,0.22088 0.0111,0.27005 0.65483,0.1388 0.73835,-0.15054 0.82706,-0.23925 0.34206,-0.34206 z m -18.99461,55.89836 c -1.11011,-1.11011 -3.06941,-1.44667 -5.194681,-0.89233 -0.346996,0.0905 -0.602044,-0.34817 -0.824322,-1.41785 -0.292057,-1.40547 -0.240002,-1.63077 0.562063,-2.43284 0.844222,-0.84422 1.86436,-1.14634 5.78595,-1.71352 1.91529,-0.27701 3.30686,0.30433 4.1516,1.73436 0.81245,1.37538 0.90869,4.3863 0.15542,4.8629 -0.78767,0.49836 -4.09741,0.39791 -4.63603,-0.14072 z m 0.42305,-1.29044 c 0,-0.19402 -0.15875,-0.35277 -0.35278,-0.35277 -0.19402,0 -0.35277,0.15875 -0.35277,0.35277 0,0.19403 0.15875,0.35278 0.35277,0.35278 0.19403,0 0.35278,-0.15875 0.35278,-0.35278 z m 16.82948,-1.52567 c -0.0986,-0.25705 -0.0132,-1.19361 0.18998,-2.08126 0.47763,-2.08722 0.24746,-2.60197 -1.29268,-2.89089 -1.04486,-0.19602 -1.26289,-0.38773 -1.26289,-1.11045 0,-0.57799 0.26854,-0.97936 0.79375,-1.18637 2.05133,-0.8085 5.53276,-1.76135 6.96736,-1.90692 0.87313,-0.0886 2.02385,-0.27415 2.55715,-0.41233 0.57685,-0.14946 1.97365,-0.005 3.44805,0.35613 l 2.4784,0.60736 -0.2152,1.14712 c -0.19205,1.02374 -0.0886,1.22321 0.96167,1.85454 0.64728,0.38907 1.80334,0.80241 2.56903,0.91852 1.60082,0.24276 3.22892,1.64284 2.90176,2.49539 -0.11815,0.30791 -0.46303,0.55983 -0.76639,0.55983 -1.01083,0 -2.99836,-1.01535 -2.99836,-1.53175 0,-1.16993 -2.12438,-0.93463 -2.59325,0.28723 -0.50568,1.31778 -2.60597,0.15108 -2.17462,-1.20799 0.23359,-0.73598 -0.30038,-1.01661 -0.70098,-0.36841 -0.12036,0.19474 -0.61477,0.2547 -1.09869,0.13324 -1.033,-0.25927 -2.41924,0.8425 -2.75794,2.19197 -0.11713,0.46667 -0.43672,0.84849 -0.7102,0.84849 -0.27349,0 -0.7103,0.21306 -0.9707,0.47345 -1.28862,1.28862 -4.93059,1.85154 -5.32525,0.8231 z m 50.90386,-1.67252 c 0,-1.02619 0.63581,-2.09347 1.24713,-2.09347 0.67652,0 0.65982,1.04986 -0.0324,2.03817 -0.68823,0.98258 -1.21472,1.00655 -1.21472,0.0553 z M 100.9885,94.25974 c 0.009,-1.02893 0.45886,-1.40075 1.89307,-1.5647 l 1.3693,-0.15654 -1.27592,1.1693 c -1.42777,1.30845 -1.99444,1.4659 -1.98645,0.55194 z m 34.37593,-7.52 c -0.12789,-0.20693 -0.14782,-0.46095 -0.0443,-0.56449 0.2527,-0.2527 0.94074,0.19256 0.94074,0.60878 0,0.45084 -0.60903,0.42075 -0.89645,-0.0443 z m 10.84496,-6.68606 c -1.30619,-0.79637 -1.21256,-1.40678 0.21468,-1.39954 1.79397,0.009 2.53681,0.3813 2.53681,1.27105 0,1.07426 -1.11486,1.12632 -2.75149,0.12849 z"
         style="fill:#000000;stroke-width:0.35277778" />
    </g>
    <path
       style="opacity:1;fill:#fbde90;fill-opacity:1;stroke:#820606;stroke-width:3.77952761;stroke-linecap:round;stroke-linejoin:round;stroke-miterlimit:4;stroke-dasharray:none;stroke-dashoffset:0;stroke-opacity:1"
       d="M 245.71484 638.85742 L 245.71484 899.48438 A 469.99996 469.99996 0 0 0 514.28516 984 A 469.99996 469.99996 0 0 0 778.57227 902.0957 L 778.57227 638.85742 L 245.71484 638.85742 z "
       transform="matrix(0.26458333,0,0,0.26458333,0,26.06665)"
       id="rect902" />
    <text
       xml:space="preserve"
       style="font-style:normal;font-variant:normal;font-weight:normal;font-stretch:normal;font-size:50.79999924px;line-height:1.25;font-family:Kremlin;-inkscape-font-specification:Kremlin;letter-spacing:0px;word-spacing:0px;fill:#000000;fill-opacity:1;stroke:none;stroke-width:0.26458332"
       x="71.093697"
       y="221.61923"
       id="text831"><tspan
         sodipodi:role="line"
         id="tspan829"
         x="71.093697"
         y="221.61923"
         style="font-size:22.57777786px;stroke-width:0.26458332">mastering</tspan></text>
    <text
       xml:space="preserve"
       style="font-style:normal;font-variant:normal;font-weight:normal;font-stretch:normal;font-size:50.79999924px;line-height:1.25;font-family:Kremlin;-inkscape-font-specification:Kremlin;letter-spacing:0px;word-spacing:0px;fill:#000000;fill-opacity:1;stroke:none;stroke-width:0.26458332"
       x="73.766396"
       y="259.58224"
       id="text835"><tspan
         sodipodi:role="line"
         id="tspan833"
         x="73.766396"
         y="259.58224"
         style="font-size:35.27777863px;stroke-width:0.26458332">power</tspan></text>
  </g>
</svg>
